SplineFontDB: 3.2
FontName: Atari-825-Proportional-Elongated
FullName: Atari 825 Proportional Elongated Regular
FamilyName: Atari 825 Proportional Elongated
Weight: Book
Copyright: Copyright jeffpiep 2020\n"Atari 825 Proportional
Version: 1.0
ItalicAngle: 0
UnderlinePosition: 74.707
UnderlineWidth: 49.8047
Ascent: 800
Descent: 200
InvalidEm: 0
sfntRevision: 0x00010000
LayerCount: 2
Layer: 0 1 "Back" 1
Layer: 1 1 "Fore" 0
XUID: [1021 376 -1330786101 14674]
StyleMap: 0x0040
FSType: 4
OS2Version: 2
OS2_WeightWidthSlopeOnly: 0
OS2_UseTypoMetrics: 0
CreationTime: 1592619798
ModificationTime: 1592621227
PfmFamily: 81
TTFWeight: 400
TTFWidth: 5
LineGap: 0
VLineGap: 0
Panose: 0 0 4 0 0 0 0 0 0 0
OS2TypoAscent: 810
OS2TypoAOffset: 0
OS2TypoDescent: -231
OS2TypoDOffset: 0
OS2TypoLinegap: 0
OS2WinAscent: 810
OS2WinAOffset: 0
OS2WinDescent: 231
OS2WinDOffset: 0
HheadAscent: 810
HheadAOffset: 0
HheadDescent: -231
HheadDOffset: 0
OS2SubXSize: 500
OS2SubYSize: 500
OS2SubXOff: 0
OS2SubYOff: -116
OS2SupXSize: 500
OS2SupYSize: 500
OS2SupXOff: 0
OS2SupYOff: 500
OS2StrikeYSize: 50
OS2StrikeYPos: 200
OS2CapHeight: 816
OS2XHeight: 584
OS2Vendor: 'FSTR'
OS2CodePages: 00000001.00000000
OS2UnicodeRanges: 80000001.00000000.00000000.00000000
MarkAttachClasses: 1
DEI: 91125
ShortTable: maxp 16
  1
  0
  102
  342
  7
  0
  0
  2
  0
  0
  0
  0
  0
  0
  0
  0
EndShort

StartChar: exclam
Encoding: 33 33 1
Width: 457
VWidth: 750
Flags: W
LayerCount: 2
Fore
SplineSet
208 0 m 2,0,1
 190 0 190 0 178 14 c 256,2,3
 166 28 166 28 166 46 c 0,4,5
 166 65 166 65 178 78 c 0,6,7
 189.2 91.0666666667 189.2 91.0666666667 205.626666667 91.0666666667 c 0,8,9
 206.8 91.0666666667 206.8 91.0666666667 208 91 c 2,10,-1
 292 91 l 2,11,12
 309 91 309 91 321 78 c 128,-1,13
 333.071428571 65 333.071428571 65 333.071428571 48.5510204082 c 0,14,15
 333.071428571 28.0833333333 333.071428571 28.0833333333 321 14 c 128,-1,16
 309 0 309 0 292 0 c 2,17,-1
 208 0 l 2,0,1
208 260 m 2,18,19
 190 260 190 260 178 274 c 128,-1,20
 166 288 166 288 166 306 c 0,21,22
 166 325 166 325 178 338 c 0,23,24
 186 346 186 346 195 350 c 1,25,-1
 195 350 l 1,26,27
 186 353 186 353 178 360 c 0,28,29
 166 374 166 374 166 392 c 128,-1,30
 166 410 166 410 178 424 c 0,31,32
 186 432 186 432 195 436 c 1,33,-1
 195 436 l 1,34,35
 186 439 186 439 178 447 c 0,36,37
 166 461 166 461 166 479 c 0,38,39
 166 498 166 498 178 512 c 0,40,41
 186 520 186 520 195 523 c 1,42,-1
 195 523 l 1,43,44
 186 526 186 526 178 534 c 0,45,46
 166 548 166 548 166 566 c 128,-1,47
 166 584 166 584 178 598 c 128,-1,48
 190 612 190 612 208 612 c 2,49,-1
 292 612 l 2,50,51
 309 612 309 612 321 598 c 0,52,53
 333.071428571 585 333.071428571 585 333.071428571 568.551020408 c 0,54,55
 333.071428571 547.077380952 333.071428571 547.077380952 321 534 c 0,56,57
 314 526 314 526 304 523 c 1,58,-1
 304 523 l 1,59,60
 313 520 313 520 321 512 c 0,61,62
 333.071428571 499 333.071428571 499 333.071428571 481.68877551 c 0,63,64
 333.071428571 460.077380952 333.071428571 460.077380952 321 447 c 0,65,66
 314 438 314 438 304 436 c 1,67,-1
 304 436 l 1,68,69
 313 432 313 432 321 424 c 0,70,71
 333.071428571 411 333.071428571 411 333.071428571 394.551020408 c 0,72,73
 333.071428571 373.077380952 333.071428571 373.077380952 321 360 c 0,74,75
 314 352 314 352 304 350 c 1,76,-1
 304 350 l 1,77,78
 313 347 313 347 321 338 c 0,79,80
 333.071428571 325 333.071428571 325 333.071428571 308.551020408 c 0,81,82
 333.071428571 287.077380952 333.071428571 287.077380952 321 274 c 0,83,84
 309 260 309 260 292 260 c 2,85,-1
 208 260 l 2,18,19
EndSplineSet
EndChar

StartChar: quotedbl
Encoding: 34 34 2
Width: 624
VWidth: 750
Flags: W
LayerCount: 2
Fore
SplineSet
41 347 m 2,0,1
 24 347 24 347 12 360 c 0,2,3
 0 374 0 374 0 392 c 128,-1,4
 0 410 0 410 12 424 c 0,5,6
 20 432 20 432 28 436 c 1,7,-1
 28 436 l 1,8,9
 19 439 19 439 12 447 c 0,10,11
 0 461 0 461 0 479 c 0,12,13
 0 498 0 498 12 512 c 0,14,15
 20 520 20 520 28 523 c 1,16,-1
 28 523 l 1,17,18
 19 526 19 526 12 534 c 0,19,20
 0 548 0 548 0 566 c 128,-1,21
 0 584 0 584 12 598 c 128,-1,22
 24 612 24 612 41 612 c 2,23,-1
 125 612 l 2,24,25
 142 612 142 612 154 598 c 128,-1,26
 166 584 166 584 166 566 c 0,27,28
 166 547 166 547 154 534 c 0,29,30
 146 526 146 526 138 523 c 1,31,-1
 138 523 l 1,32,33
 146 520 146 520 154 512 c 0,34,35
 166 498 166 498 166 479 c 128,-1,36
 166 460 166 460 154 447 c 0,37,38
 146 438 146 438 138 436 c 1,39,-1
 138 436 l 1,40,41
 146 432 146 432 154 424 c 0,42,43
 166 410 166 410 166 392 c 0,44,45
 166 373 166 373 154 360 c 0,46,47
 142.8 346.933333333 142.8 346.933333333 127.244444444 346.933333333 c 0,48,49
 126.133333333 346.933333333 126.133333333 346.933333333 125 347 c 2,50,-1
 41 347 l 2,0,1
375 347 m 2,51,52
 358 347 358 347 345 360 c 0,53,54
 333 374 333 374 333 392 c 128,-1,55
 333 410 333 410 345 424 c 0,56,57
 354 432 354 432 362 436 c 1,58,-1
 362 436 l 1,59,60
 353 439 353 439 345 447 c 0,61,62
 333 461 333 461 333 479 c 0,63,64
 333 498 333 498 345 512 c 0,65,66
 354 520 354 520 362 523 c 1,67,-1
 362 523 l 1,68,69
 353 526 353 526 345 534 c 0,70,71
 333 548 333 548 333 566 c 128,-1,72
 333 584 333 584 345 598 c 128,-1,73
 357 612 357 612 375 612 c 2,74,-1
 458 612 l 2,75,76
 476 612 476 612 488 598 c 128,-1,77
 500 584 500 584 500 566 c 0,78,79
 500 547 500 547 488 534 c 0,80,81
 480 526 480 526 471 523 c 1,82,-1
 471 523 l 1,83,84
 480 520 480 520 488 512 c 0,85,86
 500 498 500 498 500 479 c 128,-1,87
 500 460 500 460 488 447 c 0,88,89
 480 438 480 438 471 436 c 1,90,-1
 471 436 l 1,91,92
 480 432 480 432 488 424 c 0,93,94
 500 410 500 410 500 392 c 0,95,96
 500 373 500 373 488 360 c 128,-1,97
 475.866666667 346.933333333 475.866666667 346.933333333 460.248888889 346.933333333 c 0,98,99
 459.133333333 346.933333333 459.133333333 346.933333333 458 347 c 2,100,-1
 375 347 l 2,51,52
EndSplineSet
EndChar

StartChar: numbersign
Encoding: 35 35 3
Width: 957
VWidth: 750
Flags: W
LayerCount: 2
Fore
SplineSet
524 265 m 1,0,1
 518 268 518 268 512 274 c 0,2,3
 500 288 500 288 500 306 c 0,4,5
 500 325 500 325 512 338 c 0,6,7
 518 344 518 344 524 347 c 1,8,-1
 310 347 l 1,9,10
 316 344 316 344 321 338 c 0,11,12
 333.071428571 325 333.071428571 325 333.071428571 308.551020408 c 0,13,14
 333.071428571 287.077380952 333.071428571 287.077380952 321 274 c 0,15,16
 316 268 316 268 310 265 c 1,17,-1
 524 265 l 1,0,1
208 0 m 2,18,19
 190 0 190 0 178 14 c 256,20,21
 166 28 166 28 166 46 c 0,22,23
 166 65 166 65 178 78 c 0,24,25
 186 86 186 86 195 88 c 1,26,-1
 195 88 l 1,27,28
 186 91 186 91 178 100 c 0,29,30
 166 114 166 114 166 132 c 256,31,32
 166 151 166 151 178 164 c 0,33,34
 183 170 183 170 190 173 c 1,35,-1
 41 173 l 2,36,37
 24 173 24 173 12 187 c 128,-1,38
 0 201 0 201 0 219 c 0,39,40
 0 238 0 238 12 251 c 256,41,42
 24 265 24 265 41 265 c 2,43,-1
 190 265 l 1,44,45
 184 268 184 268 178 274 c 0,46,47
 166 288 166 288 166 306 c 0,48,49
 166 325 166 325 178 338 c 0,50,51
 183 344 183 344 190 347 c 1,52,-1
 41 347 l 2,53,54
 24 347 24 347 12 360 c 0,55,56
 0 374 0 374 0 392 c 128,-1,57
 0 410 0 410 12 424 c 128,-1,58
 24 438 24 438 41 438 c 2,59,-1
 190 438 l 1,60,61
 184 441 184 441 178 447 c 0,62,63
 166 461 166 461 166 479 c 0,64,65
 166 498 166 498 178 512 c 0,66,67
 186 520 186 520 195 523 c 1,68,-1
 195 523 l 1,69,70
 186 526 186 526 178 534 c 0,71,72
 166 548 166 548 166 566 c 128,-1,73
 166 584 166 584 178 598 c 128,-1,74
 190 612 190 612 208 612 c 2,75,-1
 292 612 l 2,76,77
 309 612 309 612 321 598 c 0,78,79
 333.071428571 585 333.071428571 585 333.071428571 568.551020408 c 0,80,81
 333.071428571 547.077380952 333.071428571 547.077380952 321 534 c 0,82,83
 314 526 314 526 304 523 c 1,84,-1
 304 523 l 1,85,86
 313 520 313 520 321 512 c 0,87,88
 333.071428571 499 333.071428571 499 333.071428571 481.68877551 c 0,89,90
 333.071428571 460.077380952 333.071428571 460.077380952 321 447 c 0,91,92
 316 441 316 441 310 438 c 1,93,-1
 524 438 l 1,94,95
 518 441 518 441 512 447 c 0,96,97
 500 461 500 461 500 479 c 0,98,99
 500 498 500 498 512 512 c 0,100,101
 520 520 520 520 529 523 c 1,102,-1
 529 523 l 1,103,104
 520 526 520 526 512 534 c 0,105,106
 500 548 500 548 500 566 c 128,-1,107
 500 584 500 584 512 598 c 0,108,109
 526 612 526 612 542 612 c 2,110,-1
 625 612 l 2,111,112
 642 612 642 612 655 598 c 0,113,114
 667 584 667 584 667 566 c 0,115,116
 667 547 667 547 655 534 c 0,117,118
 647 526 647 526 638 523 c 1,119,-1
 638 523 l 1,120,121
 647 520 647 520 655 512 c 0,122,123
 667 498 667 498 667 479 c 128,-1,124
 667 460 667 460 655 447 c 0,125,126
 650 441 650 441 643 438 c 1,127,-1
 791 438 l 2,128,129
 808 438 808 438 821 424 c 0,130,131
 833 410 833 410 833 392 c 0,132,133
 833 373 833 373 821 360 c 128,-1,134
 808.866666667 346.933333333 808.866666667 346.933333333 793.248888889 346.933333333 c 0,135,136
 792.133333333 346.933333333 792.133333333 346.933333333 791 347 c 2,137,-1
 643 347 l 1,138,139
 649 344 649 344 655 338 c 0,140,141
 667 324 667 324 667 306 c 0,142,143
 667 287 667 287 655 274 c 0,144,145
 650 268 650 268 643 265 c 1,146,-1
 791 265 l 2,147,148
 808 265 808 265 821 251 c 0,149,150
 833 237 833 237 833 219 c 0,151,152
 833 200 833 200 821 187 c 0,153,154
 808 173 808 173 791 173 c 2,155,-1
 643 173 l 1,156,157
 649 170 649 170 655 164 c 0,158,159
 667 150 667 150 667 132 c 256,160,161
 667 113 667 113 655 100 c 0,162,163
 647 92 647 92 638 88 c 1,164,-1
 638 88 l 1,165,166
 647 85 647 85 655 78 c 0,167,168
 667 64 667 64 667 46 c 128,-1,169
 667 28 667 28 655 14 c 0,170,171
 642 0 642 0 625 0 c 2,172,-1
 542 0 l 2,173,174
 525 0 525 0 512 14 c 0,175,176
 500 28 500 28 500 46 c 0,177,178
 500 65 500 65 512 78 c 0,179,180
 520 86 520 86 529 88 c 1,181,-1
 529 88 l 1,182,183
 520 91 520 91 512 100 c 0,184,185
 500 114 500 114 500 132 c 256,186,187
 500 151 500 151 512 164 c 0,188,189
 518 170 518 170 524 173 c 1,190,-1
 310 173 l 1,191,192
 316 170 316 170 321 164 c 0,193,194
 333.071428571 151 333.071428571 151 333.071428571 134.551020408 c 0,195,196
 333.071428571 113.077380952 333.071428571 113.077380952 321 100 c 0,197,198
 314 92 314 92 304 88 c 1,199,-1
 304 88 l 1,200,201
 313 85 313 85 321 78 c 0,202,203
 333.071428571 65 333.071428571 65 333.071428571 48.5510204082 c 0,204,205
 333.071428571 28.0833333333 333.071428571 28.0833333333 321 14 c 128,-1,206
 309 0 309 0 292 0 c 2,207,-1
 208 0 l 2,18,19
EndSplineSet
EndChar

StartChar: dollar
Encoding: 36 36 4
Width: 957
VWidth: 750
Flags: W
LayerCount: 2
Fore
SplineSet
690 178 m 1,0,1
 684 181 684 181 679 187 c 0,2,3
 667 201 667 201 667 219 c 0,4,5
 667 238 667 238 679 251 c 0,6,7
 684 257 684 257 690 260 c 1,8,-1
 476 260 l 1,9,10
 482 257 482 257 488 251 c 0,11,12
 500 237 500 237 500 219 c 0,13,14
 500 200 500 200 488 187 c 0,15,16
 483 181 483 181 476 178 c 1,17,-1
 690 178 l 1,0,1
357 352 m 1,18,19
 351 355 351 355 345 360 c 0,20,21
 333 374 333 374 333 392 c 128,-1,22
 333 410 333 410 345 424 c 0,23,24
 350 430 350 430 357 434 c 1,25,-1
 142 434 l 1,26,27
 148 430 148 430 154 424 c 0,28,29
 166 410 166 410 166 392 c 0,30,31
 166 373 166 373 154 360 c 0,32,33
 148 354 148 354 142 352 c 1,34,-1
 357 352 l 1,18,19
375 0 m 2,35,36
 358 0 358 0 345 14 c 256,37,38
 333 28 333 28 333 46 c 0,39,40
 333 65 333 65 345 78 c 0,41,42
 350 84 350 84 357 87 c 1,43,-1
 125 87 l 2,44,45
 108 87 108 87 95 100 c 0,46,47
 83 114 83 114 83 132 c 256,48,49
 83 151 83 151 95 164 c 0,50,51
 108 178 108 178 125 178 c 2,52,-1
 357 178 l 1,53,54
 351 181 351 181 345 187 c 0,55,56
 333 201 333 201 333 219 c 0,57,58
 333 238 333 238 345 251 c 0,59,60
 350 257 350 257 357 260 c 1,61,-1
 125 260 l 2,62,63
 108 260 108 260 95 274 c 0,64,65
 83 288 83 288 83 306 c 0,66,67
 83 325 83 325 95 338 c 0,68,69
 100 344 100 344 106 347 c 1,70,-1
 41 347 l 2,71,72
 24 347 24 347 12 360 c 0,73,74
 0 374 0 374 0 392 c 128,-1,75
 0 410 0 410 12 424 c 128,-1,76
 24 438 24 438 41 438 c 2,77,-1
 106 438 l 1,78,79
 100 441 100 441 95 447 c 0,80,81
 83 461 83 461 83 479 c 0,82,83
 83 498 83 498 95 512 c 0,84,85
 107.133333333 525.066666667 107.133333333 525.066666667 122.751111111 525.066666667 c 0,86,87
 123.866666667 525.066666667 123.866666667 525.066666667 125 525 c 2,88,-1
 357 525 l 1,89,90
 351 528 351 528 345 534 c 0,91,92
 333 548 333 548 333 566 c 128,-1,93
 333 584 333 584 345 598 c 128,-1,94
 357 612 357 612 375 612 c 2,95,-1
 458 612 l 2,96,97
 476 612 476 612 488 598 c 128,-1,98
 500 584 500 584 500 566 c 0,99,100
 500 547 500 547 488 534 c 0,101,102
 483 528 483 528 476 525 c 1,103,-1
 708 525 l 2,104,105
 709.133333333 525.066666667 709.133333333 525.066666667 710.244444444 525.066666667 c 0,106,107
 725.8 525.066666667 725.8 525.066666667 737 512 c 0,108,109
 750 498 750 498 750 479 c 128,-1,110
 750 460 750 460 737 447 c 0,111,112
 725.8 433.933333333 725.8 433.933333333 710.244444444 433.933333333 c 0,113,114
 709.133333333 433.933333333 709.133333333 433.933333333 708 434 c 2,115,-1
 476 434 l 1,116,117
 482 430 482 430 488 424 c 0,118,119
 500 410 500 410 500 392 c 0,120,121
 500 373 500 373 488 360 c 0,122,123
 483 354 483 354 476 352 c 1,124,-1
 708 352 l 2,125,126
 725 352 725 352 737 338 c 0,127,128
 750 324 750 324 750 306 c 0,129,130
 750 287 750 287 737 274 c 0,131,132
 732 268 732 268 726 265 c 1,133,-1
 791 265 l 2,134,135
 808 265 808 265 821 251 c 0,136,137
 833 237 833 237 833 219 c 0,138,139
 833 200 833 200 821 187 c 0,140,141
 808 173 808 173 791 173 c 2,142,-1
 726 173 l 1,143,144
 732 170 732 170 737 164 c 0,145,146
 750 150 750 150 750 132 c 256,147,148
 750 113 750 113 737 100 c 0,149,150
 725.8 86.9333333333 725.8 86.9333333333 710.244444444 86.9333333333 c 0,151,152
 709.133333333 86.9333333333 709.133333333 86.9333333333 708 87 c 2,153,-1
 476 87 l 1,154,155
 482 84 482 84 488 78 c 0,156,157
 500 64 500 64 500 46 c 128,-1,158
 500 28 500 28 488 14 c 0,159,160
 475 0 475 0 458 0 c 2,161,-1
 375 0 l 2,35,36
EndSplineSet
EndChar

StartChar: percent
Encoding: 37 37 5
Width: 1207
VWidth: 750
Flags: W
LayerCount: 2
Fore
SplineSet
940 91 m 1,0,1
 934 94 934 94 928 100 c 0,2,3
 916 114 916 114 916 132 c 256,4,5
 916 151 916 151 928 164 c 0,6,7
 933 170 933 170 940 173 c 1,8,-1
 726 173 l 1,9,10
 732 170 732 170 737 164 c 0,11,12
 750 150 750 150 750 132 c 256,13,14
 750 113 750 113 737 100 c 0,15,16
 732 94 732 94 726 91 c 1,17,-1
 940 91 l 1,0,1
708 0 m 2,18,19
 691 0 691 0 679 14 c 128,-1,20
 667 28 667 28 667 46 c 0,21,22
 667 65 667 65 679 78 c 0,23,24
 684 84 684 84 690 87 c 1,25,-1
 625 87 l 2,26,27
 608 87 608 87 596 100 c 0,28,29
 583 114 583 114 583 132 c 256,30,31
 584 151 584 151 596 164 c 0,32,33
 608 178 608 178 625 178 c 2,34,-1
 690 178 l 1,35,36
 684 181 684 181 679 187 c 0,37,38
 667 201 667 201 667 219 c 0,39,40
 667 238 667 238 679 251 c 0,41,42
 692 265 692 265 708 265 c 2,43,-1
 958 265 l 2,44,45
 975 265 975 265 988 251 c 0,46,47
 1000 237 1000 237 1000 219 c 0,48,49
 1000 200 1000 200 988 187 c 0,50,51
 982 181 982 181 976 178 c 1,52,-1
 1042 178 l 2,53,54
 1059 178 1059 178 1071 164 c 0,55,56
 1083.07142857 151 1083.07142857 151 1083.07142857 134.551020408 c 0,57,58
 1083.07142857 113.077380952 1083.07142857 113.077380952 1071 100 c 0,59,60
 1059.8 86.9333333333 1059.8 86.9333333333 1044.24444444 86.9333333333 c 0,61,62
 1043.13333333 86.9333333333 1043.13333333 86.9333333333 1042 87 c 2,63,-1
 976 87 l 1,64,65
 982 84 982 84 988 78 c 0,66,67
 1000 64 1000 64 1000 46 c 128,-1,68
 1000 28 1000 28 988 14 c 0,69,70
 975 0 975 0 958 0 c 2,71,-1
 708 0 l 2,18,19
274 438 m 1,72,73
 268 441 268 441 262 447 c 0,74,75
 250 461 250 461 250 479 c 0,76,77
 250 498 250 498 262 512 c 0,78,79
 267 518 267 518 274 520 c 1,80,-1
 60 520 l 1,81,82
 66 518 66 518 71 512 c 0,83,84
 83 498 83 498 83 479 c 128,-1,85
 83 460 83 460 71 447 c 0,86,87
 66 441 66 441 60 438 c 1,88,-1
 274 438 l 1,72,73
292 87 m 2,89,90
 275 87 275 87 262 100 c 0,91,92
 250 114 250 114 250 132 c 256,93,94
 250 151 250 151 262 164 c 0,95,96
 275 178 275 178 292 178 c 2,97,-1
 357 178 l 1,98,99
 351 181 351 181 345 187 c 0,100,101
 333 201 333 201 333 219 c 0,102,103
 333 238 333 238 345 251 c 256,104,105
 357 265 357 265 375 265 c 2,106,-1
 440 265 l 1,107,108
 434 268 434 268 429 274 c 0,109,110
 416 288 416 288 416 306 c 0,111,112
 416 325 416 325 429 338 c 0,113,114
 441 352 441 352 458 352 c 2,115,-1
 524 352 l 1,116,117
 518 355 518 355 512 360 c 0,118,119
 500 374 500 374 500 392 c 128,-1,120
 500 410 500 410 512 424 c 0,121,122
 526 438 526 438 542 438 c 2,123,-1
 607 438 l 1,124,125
 602 441 602 441 596 447 c 0,126,127
 583 461 583 461 583 479 c 0,128,129
 584 498 584 498 596 512 c 0,130,131
 607.2 525.066666667 607.2 525.066666667 622.755555556 525.066666667 c 0,132,133
 623.866666667 525.066666667 623.866666667 525.066666667 625 525 c 2,134,-1
 708 525 l 2,135,136
 709.133333333 525.066666667 709.133333333 525.066666667 710.244444444 525.066666667 c 0,137,138
 725.8 525.066666667 725.8 525.066666667 737 512 c 0,139,140
 750 498 750 498 750 479 c 128,-1,141
 750 460 750 460 737 447 c 0,142,143
 725.8 433.933333333 725.8 433.933333333 710.244444444 433.933333333 c 0,144,145
 709.133333333 433.933333333 709.133333333 433.933333333 708 434 c 2,146,-1
 643 434 l 1,147,148
 649 430 649 430 655 424 c 0,149,150
 667 410 667 410 667 392 c 0,151,152
 667 373 667 373 655 360 c 128,-1,153
 642.866666667 346.933333333 642.866666667 346.933333333 627.248888889 346.933333333 c 0,154,155
 626.133333333 346.933333333 626.133333333 346.933333333 625 347 c 2,156,-1
 560 347 l 1,157,158
 566 344 566 344 571 338 c 0,159,160
 583 324 583 324 583 306 c 0,161,162
 583 287 583 287 571 274 c 0,163,164
 560 260 560 260 542 260 c 2,165,-1
 476 260 l 1,166,167
 482 257 482 257 488 251 c 0,168,169
 500 237 500 237 500 219 c 0,170,171
 500 200 500 200 488 187 c 0,172,173
 475 173 475 173 458 173 c 2,174,-1
 393 173 l 1,175,176
 399 170 399 170 404 164 c 0,177,178
 416 150 416 150 416 132 c 256,179,180
 416 113 416 113 404 100 c 256,181,182
 392.8 86.9333333333 392.8 86.9333333333 377.244444444 86.9333333333 c 0,183,184
 376.133333333 86.9333333333 376.133333333 86.9333333333 375 87 c 2,185,-1
 292 87 l 2,89,90
41 347 m 2,186,187
 24 347 24 347 12 360 c 0,188,189
 0 374 0 374 0 392 c 128,-1,190
 0 410 0 410 12 424 c 0,191,192
 17 430 17 430 23 434 c 1,193,-1
 -41 434 l 2,194,195
 -58 434 -58 434 -71 447 c 0,196,197
 -83 461 -83 461 -83 479 c 0,198,199
 -83 498 -83 498 -71 512 c 0,200,201
 -58.8666666667 525.066666667 -58.8666666667 525.066666667 -43.2488888889 525.066666667 c 0,202,203
 -42.1333333333 525.066666667 -42.1333333333 525.066666667 -41 525 c 2,204,-1
 23 525 l 1,205,206
 17 528 17 528 12 534 c 0,207,208
 0 548 0 548 0 566 c 128,-1,209
 0 584 0 584 12 598 c 128,-1,210
 24 612 24 612 41 612 c 2,211,-1
 292 612 l 2,212,213
 309 612 309 612 321 598 c 0,214,215
 333.071428571 585 333.071428571 585 333.071428571 568.551020408 c 0,216,217
 333.071428571 547.077380952 333.071428571 547.077380952 321 534 c 0,218,219
 316 528 316 528 310 525 c 1,220,-1
 375 525 l 2,221,222
 376.133333333 525.066666667 376.133333333 525.066666667 377.244444444 525.066666667 c 0,223,224
 392.8 525.066666667 392.8 525.066666667 404 512 c 0,225,226
 416 498 416 498 416 479 c 128,-1,227
 416 460 416 460 404 447 c 0,228,229
 392.8 433.933333333 392.8 433.933333333 377.244444444 433.933333333 c 0,230,231
 376.133333333 433.933333333 376.133333333 433.933333333 375 434 c 2,232,-1
 310 434 l 1,233,234
 316 430 316 430 321 424 c 0,235,236
 333.071428571 411 333.071428571 411 333.071428571 394.551020408 c 0,237,238
 333.071428571 373.077380952 333.071428571 373.077380952 321 360 c 0,239,240
 309.8 346.933333333 309.8 346.933333333 294.244444444 346.933333333 c 0,241,242
 293.133333333 346.933333333 293.133333333 346.933333333 292 347 c 2,243,-1
 41 347 l 2,186,187
EndSplineSet
EndChar

StartChar: ampersand
Encoding: 38 38 6
Width: 1125
VWidth: 750
Flags: W
LayerCount: 2
Fore
SplineSet
791 0 m 2,0,1
 774 0 774 0 762 14 c 256,2,3
 750 28 750 28 750 46 c 0,4,5
 750 65 750 65 762 78 c 0,6,7
 773.2 91.0666666667 773.2 91.0666666667 788.755555556 91.0666666667 c 0,8,9
 789.866666667 91.0666666667 789.866666667 91.0666666667 791 91 c 2,10,-1
 875 91 l 2,11,12
 892 91 892 91 904 78 c 0,13,14
 916 64 916 64 916 46 c 128,-1,15
 916 28 916 28 904 14 c 128,-1,16
 892 0 892 0 875 0 c 2,17,-1
 791 0 l 2,0,1
625 87 m 2,18,19
 608 87 608 87 596 100 c 0,20,21
 583 114 583 114 583 132 c 256,22,23
 584 151 584 151 596 164 c 0,24,25
 608 178 608 178 625 178 c 2,26,-1
 708 178 l 2,27,28
 725 178 725 178 737 164 c 0,29,30
 750 150 750 150 750 132 c 256,31,32
 750 113 750 113 737 100 c 0,33,34
 725.8 86.9333333333 725.8 86.9333333333 710.244444444 86.9333333333 c 0,35,36
 709.133333333 86.9333333333 709.133333333 86.9333333333 708 87 c 2,37,-1
 625 87 l 2,18,19
125 0 m 2,38,39
 108 0 108 0 95 14 c 0,40,41
 83 28 83 28 83 46 c 0,42,43
 83 65 83 65 95 78 c 0,44,45
 100 84 100 84 106 87 c 1,46,-1
 41 87 l 2,47,48
 24 87 24 87 12 100 c 256,49,50
 0 114 0 114 0 132 c 256,51,52
 0 151 0 151 12 164 c 256,53,54
 24 178 24 178 41 178 c 2,55,-1
 106 178 l 1,56,57
 100 181 100 181 95 187 c 0,58,59
 83 201 83 201 83 219 c 0,60,61
 83 238 83 238 95 251 c 0,62,63
 108 265 108 265 125 265 c 2,64,-1
 208 265 l 2,65,66
 225 265 225 265 238 251 c 0,67,68
 250 237 250 237 250 219 c 0,69,70
 250 200 250 200 238 187 c 0,71,72
 225 173 225 173 208 173 c 2,73,-1
 142 173 l 1,74,75
 148 170 148 170 154 164 c 0,76,77
 166 150 166 150 166 132 c 256,78,79
 166 113 166 113 154 100 c 0,80,81
 148 94 148 94 142 91 c 1,82,-1
 542 91 l 2,83,84
 559 91 559 91 571 78 c 0,85,86
 583 64 583 64 583 46 c 128,-1,87
 583 28 583 28 571 14 c 256,88,89
 560 0 560 0 542 0 c 2,90,-1
 125 0 l 2,38,39
458 173 m 2,91,92
 441 173 441 173 429 187 c 0,93,94
 416 201 416 201 416 219 c 0,95,96
 416 238 416 238 429 251 c 0,97,98
 441 265 441 265 458 265 c 2,99,-1
 542 265 l 2,100,101
 559 265 559 265 571 251 c 256,102,103
 583 237 583 237 583 219 c 0,104,105
 583 200 583 200 571 187 c 0,106,107
 560 173 560 173 542 173 c 2,108,-1
 458 173 l 2,91,92
791 173 m 2,109,110
 774 173 774 173 762 187 c 128,-1,111
 750 201 750 201 750 219 c 0,112,113
 750 238 750 238 762 251 c 256,114,115
 774 265 774 265 791 265 c 2,116,-1
 856 265 l 1,117,118
 850 268 850 268 845 274 c 0,119,120
 833 288 833 288 833 306 c 0,121,122
 833 325 833 325 845 338 c 0,123,124
 858 352 858 352 875 352 c 2,125,-1
 958 352 l 2,126,127
 975 352 975 352 988 338 c 0,128,129
 1000 324 1000 324 1000 306 c 0,130,131
 1000 287 1000 287 988 274 c 0,132,133
 975 260 975 260 958 260 c 2,134,-1
 892 260 l 1,135,136
 898 257 898 257 904 251 c 0,137,138
 916 237 916 237 916 219 c 0,139,140
 916 200 916 200 904 187 c 0,141,142
 892 173 892 173 875 173 c 2,143,-1
 791 173 l 2,109,110
292 260 m 2,144,145
 275 260 275 260 262 274 c 0,146,147
 250 288 250 288 250 306 c 0,148,149
 250 325 250 325 262 338 c 0,150,151
 267 344 267 344 274 347 c 1,152,-1
 208 347 l 2,153,154
 190 347 190 347 178 360 c 0,155,156
 166 374 166 374 166 392 c 128,-1,157
 166 410 166 410 178 424 c 0,158,159
 183 430 183 430 190 434 c 1,160,-1
 125 434 l 2,161,162
 108 434 108 434 95 447 c 0,163,164
 83 461 83 461 83 479 c 0,165,166
 83 498 83 498 95 512 c 0,167,168
 107.133333333 525.066666667 107.133333333 525.066666667 122.751111111 525.066666667 c 0,169,170
 123.866666667 525.066666667 123.866666667 525.066666667 125 525 c 2,171,-1
 190 525 l 1,172,173
 184 528 184 528 178 534 c 0,174,175
 166 548 166 548 166 566 c 128,-1,176
 166 584 166 584 178 598 c 128,-1,177
 190 612 190 612 208 612 c 2,178,-1
 625 612 l 2,179,180
 642 612 642 612 655 598 c 0,181,182
 667 584 667 584 667 566 c 0,183,184
 667 547 667 547 655 534 c 0,185,186
 650 528 650 528 643 525 c 1,187,-1
 708 525 l 2,188,189
 709.133333333 525.066666667 709.133333333 525.066666667 710.244444444 525.066666667 c 0,190,191
 725.8 525.066666667 725.8 525.066666667 737 512 c 0,192,193
 750 498 750 498 750 479 c 128,-1,194
 750 460 750 460 737 447 c 0,195,196
 725.8 433.933333333 725.8 433.933333333 710.244444444 433.933333333 c 0,197,198
 709.133333333 433.933333333 709.133333333 433.933333333 708 434 c 2,199,-1
 625 434 l 2,200,201
 608 434 608 434 596 447 c 0,202,203
 583 461 583 461 583 479 c 0,204,205
 584 498 584 498 596 512 c 0,206,207
 601 518 601 518 607 520 c 1,208,-1
 226 520 l 1,209,210
 232 518 232 518 238 512 c 0,211,212
 250 498 250 498 250 479 c 128,-1,213
 250 460 250 460 238 447 c 0,214,215
 232 441 232 441 226 438 c 1,216,-1
 292 438 l 2,217,218
 309 438 309 438 321 424 c 0,219,220
 333.071428571 411 333.071428571 411 333.071428571 394.551020408 c 0,221,222
 333.071428571 373.077380952 333.071428571 373.077380952 321 360 c 0,223,224
 316 354 316 354 310 352 c 1,225,-1
 375 352 l 2,226,227
 392 352 392 352 404 338 c 128,-1,228
 416 324 416 324 416 306 c 0,229,230
 416 287 416 287 404 274 c 0,231,232
 392 260 392 260 375 260 c 2,233,-1
 292 260 l 2,144,145
EndSplineSet
EndChar

StartChar: quotesingle
Encoding: 39 39 7
Width: 457
VWidth: 750
Flags: W
LayerCount: 2
Fore
SplineSet
41 347 m 2,0,1
 24 347 24 347 12 360 c 0,2,3
 0 374 0 374 0 392 c 128,-1,4
 0 410 0 410 12 424 c 128,-1,5
 24 438 24 438 41 438 c 2,6,-1
 106 438 l 1,7,8
 100 441 100 441 95 447 c 0,9,10
 83 461 83 461 83 479 c 0,11,12
 83 498 83 498 95 512 c 0,13,14
 107.133333333 525.066666667 107.133333333 525.066666667 122.751111111 525.066666667 c 0,15,16
 123.866666667 525.066666667 123.866666667 525.066666667 125 525 c 2,17,-1
 190 525 l 1,18,19
 184 528 184 528 178 534 c 0,20,21
 166 548 166 548 166 566 c 128,-1,22
 166 584 166 584 178 598 c 128,-1,23
 190 612 190 612 208 612 c 2,24,-1
 292 612 l 2,25,26
 309 612 309 612 321 598 c 0,27,28
 333.071428571 585 333.071428571 585 333.071428571 568.551020408 c 0,29,30
 333.071428571 547.077380952 333.071428571 547.077380952 321 534 c 0,31,32
 309 520 309 520 292 520 c 2,33,-1
 226 520 l 1,34,35
 232 518 232 518 238 512 c 0,36,37
 250 498 250 498 250 479 c 128,-1,38
 250 460 250 460 238 447 c 128,-1,39
 225.866666667 433.933333333 225.866666667 433.933333333 210.248888889 433.933333333 c 0,40,41
 209.133333333 433.933333333 209.133333333 433.933333333 208 434 c 2,42,-1
 142 434 l 1,43,44
 148 430 148 430 154 424 c 0,45,46
 166 410 166 410 166 392 c 0,47,48
 166 373 166 373 154 360 c 0,49,50
 142.8 346.933333333 142.8 346.933333333 127.244444444 346.933333333 c 0,51,52
 126.133333333 346.933333333 126.133333333 346.933333333 125 347 c 2,53,-1
 41 347 l 2,0,1
EndSplineSet
EndChar

StartChar: parenleft
Encoding: 40 40 8
Width: 457
VWidth: 750
Flags: W
LayerCount: 2
Fore
SplineSet
208 0 m 2,0,1
 190 0 190 0 178 14 c 256,2,3
 166 28 166 28 166 46 c 0,4,5
 166 65 166 65 178 78 c 0,6,7
 183 84 183 84 190 87 c 1,8,-1
 125 87 l 2,9,10
 108 87 108 87 95 100 c 0,11,12
 83 114 83 114 83 132 c 256,13,14
 83 151 83 151 95 164 c 0,15,16
 100 170 100 170 106 173 c 1,17,-1
 41 173 l 2,18,19
 24 173 24 173 12 187 c 128,-1,20
 0 201 0 201 0 219 c 0,21,22
 0 238 0 238 12 251 c 0,23,24
 20 258 20 258 28 262 c 1,25,-1
 28 262 l 1,26,27
 19 265 19 265 12 274 c 0,28,29
 0 288 0 288 0 306 c 0,30,31
 0 325 0 325 12 338 c 0,32,33
 20 346 20 346 28 350 c 1,34,-1
 28 350 l 1,35,36
 19 353 19 353 12 360 c 0,37,38
 0 374 0 374 0 392 c 128,-1,39
 0 410 0 410 12 424 c 128,-1,40
 24 438 24 438 41 438 c 2,41,-1
 106 438 l 1,42,43
 100 441 100 441 95 447 c 0,44,45
 83 461 83 461 83 479 c 0,46,47
 83 498 83 498 95 512 c 0,48,49
 107.133333333 525.066666667 107.133333333 525.066666667 122.751111111 525.066666667 c 0,50,51
 123.866666667 525.066666667 123.866666667 525.066666667 125 525 c 2,52,-1
 190 525 l 1,53,54
 184 528 184 528 178 534 c 0,55,56
 166 548 166 548 166 566 c 128,-1,57
 166 584 166 584 178 598 c 128,-1,58
 190 612 190 612 208 612 c 2,59,-1
 292 612 l 2,60,61
 309 612 309 612 321 598 c 0,62,63
 333.071428571 585 333.071428571 585 333.071428571 568.551020408 c 0,64,65
 333.071428571 547.077380952 333.071428571 547.077380952 321 534 c 0,66,67
 309 520 309 520 292 520 c 2,68,-1
 226 520 l 1,69,70
 232 518 232 518 238 512 c 0,71,72
 250 498 250 498 250 479 c 128,-1,73
 250 460 250 460 238 447 c 128,-1,74
 225.866666667 433.933333333 225.866666667 433.933333333 210.248888889 433.933333333 c 0,75,76
 209.133333333 433.933333333 209.133333333 433.933333333 208 434 c 2,77,-1
 142 434 l 1,78,79
 148 430 148 430 154 424 c 0,80,81
 166 410 166 410 166 392 c 0,82,83
 166 373 166 373 154 360 c 0,84,85
 146 352 146 352 138 350 c 1,86,-1
 138 350 l 1,87,88
 146 347 146 347 154 338 c 0,89,90
 166 324 166 324 166 306 c 0,91,92
 166 287 166 287 154 274 c 0,93,94
 146 266 146 266 138 262 c 1,95,-1
 138 262 l 1,96,97
 146 259 146 259 154 251 c 0,98,99
 166 237 166 237 166 219 c 0,100,101
 166 200 166 200 154 187 c 0,102,103
 148 181 148 181 142 178 c 1,104,-1
 208 178 l 2,105,106
 225 178 225 178 238 164 c 0,107,108
 250 150 250 150 250 132 c 256,109,110
 250 113 250 113 238 100 c 0,111,112
 232 94 232 94 226 91 c 1,113,-1
 292 91 l 2,114,115
 309 91 309 91 321 78 c 128,-1,116
 333.071428571 65 333.071428571 65 333.071428571 48.5510204082 c 0,117,118
 333.071428571 28.0833333333 333.071428571 28.0833333333 321 14 c 128,-1,119
 309 0 309 0 292 0 c 2,120,-1
 208 0 l 2,0,1
EndSplineSet
EndChar

StartChar: parenright
Encoding: 41 41 9
Width: 457
VWidth: 750
Flags: W
LayerCount: 2
Fore
SplineSet
41 0 m 2,0,1
 24 0 24 0 12 14 c 256,2,3
 0 28 0 28 0 46 c 0,4,5
 0 65 0 65 12 78 c 0,6,7
 23.2 91.0666666667 23.2 91.0666666667 38.7555555556 91.0666666667 c 0,8,9
 39.8666666667 91.0666666667 39.8666666667 91.0666666667 41 91 c 2,10,-1
 106 91 l 1,11,12
 100 94 100 94 95 100 c 0,13,14
 83 114 83 114 83 132 c 256,15,16
 83 151 83 151 95 164 c 0,17,18
 108 178 108 178 125 178 c 2,19,-1
 190 178 l 1,20,21
 184 181 184 181 178 187 c 0,22,23
 166 201 166 201 166 219 c 0,24,25
 166 238 166 238 178 251 c 0,26,27
 186 258 186 258 195 262 c 1,28,-1
 195 262 l 1,29,30
 186 265 186 265 178 274 c 0,31,32
 166 288 166 288 166 306 c 0,33,34
 166 325 166 325 178 338 c 0,35,36
 186 346 186 346 195 350 c 1,37,-1
 195 350 l 1,38,39
 186 353 186 353 178 360 c 0,40,41
 166 374 166 374 166 392 c 128,-1,42
 166 410 166 410 178 424 c 0,43,44
 183 430 183 430 190 434 c 1,45,-1
 125 434 l 2,46,47
 108 434 108 434 95 447 c 0,48,49
 83 461 83 461 83 479 c 0,50,51
 83 498 83 498 95 512 c 0,52,53
 100 518 100 518 106 520 c 1,54,-1
 41 520 l 2,55,56
 24 520 24 520 12 534 c 128,-1,57
 0 548 0 548 0 566 c 128,-1,58
 0 584 0 584 12 598 c 128,-1,59
 24 612 24 612 41 612 c 2,60,-1
 125 612 l 2,61,62
 142 612 142 612 154 598 c 128,-1,63
 166 584 166 584 166 566 c 0,64,65
 166 547 166 547 154 534 c 0,66,67
 148 528 148 528 142 525 c 1,68,-1
 208 525 l 2,69,70
 209.133333333 525.066666667 209.133333333 525.066666667 210.248888889 525.066666667 c 0,71,72
 225.866666667 525.066666667 225.866666667 525.066666667 238 512 c 0,73,74
 250 498 250 498 250 479 c 128,-1,75
 250 460 250 460 238 447 c 0,76,77
 232 441 232 441 226 438 c 1,78,-1
 292 438 l 2,79,80
 309 438 309 438 321 424 c 0,81,82
 333.071428571 411 333.071428571 411 333.071428571 394.551020408 c 0,83,84
 333.071428571 373.077380952 333.071428571 373.077380952 321 360 c 0,85,86
 314 352 314 352 304 350 c 1,87,-1
 304 350 l 1,88,89
 313 347 313 347 321 338 c 0,90,91
 333.071428571 325 333.071428571 325 333.071428571 308.551020408 c 0,92,93
 333.071428571 287.077380952 333.071428571 287.077380952 321 274 c 0,94,95
 314 266 314 266 304 262 c 1,96,-1
 304 262 l 1,97,98
 313 259 313 259 321 251 c 0,99,100
 333.071428571 238 333.071428571 238 333.071428571 221.551020408 c 0,101,102
 333.071428571 200.077380952 333.071428571 200.077380952 321 187 c 0,103,104
 309 173 309 173 292 173 c 2,105,-1
 226 173 l 1,106,107
 232 170 232 170 238 164 c 0,108,109
 250 150 250 150 250 132 c 256,110,111
 250 113 250 113 238 100 c 128,-1,112
 225.866666667 86.9333333333 225.866666667 86.9333333333 210.248888889 86.9333333333 c 0,113,114
 209.133333333 86.9333333333 209.133333333 86.9333333333 208 87 c 2,115,-1
 142 87 l 1,116,117
 148 84 148 84 154 78 c 0,118,119
 166 64 166 64 166 46 c 128,-1,120
 166 28 166 28 154 14 c 128,-1,121
 142 0 142 0 125 0 c 2,122,-1
 41 0 l 2,0,1
EndSplineSet
EndChar

StartChar: asterisk
Encoding: 42 42 10
Width: 957
VWidth: 750
Flags: W
LayerCount: 2
Fore
SplineSet
524 265 m 1,0,1
 518 268 518 268 512 274 c 0,2,3
 500 288 500 288 500 306 c 0,4,5
 500 325 500 325 512 338 c 0,6,7
 518 344 518 344 524 347 c 1,8,-1
 310 347 l 1,9,10
 316 344 316 344 321 338 c 0,11,12
 333.071428571 325 333.071428571 325 333.071428571 308.551020408 c 0,13,14
 333.071428571 287.077380952 333.071428571 287.077380952 321 274 c 0,15,16
 316 268 316 268 310 265 c 1,17,-1
 524 265 l 1,0,1
208 87 m 2,18,19
 190 87 190 87 178 100 c 256,20,21
 166 114 166 114 166 132 c 256,22,23
 166 151 166 151 178 164 c 256,24,25
 190 178 190 178 208 178 c 2,26,-1
 274 178 l 1,27,28
 268 181 268 181 262 187 c 0,29,30
 250 201 250 201 250 219 c 0,31,32
 250 238 250 238 262 251 c 0,33,34
 267 257 267 257 274 260 c 1,35,-1
 41 260 l 2,36,37
 24 260 24 260 12 274 c 128,-1,38
 0 288 0 288 0 306 c 0,39,40
 0 325 0 325 12 338 c 0,41,42
 24 352 24 352 41 352 c 2,43,-1
 274 352 l 1,44,45
 268 355 268 355 262 360 c 0,46,47
 250 374 250 374 250 392 c 128,-1,48
 250 410 250 410 262 424 c 0,49,50
 267 430 267 430 274 434 c 1,51,-1
 208 434 l 2,52,53
 190 434 190 434 178 447 c 0,54,55
 166 461 166 461 166 479 c 0,56,57
 166 498 166 498 178 512 c 0,58,59
 189.2 525.066666667 189.2 525.066666667 205.626666667 525.066666667 c 0,60,61
 206.8 525.066666667 206.8 525.066666667 208 525 c 2,62,-1
 292 525 l 2,63,64
 293.133333333 525.066666667 293.133333333 525.066666667 294.244444444 525.066666667 c 0,65,66
 309.8 525.066666667 309.8 525.066666667 321 512 c 0,67,68
 333.071428571 499 333.071428571 499 333.071428571 481.68877551 c 0,69,70
 333.071428571 460.077380952 333.071428571 460.077380952 321 447 c 0,71,72
 316 441 316 441 310 438 c 1,73,-1
 524 438 l 1,74,75
 518 441 518 441 512 447 c 0,76,77
 500 461 500 461 500 479 c 0,78,79
 500 498 500 498 512 512 c 0,80,81
 525.066666667 525.066666667 525.066666667 525.066666667 539.875555556 525.066666667 c 0,82,83
 540.933333333 525.066666667 540.933333333 525.066666667 542 525 c 2,84,-1
 625 525 l 2,85,86
 626.133333333 525.066666667 626.133333333 525.066666667 627.248888889 525.066666667 c 0,87,88
 642.866666667 525.066666667 642.866666667 525.066666667 655 512 c 0,89,90
 667 498 667 498 667 479 c 128,-1,91
 667 460 667 460 655 447 c 128,-1,92
 642.866666667 433.933333333 642.866666667 433.933333333 627.248888889 433.933333333 c 0,93,94
 626.133333333 433.933333333 626.133333333 433.933333333 625 434 c 2,95,-1
 560 434 l 1,96,97
 566 430 566 430 571 424 c 0,98,99
 583 410 583 410 583 392 c 0,100,101
 583 373 583 373 571 360 c 0,102,103
 566 354 566 354 560 352 c 1,104,-1
 791 352 l 2,105,106
 808 352 808 352 821 338 c 0,107,108
 833 324 833 324 833 306 c 0,109,110
 833 287 833 287 821 274 c 0,111,112
 808 260 808 260 791 260 c 2,113,-1
 560 260 l 1,114,115
 566 257 566 257 571 251 c 0,116,117
 583 237 583 237 583 219 c 0,118,119
 583 200 583 200 571 187 c 0,120,121
 566 181 566 181 560 178 c 1,122,-1
 625 178 l 2,123,124
 642 178 642 178 655 164 c 0,125,126
 667 150 667 150 667 132 c 256,127,128
 667 113 667 113 655 100 c 128,-1,129
 642.866666667 86.9333333333 642.866666667 86.9333333333 627.248888889 86.9333333333 c 0,130,131
 626.133333333 86.9333333333 626.133333333 86.9333333333 625 87 c 2,132,-1
 542 87 l 2,133,134
 525 87 525 87 512 100 c 0,135,136
 500 114 500 114 500 132 c 256,137,138
 500 151 500 151 512 164 c 0,139,140
 518 170 518 170 524 173 c 1,141,-1
 310 173 l 1,142,143
 316 170 316 170 321 164 c 0,144,145
 333.071428571 151 333.071428571 151 333.071428571 134.551020408 c 0,146,147
 333.071428571 113.077380952 333.071428571 113.077380952 321 100 c 0,148,149
 309.8 86.9333333333 309.8 86.9333333333 294.244444444 86.9333333333 c 0,150,151
 293.133333333 86.9333333333 293.133333333 86.9333333333 292 87 c 2,152,-1
 208 87 l 2,18,19
EndSplineSet
EndChar

StartChar: plus
Encoding: 43 43 11
Width: 957
VWidth: 750
Flags: W
LayerCount: 2
Fore
SplineSet
375 87 m 2,0,1
 358 87 358 87 345 100 c 256,2,3
 333 114 333 114 333 132 c 256,4,5
 333 151 333 151 345 164 c 0,6,7
 354 172 354 172 362 176 c 1,8,-1
 362 176 l 1,9,10
 353 179 353 179 345 187 c 0,11,12
 333 201 333 201 333 219 c 0,13,14
 333 238 333 238 345 251 c 0,15,16
 350 257 350 257 357 260 c 1,17,-1
 41 260 l 2,18,19
 24 260 24 260 12 274 c 128,-1,20
 0 288 0 288 0 306 c 0,21,22
 0 325 0 325 12 338 c 0,23,24
 24 352 24 352 41 352 c 2,25,-1
 357 352 l 1,26,27
 351 355 351 355 345 360 c 0,28,29
 333 374 333 374 333 392 c 128,-1,30
 333 410 333 410 345 424 c 0,31,32
 354 432 354 432 362 436 c 1,33,-1
 362 436 l 1,34,35
 353 439 353 439 345 447 c 0,36,37
 333 461 333 461 333 479 c 0,38,39
 333 498 333 498 345 512 c 0,40,41
 356.2 525.066666667 356.2 525.066666667 372.626666667 525.066666667 c 0,42,43
 373.8 525.066666667 373.8 525.066666667 375 525 c 2,44,-1
 458 525 l 2,45,46
 459.2 525.066666667 459.2 525.066666667 460.373333333 525.066666667 c 0,47,48
 476.8 525.066666667 476.8 525.066666667 488 512 c 0,49,50
 500 498 500 498 500 479 c 128,-1,51
 500 460 500 460 488 447 c 0,52,53
 480 438 480 438 471 436 c 1,54,-1
 471 436 l 1,55,56
 480 432 480 432 488 424 c 0,57,58
 500 410 500 410 500 392 c 0,59,60
 500 373 500 373 488 360 c 0,61,62
 483 354 483 354 476 352 c 1,63,-1
 791 352 l 2,64,65
 808 352 808 352 821 338 c 0,66,67
 833 324 833 324 833 306 c 0,68,69
 833 287 833 287 821 274 c 0,70,71
 808 260 808 260 791 260 c 2,72,-1
 476 260 l 1,73,74
 482 257 482 257 488 251 c 0,75,76
 500 237 500 237 500 219 c 0,77,78
 500 200 500 200 488 187 c 0,79,80
 480 180 480 180 471 176 c 1,81,-1
 471 176 l 1,82,83
 480 173 480 173 488 164 c 0,84,85
 500 150 500 150 500 132 c 256,86,87
 500 113 500 113 488 100 c 128,-1,88
 475.866666667 86.9333333333 475.866666667 86.9333333333 460.248888889 86.9333333333 c 0,89,90
 459.133333333 86.9333333333 459.133333333 86.9333333333 458 87 c 2,91,-1
 375 87 l 2,0,1
EndSplineSet
EndChar

StartChar: comma
Encoding: 44 44 12
Width: 457
VWidth: 750
Flags: W
LayerCount: 2
Fore
SplineSet
41 -87 m 2,0,1
 39.8666666667 -87.0666666667 39.8666666667 -87.0666666667 38.7555555556 -87.0666666667 c 0,2,3
 23.2 -87.0666666667 23.2 -87.0666666667 12 -74 c 0,4,5
 0 -60 0 -60 0 -41 c 128,-1,6
 0 -22 0 -22 12 -9 c 128,-1,7
 24 4 24 4 41 4 c 2,8,-1
 106 4 l 1,9,10
 100 8 100 8 95 14 c 0,11,12
 83 28 83 28 83 46 c 0,13,14
 83 65 83 65 95 78 c 0,15,16
 100 84 100 84 106 87 c 1,17,-1
 41 87 l 2,18,19
 24 87 24 87 12 100 c 256,20,21
 0 114 0 114 0 132 c 256,22,23
 0 151 0 151 12 164 c 256,24,25
 24 178 24 178 41 178 c 2,26,-1
 106 178 l 1,27,28
 100 181 100 181 95 187 c 0,29,30
 83 201 83 201 83 219 c 0,31,32
 83 238 83 238 95 251 c 0,33,34
 108 265 108 265 125 265 c 2,35,-1
 208 265 l 2,36,37
 225 265 225 265 238 251 c 0,38,39
 250 237 250 237 250 219 c 0,40,41
 250 200 250 200 238 187 c 0,42,43
 232 181 232 181 226 178 c 1,44,-1
 292 178 l 2,45,46
 309 178 309 178 321 164 c 0,47,48
 333.071428571 151 333.071428571 151 333.071428571 134.551020408 c 0,49,50
 333.071428571 113.077380952 333.071428571 113.077380952 321 100 c 0,51,52
 309.8 86.9333333333 309.8 86.9333333333 294.244444444 86.9333333333 c 0,53,54
 293.133333333 86.9333333333 293.133333333 86.9333333333 292 87 c 2,55,-1
 226 87 l 1,56,57
 232 84 232 84 238 78 c 0,58,59
 250 64 250 64 250 46 c 128,-1,60
 250 28 250 28 238 14 c 0,61,62
 225 0 225 0 208 0 c 2,63,-1
 142 0 l 1,64,65
 148 -3 148 -3 154 -9 c 0,66,67
 166 -23 166 -23 166 -41 c 0,68,69
 166 -60 166 -60 154 -74 c 0,70,71
 142.8 -87.0666666667 142.8 -87.0666666667 127.244444444 -87.0666666667 c 0,72,73
 126.133333333 -87.0666666667 126.133333333 -87.0666666667 125 -87 c 2,74,-1
 41 -87 l 2,0,1
EndSplineSet
EndChar

StartChar: hyphen
Encoding: 45 45 13
Width: 957
VWidth: 750
Flags: W
LayerCount: 2
Fore
SplineSet
41 260 m 2,0,1
 24 260 24 260 12 274 c 0,2,3
 0 288 0 288 0 306 c 0,4,5
 0 325 0 325 12 338 c 0,6,7
 24 352 24 352 41 352 c 2,8,-1
 791 352 l 2,9,10
 808 352 808 352 821 338 c 0,11,12
 833 324 833 324 833 306 c 0,13,14
 833 287 833 287 821 274 c 0,15,16
 808 260 808 260 791 260 c 2,17,-1
 41 260 l 2,0,1
EndSplineSet
EndChar

StartChar: period
Encoding: 46 46 14
Width: 457
VWidth: 750
Flags: W
LayerCount: 2
Fore
SplineSet
125 0 m 2,0,1
 108 0 108 0 95 14 c 0,2,3
 83 28 83 28 83 46 c 0,4,5
 83 65 83 65 95 78 c 0,6,7
 100 84 100 84 106 87 c 1,8,-1
 41 87 l 2,9,10
 24 87 24 87 12 100 c 256,11,12
 0 114 0 114 0 132 c 256,13,14
 0 151 0 151 12 164 c 256,15,16
 24 178 24 178 41 178 c 2,17,-1
 106 178 l 1,18,19
 100 181 100 181 95 187 c 0,20,21
 83 201 83 201 83 219 c 0,22,23
 83 238 83 238 95 251 c 0,24,25
 108 265 108 265 125 265 c 2,26,-1
 208 265 l 2,27,28
 225 265 225 265 238 251 c 0,29,30
 250 237 250 237 250 219 c 0,31,32
 250 200 250 200 238 187 c 0,33,34
 232 181 232 181 226 178 c 1,35,-1
 292 178 l 2,36,37
 309 178 309 178 321 164 c 0,38,39
 333.071428571 151 333.071428571 151 333.071428571 134.551020408 c 0,40,41
 333.071428571 113.077380952 333.071428571 113.077380952 321 100 c 0,42,43
 309.8 86.9333333333 309.8 86.9333333333 294.244444444 86.9333333333 c 0,44,45
 293.133333333 86.9333333333 293.133333333 86.9333333333 292 87 c 2,46,-1
 226 87 l 1,47,48
 232 84 232 84 238 78 c 0,49,50
 250 64 250 64 250 46 c 128,-1,51
 250 28 250 28 238 14 c 0,52,53
 225 0 225 0 208 0 c 2,54,-1
 125 0 l 2,0,1
EndSplineSet
EndChar

StartChar: slash
Encoding: 47 47 15
Width: 957
VWidth: 750
Flags: W
LayerCount: 2
Fore
SplineSet
41 0 m 2,0,1
 24 0 24 0 12 14 c 256,2,3
 0 28 0 28 0 46 c 0,4,5
 0 65 0 65 12 78 c 0,6,7
 23.2 91.0666666667 23.2 91.0666666667 38.7555555556 91.0666666667 c 0,8,9
 39.8666666667 91.0666666667 39.8666666667 91.0666666667 41 91 c 2,10,-1
 125 91 l 2,11,12
 142 91 142 91 154 78 c 0,13,14
 166 64 166 64 166 46 c 128,-1,15
 166 28 166 28 154 14 c 128,-1,16
 142 0 142 0 125 0 c 2,17,-1
 41 0 l 2,0,1
208 87 m 2,18,19
 190 87 190 87 178 100 c 256,20,21
 166 114 166 114 166 132 c 256,22,23
 166 151 166 151 178 164 c 256,24,25
 190 178 190 178 208 178 c 2,26,-1
 274 178 l 1,27,28
 268 181 268 181 262 187 c 0,29,30
 250 201 250 201 250 219 c 0,31,32
 250 238 250 238 262 251 c 0,33,34
 275 265 275 265 292 265 c 2,35,-1
 357 265 l 1,36,37
 351 268 351 268 345 274 c 0,38,39
 333 288 333 288 333 306 c 0,40,41
 333 325 333 325 345 338 c 0,42,43
 357 352 357 352 375 352 c 2,44,-1
 440 352 l 1,45,46
 434 355 434 355 429 360 c 0,47,48
 416 374 416 374 416 392 c 128,-1,49
 416 410 416 410 429 424 c 0,50,51
 441 438 441 438 458 438 c 2,52,-1
 524 438 l 1,53,54
 518 441 518 441 512 447 c 0,55,56
 500 461 500 461 500 479 c 0,57,58
 500 498 500 498 512 512 c 0,59,60
 525.066666667 525.066666667 525.066666667 525.066666667 539.875555556 525.066666667 c 0,61,62
 540.933333333 525.066666667 540.933333333 525.066666667 542 525 c 2,63,-1
 625 525 l 2,64,65
 626.133333333 525.066666667 626.133333333 525.066666667 627.248888889 525.066666667 c 0,66,67
 642.866666667 525.066666667 642.866666667 525.066666667 655 512 c 0,68,69
 667 498 667 498 667 479 c 128,-1,70
 667 460 667 460 655 447 c 128,-1,71
 642.866666667 433.933333333 642.866666667 433.933333333 627.248888889 433.933333333 c 0,72,73
 626.133333333 433.933333333 626.133333333 433.933333333 625 434 c 2,74,-1
 560 434 l 1,75,76
 566 430 566 430 571 424 c 0,77,78
 583 410 583 410 583 392 c 0,79,80
 583 373 583 373 571 360 c 0,81,82
 560.733333333 346.933333333 560.733333333 346.933333333 544.368888889 346.933333333 c 0,83,84
 543.2 346.933333333 543.2 346.933333333 542 347 c 2,85,-1
 476 347 l 1,86,87
 482 344 482 344 488 338 c 0,88,89
 500 324 500 324 500 306 c 0,90,91
 500 287 500 287 488 274 c 0,92,93
 475 260 475 260 458 260 c 2,94,-1
 393 260 l 1,95,96
 399 257 399 257 404 251 c 0,97,98
 416 237 416 237 416 219 c 0,99,100
 416 200 416 200 404 187 c 0,101,102
 392 173 392 173 375 173 c 2,103,-1
 310 173 l 1,104,105
 316 170 316 170 321 164 c 0,106,107
 333.071428571 151 333.071428571 151 333.071428571 134.551020408 c 0,108,109
 333.071428571 113.077380952 333.071428571 113.077380952 321 100 c 0,110,111
 309.8 86.9333333333 309.8 86.9333333333 294.244444444 86.9333333333 c 0,112,113
 293.133333333 86.9333333333 293.133333333 86.9333333333 292 87 c 2,114,-1
 208 87 l 2,18,19
708 520 m 2,115,116
 691 520 691 520 679 534 c 128,-1,117
 667 548 667 548 667 566 c 128,-1,118
 667 584 667 584 679 598 c 0,119,120
 692 612 692 612 708 612 c 2,121,-1
 791 612 l 2,122,123
 808 612 808 612 821 598 c 0,124,125
 833 584 833 584 833 566 c 0,126,127
 833 547 833 547 821 534 c 0,128,129
 808 520 808 520 791 520 c 2,130,-1
 708 520 l 2,115,116
EndSplineSet
EndChar

StartChar: zero
Encoding: 48 48 16
Width: 957
VWidth: 750
Flags: W
LayerCount: 2
Fore
SplineSet
292 0 m 2,0,1
 275 0 275 0 262 14 c 0,2,3
 250 28 250 28 250 46 c 0,4,5
 250 65 250 65 262 78 c 128,-1,6
 274.133333333 91.0666666667 274.133333333 91.0666666667 289.751111111 91.0666666667 c 0,7,8
 290.866666667 91.0666666667 290.866666667 91.0666666667 292 91 c 2,9,-1
 542 91 l 2,10,11
 559 91 559 91 571 78 c 0,12,13
 583 64 583 64 583 46 c 128,-1,14
 583 28 583 28 571 14 c 256,15,16
 560 0 560 0 542 0 c 2,17,-1
 292 0 l 2,0,1
125 87 m 2,18,19
 108 87 108 87 95 100 c 0,20,21
 83 114 83 114 83 132 c 256,22,23
 83 151 83 151 95 164 c 0,24,25
 100 170 100 170 106 173 c 1,26,-1
 41 173 l 2,27,28
 24 173 24 173 12 187 c 128,-1,29
 0 201 0 201 0 219 c 0,30,31
 0 238 0 238 12 251 c 0,32,33
 20 258 20 258 28 262 c 1,34,-1
 28 262 l 1,35,36
 19 265 19 265 12 274 c 0,37,38
 0 288 0 288 0 306 c 0,39,40
 0 325 0 325 12 338 c 0,41,42
 20 346 20 346 28 350 c 1,43,-1
 28 350 l 1,44,45
 19 353 19 353 12 360 c 0,46,47
 0 374 0 374 0 392 c 128,-1,48
 0 410 0 410 12 424 c 128,-1,49
 24 438 24 438 41 438 c 2,50,-1
 106 438 l 1,51,52
 100 441 100 441 95 447 c 0,53,54
 83 461 83 461 83 479 c 0,55,56
 83 498 83 498 95 512 c 0,57,58
 107.133333333 525.066666667 107.133333333 525.066666667 122.751111111 525.066666667 c 0,59,60
 123.866666667 525.066666667 123.866666667 525.066666667 125 525 c 2,61,-1
 208 525 l 2,62,63
 209.133333333 525.066666667 209.133333333 525.066666667 210.248888889 525.066666667 c 0,64,65
 225.866666667 525.066666667 225.866666667 525.066666667 238 512 c 0,66,67
 250 498 250 498 250 479 c 128,-1,68
 250 460 250 460 238 447 c 128,-1,69
 225.866666667 433.933333333 225.866666667 433.933333333 210.248888889 433.933333333 c 0,70,71
 209.133333333 433.933333333 209.133333333 433.933333333 208 434 c 2,72,-1
 142 434 l 1,73,74
 148 430 148 430 154 424 c 0,75,76
 166 410 166 410 166 392 c 0,77,78
 166 373 166 373 154 360 c 0,79,80
 146 352 146 352 138 350 c 1,81,-1
 138 350 l 1,82,83
 146 347 146 347 154 338 c 0,84,85
 166 324 166 324 166 306 c 0,86,87
 166 287 166 287 154 274 c 0,88,89
 146 266 146 266 138 262 c 1,90,-1
 138 262 l 1,91,92
 146 259 146 259 154 251 c 0,93,94
 166 237 166 237 166 219 c 0,95,96
 166 200 166 200 154 187 c 0,97,98
 148 181 148 181 142 178 c 1,99,-1
 208 178 l 2,100,101
 225 178 225 178 238 164 c 0,102,103
 250 150 250 150 250 132 c 256,104,105
 250 113 250 113 238 100 c 128,-1,106
 225.866666667 86.9333333333 225.866666667 86.9333333333 210.248888889 86.9333333333 c 0,107,108
 209.133333333 86.9333333333 209.133333333 86.9333333333 208 87 c 2,109,-1
 125 87 l 2,18,19
625 87 m 2,110,111
 608 87 608 87 596 100 c 0,112,113
 583 114 583 114 583 132 c 256,114,115
 584 151 584 151 596 164 c 0,116,117
 608 178 608 178 625 178 c 2,118,-1
 690 178 l 1,119,120
 684 181 684 181 679 187 c 0,121,122
 667 201 667 201 667 219 c 0,123,124
 667 238 667 238 679 251 c 0,125,126
 687 258 687 258 695 262 c 1,127,-1
 695 262 l 1,128,129
 686 265 686 265 679 274 c 0,130,131
 667 288 667 288 667 306 c 0,132,133
 667 325 667 325 679 338 c 0,134,135
 687 346 687 346 695 350 c 1,136,-1
 695 350 l 1,137,138
 686 353 686 353 679 360 c 0,139,140
 667 374 667 374 667 392 c 128,-1,141
 667 410 667 410 679 424 c 0,142,143
 684 430 684 430 690 434 c 1,144,-1
 625 434 l 2,145,146
 608 434 608 434 596 447 c 0,147,148
 583 461 583 461 583 479 c 0,149,150
 584 498 584 498 596 512 c 0,151,152
 607.2 525.066666667 607.2 525.066666667 622.755555556 525.066666667 c 0,153,154
 623.866666667 525.066666667 623.866666667 525.066666667 625 525 c 2,155,-1
 708 525 l 2,156,157
 709.133333333 525.066666667 709.133333333 525.066666667 710.244444444 525.066666667 c 0,158,159
 725.8 525.066666667 725.8 525.066666667 737 512 c 0,160,161
 750 498 750 498 750 479 c 128,-1,162
 750 460 750 460 737 447 c 0,163,164
 732 441 732 441 726 438 c 1,165,-1
 791 438 l 2,166,167
 808 438 808 438 821 424 c 0,168,169
 833 410 833 410 833 392 c 0,170,171
 833 373 833 373 821 360 c 0,172,173
 813 352 813 352 805 350 c 1,174,-1
 805 350 l 1,175,176
 814 347 814 347 821 338 c 0,177,178
 833 324 833 324 833 306 c 0,179,180
 833 287 833 287 821 274 c 0,181,182
 813 266 813 266 805 262 c 1,183,-1
 805 262 l 1,184,185
 814 259 814 259 821 251 c 0,186,187
 833 237 833 237 833 219 c 0,188,189
 833 200 833 200 821 187 c 0,190,191
 808 173 808 173 791 173 c 2,192,-1
 726 173 l 1,193,194
 732 170 732 170 737 164 c 0,195,196
 750 150 750 150 750 132 c 256,197,198
 750 113 750 113 737 100 c 0,199,200
 725.8 86.9333333333 725.8 86.9333333333 710.244444444 86.9333333333 c 0,201,202
 709.133333333 86.9333333333 709.133333333 86.9333333333 708 87 c 2,203,-1
 625 87 l 2,110,111
292 520 m 2,204,205
 275 520 275 520 262 534 c 0,206,207
 250 548 250 548 250 566 c 128,-1,208
 250 584 250 584 262 598 c 0,209,210
 275 612 275 612 292 612 c 2,211,-1
 542 612 l 2,212,213
 559 612 559 612 571 598 c 128,-1,214
 583 584 583 584 583 566 c 0,215,216
 583 547 583 547 571 534 c 0,217,218
 560 520 560 520 542 520 c 2,219,-1
 292 520 l 2,204,205
EndSplineSet
EndChar

StartChar: one
Encoding: 49 49 17
Width: 624
VWidth: 750
Flags: W
LayerCount: 2
Fore
SplineSet
208 0 m 2,0,1
 190 0 190 0 178 14 c 256,2,3
 166 28 166 28 166 46 c 0,4,5
 166 65 166 65 178 78 c 0,6,7
 189.2 91.0666666667 189.2 91.0666666667 205.626666667 91.0666666667 c 0,8,9
 206.8 91.0666666667 206.8 91.0666666667 208 91 c 2,10,-1
 274 91 l 1,11,12
 268 94 268 94 262 100 c 0,13,14
 250 114 250 114 250 132 c 256,15,16
 250 151 250 151 262 164 c 0,17,18
 270 172 270 172 278 176 c 1,19,-1
 278 176 l 1,20,21
 269 179 269 179 262 187 c 0,22,23
 250 201 250 201 250 219 c 0,24,25
 250 238 250 238 262 251 c 0,26,27
 270 258 270 258 278 262 c 1,28,-1
 278 262 l 1,29,30
 269 265 269 265 262 274 c 0,31,32
 250 288 250 288 250 306 c 0,33,34
 250 325 250 325 262 338 c 0,35,36
 270 346 270 346 278 350 c 1,37,-1
 278 350 l 1,38,39
 269 353 269 353 262 360 c 0,40,41
 250 374 250 374 250 392 c 128,-1,42
 250 410 250 410 262 424 c 0,43,44
 267 430 267 430 274 434 c 1,45,-1
 208 434 l 2,46,47
 190 434 190 434 178 447 c 0,48,49
 166 461 166 461 166 479 c 0,50,51
 166 498 166 498 178 512 c 0,52,53
 189.2 525.066666667 189.2 525.066666667 205.626666667 525.066666667 c 0,54,55
 206.8 525.066666667 206.8 525.066666667 208 525 c 2,56,-1
 274 525 l 1,57,58
 268 528 268 528 262 534 c 0,59,60
 250 548 250 548 250 566 c 128,-1,61
 250 584 250 584 262 598 c 0,62,63
 275 612 275 612 292 612 c 2,64,-1
 375 612 l 2,65,66
 392 612 392 612 404 598 c 128,-1,67
 416 584 416 584 416 566 c 0,68,69
 416 547 416 547 404 534 c 0,70,71
 396 526 396 526 388 523 c 1,72,-1
 388 523 l 1,73,74
 397 520 397 520 404 512 c 0,75,76
 416 498 416 498 416 479 c 128,-1,77
 416 460 416 460 404 447 c 0,78,79
 396 438 396 438 388 436 c 1,80,-1
 388 436 l 1,81,82
 397 432 397 432 404 424 c 0,83,84
 416 410 416 410 416 392 c 0,85,86
 416 373 416 373 404 360 c 0,87,88
 396 352 396 352 388 350 c 1,89,-1
 388 350 l 1,90,91
 397 347 397 347 404 338 c 0,92,93
 416 324 416 324 416 306 c 0,94,95
 416 287 416 287 404 274 c 0,96,97
 396 266 396 266 388 262 c 1,98,-1
 388 262 l 1,99,100
 397 259 397 259 404 251 c 0,101,102
 416 237 416 237 416 219 c 0,103,104
 416 200 416 200 404 187 c 0,105,106
 396 180 396 180 388 176 c 1,107,-1
 388 176 l 1,108,109
 397 173 397 173 404 164 c 0,110,111
 416 150 416 150 416 132 c 256,112,113
 416 113 416 113 404 100 c 0,114,115
 399 94 399 94 393 91 c 1,116,-1
 458 91 l 2,117,118
 476 91 476 91 488 78 c 0,119,120
 500 64 500 64 500 46 c 128,-1,121
 500 28 500 28 488 14 c 0,122,123
 475 0 475 0 458 0 c 2,124,-1
 208 0 l 2,0,1
EndSplineSet
EndChar

StartChar: two
Encoding: 50 50 18
Width: 957
VWidth: 750
Flags: W
LayerCount: 2
Fore
SplineSet
41 0 m 2,0,1
 24 0 24 0 12 14 c 256,2,3
 0 28 0 28 0 46 c 0,4,5
 0 65 0 65 12 78 c 0,6,7
 23.2 91.0666666667 23.2 91.0666666667 38.7555555556 91.0666666667 c 0,8,9
 39.8666666667 91.0666666667 39.8666666667 91.0666666667 41 91 c 2,10,-1
 190 91 l 1,11,12
 184 94 184 94 178 100 c 0,13,14
 166 114 166 114 166 132 c 256,15,16
 166 151 166 151 178 164 c 256,17,18
 190 178 190 178 208 178 c 2,19,-1
 292 178 l 2,20,21
 309 178 309 178 321 164 c 0,22,23
 333.071428571 151 333.071428571 151 333.071428571 134.551020408 c 0,24,25
 333.071428571 113.077380952 333.071428571 113.077380952 321 100 c 0,26,27
 316 94 316 94 310 91 c 1,28,-1
 791 91 l 2,29,30
 808 91 808 91 821 78 c 0,31,32
 833 64 833 64 833 46 c 128,-1,33
 833 28 833 28 821 14 c 0,34,35
 808 0 808 0 791 0 c 2,36,-1
 41 0 l 2,0,1
375 173 m 2,37,38
 358 173 358 173 345 187 c 0,39,40
 333 201 333 201 333 219 c 0,41,42
 333 238 333 238 345 251 c 256,43,44
 357 265 357 265 375 265 c 2,45,-1
 458 265 l 2,46,47
 476 265 476 265 488 251 c 128,-1,48
 500 237 500 237 500 219 c 0,49,50
 500 200 500 200 488 187 c 0,51,52
 475 173 475 173 458 173 c 2,53,-1
 375 173 l 2,37,38
41 434 m 2,54,55
 24 434 24 434 12 447 c 0,56,57
 0 461 0 461 0 479 c 0,58,59
 0 498 0 498 12 512 c 0,60,61
 23.2 525.066666667 23.2 525.066666667 38.7555555556 525.066666667 c 0,62,63
 39.8666666667 525.066666667 39.8666666667 525.066666667 41 525 c 2,64,-1
 125 525 l 2,65,66
 126.133333333 525.066666667 126.133333333 525.066666667 127.244444444 525.066666667 c 0,67,68
 142.8 525.066666667 142.8 525.066666667 154 512 c 0,69,70
 166 498 166 498 166 479 c 128,-1,71
 166 460 166 460 154 447 c 0,72,73
 142.8 433.933333333 142.8 433.933333333 127.244444444 433.933333333 c 0,74,75
 126.133333333 433.933333333 126.133333333 433.933333333 125 434 c 2,76,-1
 41 434 l 2,54,55
542 260 m 2,77,78
 525 260 525 260 512 274 c 0,79,80
 500 288 500 288 500 306 c 0,81,82
 500 325 500 325 512 338 c 0,83,84
 526 352 526 352 542 352 c 2,85,-1
 607 352 l 1,86,87
 602 355 602 355 596 360 c 0,88,89
 583 374 583 374 583 392 c 0,90,91
 584 410 584 410 596 424 c 128,-1,92
 608 438 608 438 625 438 c 2,93,-1
 690 438 l 1,94,95
 684 441 684 441 679 447 c 0,96,97
 667 461 667 461 667 479 c 0,98,99
 667 498 667 498 679 512 c 0,100,101
 691.133333333 525.066666667 691.133333333 525.066666667 705.88 525.066666667 c 0,102,103
 706.933333333 525.066666667 706.933333333 525.066666667 708 525 c 2,104,-1
 791 525 l 2,105,106
 792.133333333 525.066666667 792.133333333 525.066666667 793.248888889 525.066666667 c 0,107,108
 808.866666667 525.066666667 808.866666667 525.066666667 821 512 c 0,109,110
 833 498 833 498 833 479 c 128,-1,111
 833 460 833 460 821 447 c 128,-1,112
 808.866666667 433.933333333 808.866666667 433.933333333 793.248888889 433.933333333 c 0,113,114
 792.133333333 433.933333333 792.133333333 433.933333333 791 434 c 2,115,-1
 726 434 l 1,116,117
 732 430 732 430 737 424 c 0,118,119
 750 410 750 410 750 392 c 0,120,121
 750 373 750 373 737 360 c 0,122,123
 725.8 346.933333333 725.8 346.933333333 710.244444444 346.933333333 c 0,124,125
 709.133333333 346.933333333 709.133333333 346.933333333 708 347 c 2,126,-1
 643 347 l 1,127,128
 649 344 649 344 655 338 c 0,129,130
 667 324 667 324 667 306 c 0,131,132
 667 287 667 287 655 274 c 0,133,134
 642 260 642 260 625 260 c 2,135,-1
 542 260 l 2,77,78
208 520 m 2,136,137
 190 520 190 520 178 534 c 128,-1,138
 166 548 166 548 166 566 c 128,-1,139
 166 584 166 584 178 598 c 128,-1,140
 190 612 190 612 208 612 c 2,141,-1
 625 612 l 2,142,143
 642 612 642 612 655 598 c 0,144,145
 667 584 667 584 667 566 c 0,146,147
 667 547 667 547 655 534 c 0,148,149
 642 520 642 520 625 520 c 2,150,-1
 208 520 l 2,136,137
EndSplineSet
EndChar

StartChar: three
Encoding: 51 51 19
Width: 957
VWidth: 750
Flags: W
LayerCount: 2
Fore
SplineSet
208 0 m 2,0,1
 190 0 190 0 178 14 c 256,2,3
 166 28 166 28 166 46 c 0,4,5
 166 65 166 65 178 78 c 0,6,7
 189.2 91.0666666667 189.2 91.0666666667 205.626666667 91.0666666667 c 0,8,9
 206.8 91.0666666667 206.8 91.0666666667 208 91 c 2,10,-1
 625 91 l 2,11,12
 642 91 642 91 655 78 c 0,13,14
 667 64 667 64 667 46 c 128,-1,15
 667 28 667 28 655 14 c 0,16,17
 642 0 642 0 625 0 c 2,18,-1
 208 0 l 2,0,1
41 87 m 2,19,20
 24 87 24 87 12 100 c 256,21,22
 0 114 0 114 0 132 c 256,23,24
 0 151 0 151 12 164 c 256,25,26
 24 178 24 178 41 178 c 2,27,-1
 125 178 l 2,28,29
 142 178 142 178 154 164 c 128,-1,30
 166 150 166 150 166 132 c 256,31,32
 166 113 166 113 154 100 c 0,33,34
 142.8 86.9333333333 142.8 86.9333333333 127.244444444 86.9333333333 c 0,35,36
 126.133333333 86.9333333333 126.133333333 86.9333333333 125 87 c 2,37,-1
 41 87 l 2,19,20
708 87 m 2,38,39
 691 87 691 87 679 100 c 0,40,41
 667 114 667 114 667 132 c 256,42,43
 667 151 667 151 679 164 c 0,44,45
 687 172 687 172 695 176 c 1,46,-1
 695 176 l 1,47,48
 686 179 686 179 679 187 c 0,49,50
 667 201 667 201 667 219 c 0,51,52
 667 238 667 238 679 251 c 0,53,54
 692 265 692 265 708 265 c 2,55,-1
 791 265 l 2,56,57
 808 265 808 265 821 251 c 0,58,59
 833 237 833 237 833 219 c 0,60,61
 833 200 833 200 821 187 c 0,62,63
 813 180 813 180 805 176 c 1,64,-1
 805 176 l 1,65,66
 814 173 814 173 821 164 c 0,67,68
 833 150 833 150 833 132 c 256,69,70
 833 113 833 113 821 100 c 128,-1,71
 808.866666667 86.9333333333 808.866666667 86.9333333333 793.248888889 86.9333333333 c 0,72,73
 792.133333333 86.9333333333 792.133333333 86.9333333333 791 87 c 2,74,-1
 708 87 l 2,38,39
375 260 m 2,75,76
 358 260 358 260 345 274 c 0,77,78
 333 288 333 288 333 306 c 0,79,80
 333 325 333 325 345 338 c 0,81,82
 357 352 357 352 375 352 c 2,83,-1
 625 352 l 2,84,85
 642 352 642 352 655 338 c 0,86,87
 667 324 667 324 667 306 c 0,88,89
 667 287 667 287 655 274 c 0,90,91
 642 260 642 260 625 260 c 2,92,-1
 375 260 l 2,75,76
41 434 m 2,93,94
 24 434 24 434 12 447 c 0,95,96
 0 461 0 461 0 479 c 0,97,98
 0 498 0 498 12 512 c 0,99,100
 23.2 525.066666667 23.2 525.066666667 38.7555555556 525.066666667 c 0,101,102
 39.8666666667 525.066666667 39.8666666667 525.066666667 41 525 c 2,103,-1
 125 525 l 2,104,105
 126.133333333 525.066666667 126.133333333 525.066666667 127.244444444 525.066666667 c 0,106,107
 142.8 525.066666667 142.8 525.066666667 154 512 c 0,108,109
 166 498 166 498 166 479 c 128,-1,110
 166 460 166 460 154 447 c 0,111,112
 142.8 433.933333333 142.8 433.933333333 127.244444444 433.933333333 c 0,113,114
 126.133333333 433.933333333 126.133333333 433.933333333 125 434 c 2,115,-1
 41 434 l 2,93,94
708 347 m 2,116,117
 691 347 691 347 679 360 c 0,118,119
 667 374 667 374 667 392 c 128,-1,120
 667 410 667 410 679 424 c 0,121,122
 687 432 687 432 695 436 c 1,123,-1
 695 436 l 1,124,125
 686 439 686 439 679 447 c 0,126,127
 667 461 667 461 667 479 c 0,128,129
 667 498 667 498 679 512 c 0,130,131
 691.133333333 525.066666667 691.133333333 525.066666667 705.88 525.066666667 c 0,132,133
 706.933333333 525.066666667 706.933333333 525.066666667 708 525 c 2,134,-1
 791 525 l 2,135,136
 792.133333333 525.066666667 792.133333333 525.066666667 793.248888889 525.066666667 c 0,137,138
 808.866666667 525.066666667 808.866666667 525.066666667 821 512 c 0,139,140
 833 498 833 498 833 479 c 128,-1,141
 833 460 833 460 821 447 c 0,142,143
 813 438 813 438 805 436 c 1,144,-1
 805 436 l 1,145,146
 814 432 814 432 821 424 c 0,147,148
 833 410 833 410 833 392 c 0,149,150
 833 373 833 373 821 360 c 128,-1,151
 808.866666667 346.933333333 808.866666667 346.933333333 793.248888889 346.933333333 c 0,152,153
 792.133333333 346.933333333 792.133333333 346.933333333 791 347 c 2,154,-1
 708 347 l 2,116,117
208 520 m 2,155,156
 190 520 190 520 178 534 c 128,-1,157
 166 548 166 548 166 566 c 128,-1,158
 166 584 166 584 178 598 c 128,-1,159
 190 612 190 612 208 612 c 2,160,-1
 625 612 l 2,161,162
 642 612 642 612 655 598 c 0,163,164
 667 584 667 584 667 566 c 0,165,166
 667 547 667 547 655 534 c 0,167,168
 642 520 642 520 625 520 c 2,169,-1
 208 520 l 2,155,156
EndSplineSet
EndChar

StartChar: four
Encoding: 52 52 20
Width: 874
VWidth: 750
Flags: W
LayerCount: 2
Fore
SplineSet
542 0 m 2,0,1
 525 0 525 0 512 14 c 0,2,3
 500 28 500 28 500 46 c 0,4,5
 500 65 500 65 512 78 c 0,6,7
 520 86 520 86 529 88 c 1,8,-1
 529 88 l 1,9,10
 520 91 520 91 512 100 c 0,11,12
 500 114 500 114 500 132 c 256,13,14
 500 151 500 151 512 164 c 0,15,16
 518 170 518 170 524 173 c 1,17,-1
 41 173 l 2,18,19
 24 173 24 173 12 187 c 128,-1,20
 0 201 0 201 0 219 c 0,21,22
 0 238 0 238 12 251 c 256,23,24
 24 265 24 265 41 265 c 2,25,-1
 106 265 l 1,26,27
 100 268 100 268 95 274 c 0,28,29
 83 288 83 288 83 306 c 0,30,31
 83 325 83 325 95 338 c 0,32,33
 108 352 108 352 125 352 c 2,34,-1
 190 352 l 1,35,36
 184 355 184 355 178 360 c 0,37,38
 166 374 166 374 166 392 c 128,-1,39
 166 410 166 410 178 424 c 128,-1,40
 190 438 190 438 208 438 c 2,41,-1
 274 438 l 1,42,43
 268 441 268 441 262 447 c 0,44,45
 250 461 250 461 250 479 c 0,46,47
 250 498 250 498 262 512 c 0,48,49
 274.133333333 525.066666667 274.133333333 525.066666667 289.751111111 525.066666667 c 0,50,51
 290.866666667 525.066666667 290.866666667 525.066666667 292 525 c 2,52,-1
 357 525 l 1,53,54
 351 528 351 528 345 534 c 0,55,56
 333 548 333 548 333 566 c 128,-1,57
 333 584 333 584 345 598 c 128,-1,58
 357 612 357 612 375 612 c 2,59,-1
 458 612 l 2,60,61
 476 612 476 612 488 598 c 128,-1,62
 500 584 500 584 500 566 c 0,63,64
 500 547 500 547 488 534 c 0,65,66
 475 520 475 520 458 520 c 2,67,-1
 393 520 l 1,68,69
 399 518 399 518 404 512 c 0,70,71
 416 498 416 498 416 479 c 128,-1,72
 416 460 416 460 404 447 c 0,73,74
 392.8 433.933333333 392.8 433.933333333 377.244444444 433.933333333 c 0,75,76
 376.133333333 433.933333333 376.133333333 433.933333333 375 434 c 2,77,-1
 310 434 l 1,78,79
 316 430 316 430 321 424 c 0,80,81
 333.071428571 411 333.071428571 411 333.071428571 394.551020408 c 0,82,83
 333.071428571 373.077380952 333.071428571 373.077380952 321 360 c 0,84,85
 309.8 346.933333333 309.8 346.933333333 294.244444444 346.933333333 c 0,86,87
 293.133333333 346.933333333 293.133333333 346.933333333 292 347 c 2,88,-1
 226 347 l 1,89,90
 232 344 232 344 238 338 c 0,91,92
 250 324 250 324 250 306 c 0,93,94
 250 287 250 287 238 274 c 0,95,96
 232 268 232 268 226 265 c 1,97,-1
 524 265 l 1,98,99
 518 268 518 268 512 274 c 0,100,101
 500 288 500 288 500 306 c 0,102,103
 500 325 500 325 512 338 c 0,104,105
 520 346 520 346 529 350 c 1,106,-1
 529 350 l 1,107,108
 520 353 520 353 512 360 c 0,109,110
 500 374 500 374 500 392 c 128,-1,111
 500 410 500 410 512 424 c 0,112,113
 520 432 520 432 529 436 c 1,114,-1
 529 436 l 1,115,116
 520 439 520 439 512 447 c 0,117,118
 500 461 500 461 500 479 c 0,119,120
 500 498 500 498 512 512 c 0,121,122
 520 520 520 520 529 523 c 1,123,-1
 529 523 l 1,124,125
 520 526 520 526 512 534 c 0,126,127
 500 548 500 548 500 566 c 128,-1,128
 500 584 500 584 512 598 c 0,129,130
 526 612 526 612 542 612 c 2,131,-1
 625 612 l 2,132,133
 642 612 642 612 655 598 c 0,134,135
 667 584 667 584 667 566 c 0,136,137
 667 547 667 547 655 534 c 0,138,139
 647 526 647 526 638 523 c 1,140,-1
 638 523 l 1,141,142
 647 520 647 520 655 512 c 0,143,144
 667 498 667 498 667 479 c 128,-1,145
 667 460 667 460 655 447 c 0,146,147
 647 438 647 438 638 436 c 1,148,-1
 638 436 l 1,149,150
 647 432 647 432 655 424 c 0,151,152
 667 410 667 410 667 392 c 0,153,154
 667 373 667 373 655 360 c 0,155,156
 647 352 647 352 638 350 c 1,157,-1
 638 350 l 1,158,159
 647 347 647 347 655 338 c 0,160,161
 667 324 667 324 667 306 c 0,162,163
 667 287 667 287 655 274 c 0,164,165
 650 268 650 268 643 265 c 1,166,-1
 708 265 l 2,167,168
 725 265 725 265 737 251 c 0,169,170
 750 237 750 237 750 219 c 0,171,172
 750 200 750 200 737 187 c 0,173,174
 725 173 725 173 708 173 c 2,175,-1
 643 173 l 1,176,177
 649 170 649 170 655 164 c 0,178,179
 667 150 667 150 667 132 c 256,180,181
 667 113 667 113 655 100 c 0,182,183
 647 92 647 92 638 88 c 1,184,-1
 638 88 l 1,185,186
 647 85 647 85 655 78 c 0,187,188
 667 64 667 64 667 46 c 128,-1,189
 667 28 667 28 655 14 c 0,190,191
 642 0 642 0 625 0 c 2,192,-1
 542 0 l 2,0,1
EndSplineSet
EndChar

StartChar: five
Encoding: 53 53 21
Width: 957
VWidth: 750
Flags: W
LayerCount: 2
Fore
SplineSet
208 0 m 2,0,1
 190 0 190 0 178 14 c 256,2,3
 166 28 166 28 166 46 c 0,4,5
 166 65 166 65 178 78 c 0,6,7
 189.2 91.0666666667 189.2 91.0666666667 205.626666667 91.0666666667 c 0,8,9
 206.8 91.0666666667 206.8 91.0666666667 208 91 c 2,10,-1
 625 91 l 2,11,12
 642 91 642 91 655 78 c 0,13,14
 667 64 667 64 667 46 c 128,-1,15
 667 28 667 28 655 14 c 0,16,17
 642 0 642 0 625 0 c 2,18,-1
 208 0 l 2,0,1
41 87 m 2,19,20
 24 87 24 87 12 100 c 256,21,22
 0 114 0 114 0 132 c 256,23,24
 0 151 0 151 12 164 c 256,25,26
 24 178 24 178 41 178 c 2,27,-1
 125 178 l 2,28,29
 142 178 142 178 154 164 c 128,-1,30
 166 150 166 150 166 132 c 256,31,32
 166 113 166 113 154 100 c 0,33,34
 142.8 86.9333333333 142.8 86.9333333333 127.244444444 86.9333333333 c 0,35,36
 126.133333333 86.9333333333 126.133333333 86.9333333333 125 87 c 2,37,-1
 41 87 l 2,19,20
708 87 m 2,38,39
 691 87 691 87 679 100 c 0,40,41
 667 114 667 114 667 132 c 256,42,43
 667 151 667 151 679 164 c 0,44,45
 687 172 687 172 695 176 c 1,46,-1
 695 176 l 1,47,48
 686 179 686 179 679 187 c 0,49,50
 667 201 667 201 667 219 c 0,51,52
 667 238 667 238 679 251 c 0,53,54
 687 258 687 258 695 262 c 1,55,-1
 695 262 l 1,56,57
 686 265 686 265 679 274 c 0,58,59
 667 288 667 288 667 306 c 0,60,61
 667 325 667 325 679 338 c 0,62,63
 692 352 692 352 708 352 c 2,64,-1
 791 352 l 2,65,66
 808 352 808 352 821 338 c 0,67,68
 833 324 833 324 833 306 c 0,69,70
 833 287 833 287 821 274 c 0,71,72
 813 266 813 266 805 262 c 1,73,-1
 805 262 l 1,74,75
 814 259 814 259 821 251 c 0,76,77
 833 237 833 237 833 219 c 0,78,79
 833 200 833 200 821 187 c 0,80,81
 813 180 813 180 805 176 c 1,82,-1
 805 176 l 1,83,84
 814 173 814 173 821 164 c 0,85,86
 833 150 833 150 833 132 c 256,87,88
 833 113 833 113 821 100 c 128,-1,89
 808.866666667 86.9333333333 808.866666667 86.9333333333 793.248888889 86.9333333333 c 0,90,91
 792.133333333 86.9333333333 792.133333333 86.9333333333 791 87 c 2,92,-1
 708 87 l 2,38,39
41 347 m 2,93,94
 24 347 24 347 12 360 c 0,95,96
 0 374 0 374 0 392 c 128,-1,97
 0 410 0 410 12 424 c 0,98,99
 20 432 20 432 28 436 c 1,100,-1
 28 436 l 1,101,102
 19 439 19 439 12 447 c 0,103,104
 0 461 0 461 0 479 c 0,105,106
 0 498 0 498 12 512 c 0,107,108
 20 520 20 520 28 523 c 1,109,-1
 28 523 l 1,110,111
 19 526 19 526 12 534 c 0,112,113
 0 548 0 548 0 566 c 128,-1,114
 0 584 0 584 12 598 c 128,-1,115
 24 612 24 612 41 612 c 2,116,-1
 791 612 l 2,117,118
 808 612 808 612 821 598 c 0,119,120
 833 584 833 584 833 566 c 0,121,122
 833 547 833 547 821 534 c 0,123,124
 808 520 808 520 791 520 c 2,125,-1
 142 520 l 1,126,127
 148 518 148 518 154 512 c 0,128,129
 166 498 166 498 166 479 c 128,-1,130
 166 460 166 460 154 447 c 0,131,132
 148 441 148 441 142 438 c 1,133,-1
 625 438 l 2,134,135
 642 438 642 438 655 424 c 0,136,137
 667 410 667 410 667 392 c 0,138,139
 667 373 667 373 655 360 c 128,-1,140
 642.866666667 346.933333333 642.866666667 346.933333333 627.248888889 346.933333333 c 0,141,142
 626.133333333 346.933333333 626.133333333 346.933333333 625 347 c 2,143,-1
 41 347 l 2,93,94
EndSplineSet
EndChar

StartChar: six
Encoding: 54 54 22
Width: 957
VWidth: 750
Flags: W
LayerCount: 2
Fore
SplineSet
208 0 m 2,0,1
 190 0 190 0 178 14 c 256,2,3
 166 28 166 28 166 46 c 0,4,5
 166 65 166 65 178 78 c 0,6,7
 189.2 91.0666666667 189.2 91.0666666667 205.626666667 91.0666666667 c 0,8,9
 206.8 91.0666666667 206.8 91.0666666667 208 91 c 2,10,-1
 625 91 l 2,11,12
 642 91 642 91 655 78 c 0,13,14
 667 64 667 64 667 46 c 128,-1,15
 667 28 667 28 655 14 c 0,16,17
 642 0 642 0 625 0 c 2,18,-1
 208 0 l 2,0,1
708 87 m 2,19,20
 691 87 691 87 679 100 c 0,21,22
 667 114 667 114 667 132 c 256,23,24
 667 151 667 151 679 164 c 0,25,26
 687 172 687 172 695 176 c 1,27,-1
 695 176 l 1,28,29
 686 179 686 179 679 187 c 0,30,31
 667 201 667 201 667 219 c 0,32,33
 667 238 667 238 679 251 c 0,34,35
 692 265 692 265 708 265 c 2,36,-1
 791 265 l 2,37,38
 808 265 808 265 821 251 c 0,39,40
 833 237 833 237 833 219 c 0,41,42
 833 200 833 200 821 187 c 0,43,44
 813 180 813 180 805 176 c 1,45,-1
 805 176 l 1,46,47
 814 173 814 173 821 164 c 0,48,49
 833 150 833 150 833 132 c 256,50,51
 833 113 833 113 821 100 c 128,-1,52
 808.866666667 86.9333333333 808.866666667 86.9333333333 793.248888889 86.9333333333 c 0,53,54
 792.133333333 86.9333333333 792.133333333 86.9333333333 791 87 c 2,55,-1
 708 87 l 2,19,20
375 260 m 2,56,57
 358 260 358 260 345 274 c 0,58,59
 333 288 333 288 333 306 c 0,60,61
 333 325 333 325 345 338 c 0,62,63
 357 352 357 352 375 352 c 2,64,-1
 625 352 l 2,65,66
 642 352 642 352 655 338 c 0,67,68
 667 324 667 324 667 306 c 0,69,70
 667 287 667 287 655 274 c 0,71,72
 642 260 642 260 625 260 c 2,73,-1
 375 260 l 2,56,57
41 87 m 2,74,75
 24 87 24 87 12 100 c 256,76,77
 0 114 0 114 0 132 c 256,78,79
 0 151 0 151 12 164 c 0,80,81
 20 172 20 172 28 176 c 1,82,-1
 28 176 l 1,83,84
 19 179 19 179 12 187 c 0,85,86
 0 201 0 201 0 219 c 0,87,88
 0 238 0 238 12 251 c 256,89,90
 24 265 24 265 41 265 c 2,91,-1
 106 265 l 1,92,93
 100 268 100 268 95 274 c 0,94,95
 83 288 83 288 83 306 c 0,96,97
 83 325 83 325 95 338 c 0,98,99
 108 352 108 352 125 352 c 2,100,-1
 190 352 l 1,101,102
 184 355 184 355 178 360 c 0,103,104
 166 374 166 374 166 392 c 128,-1,105
 166 410 166 410 178 424 c 128,-1,106
 190 438 190 438 208 438 c 2,107,-1
 274 438 l 1,108,109
 268 441 268 441 262 447 c 0,110,111
 250 461 250 461 250 479 c 0,112,113
 250 498 250 498 262 512 c 0,114,115
 274.133333333 525.066666667 274.133333333 525.066666667 289.751111111 525.066666667 c 0,116,117
 290.866666667 525.066666667 290.866666667 525.066666667 292 525 c 2,118,-1
 357 525 l 1,119,120
 351 528 351 528 345 534 c 0,121,122
 333 548 333 548 333 566 c 128,-1,123
 333 584 333 584 345 598 c 128,-1,124
 357 612 357 612 375 612 c 2,125,-1
 458 612 l 2,126,127
 476 612 476 612 488 598 c 128,-1,128
 500 584 500 584 500 566 c 0,129,130
 500 547 500 547 488 534 c 0,131,132
 475 520 475 520 458 520 c 2,133,-1
 393 520 l 1,134,135
 399 518 399 518 404 512 c 0,136,137
 416 498 416 498 416 479 c 128,-1,138
 416 460 416 460 404 447 c 0,139,140
 392.8 433.933333333 392.8 433.933333333 377.244444444 433.933333333 c 0,141,142
 376.133333333 433.933333333 376.133333333 433.933333333 375 434 c 2,143,-1
 310 434 l 1,144,145
 316 430 316 430 321 424 c 0,146,147
 333.071428571 411 333.071428571 411 333.071428571 394.551020408 c 0,148,149
 333.071428571 373.077380952 333.071428571 373.077380952 321 360 c 0,150,151
 309.8 346.933333333 309.8 346.933333333 294.244444444 346.933333333 c 0,152,153
 293.133333333 346.933333333 293.133333333 346.933333333 292 347 c 2,154,-1
 226 347 l 1,155,156
 232 344 232 344 238 338 c 0,157,158
 250 324 250 324 250 306 c 0,159,160
 250 287 250 287 238 274 c 0,161,162
 225 260 225 260 208 260 c 2,163,-1
 142 260 l 1,164,165
 148 257 148 257 154 251 c 0,166,167
 166 237 166 237 166 219 c 0,168,169
 166 200 166 200 154 187 c 0,170,171
 146 180 146 180 138 176 c 1,172,-1
 138 176 l 1,173,174
 146 173 146 173 154 164 c 0,175,176
 166 150 166 150 166 132 c 256,177,178
 166 113 166 113 154 100 c 0,179,180
 142.8 86.9333333333 142.8 86.9333333333 127.244444444 86.9333333333 c 0,181,182
 126.133333333 86.9333333333 126.133333333 86.9333333333 125 87 c 2,183,-1
 41 87 l 2,74,75
EndSplineSet
EndChar

StartChar: seven
Encoding: 55 55 23
Width: 957
VWidth: 750
Flags: W
LayerCount: 2
Fore
SplineSet
208 0 m 2,0,1
 190 0 190 0 178 14 c 256,2,3
 166 28 166 28 166 46 c 0,4,5
 166 65 166 65 178 78 c 0,6,7
 189.2 91.0666666667 189.2 91.0666666667 205.626666667 91.0666666667 c 0,8,9
 206.8 91.0666666667 206.8 91.0666666667 208 91 c 2,10,-1
 274 91 l 1,11,12
 268 94 268 94 262 100 c 0,13,14
 250 114 250 114 250 132 c 256,15,16
 250 151 250 151 262 164 c 0,17,18
 275 178 275 178 292 178 c 2,19,-1
 357 178 l 1,20,21
 351 181 351 181 345 187 c 0,22,23
 333 201 333 201 333 219 c 0,24,25
 333 238 333 238 345 251 c 256,26,27
 357 265 357 265 375 265 c 2,28,-1
 440 265 l 1,29,30
 434 268 434 268 429 274 c 0,31,32
 416 288 416 288 416 306 c 0,33,34
 416 325 416 325 429 338 c 0,35,36
 441 352 441 352 458 352 c 2,37,-1
 524 352 l 1,38,39
 518 355 518 355 512 360 c 0,40,41
 500 374 500 374 500 392 c 128,-1,42
 500 410 500 410 512 424 c 0,43,44
 526 438 526 438 542 438 c 2,45,-1
 607 438 l 1,46,47
 602 441 602 441 596 447 c 0,48,49
 583 461 583 461 583 479 c 0,50,51
 584 498 584 498 596 512 c 0,52,53
 601 518 601 518 607 520 c 1,54,-1
 41 520 l 2,55,56
 24 520 24 520 12 534 c 128,-1,57
 0 548 0 548 0 566 c 128,-1,58
 0 584 0 584 12 598 c 128,-1,59
 24 612 24 612 41 612 c 2,60,-1
 791 612 l 2,61,62
 808 612 808 612 821 598 c 0,63,64
 833 584 833 584 833 566 c 0,65,66
 833 547 833 547 821 534 c 0,67,68
 808 520 808 520 791 520 c 2,69,-1
 726 520 l 1,70,71
 732 518 732 518 737 512 c 0,72,73
 750 498 750 498 750 479 c 128,-1,74
 750 460 750 460 737 447 c 0,75,76
 725.8 433.933333333 725.8 433.933333333 710.244444444 433.933333333 c 0,77,78
 709.133333333 433.933333333 709.133333333 433.933333333 708 434 c 2,79,-1
 643 434 l 1,80,81
 649 430 649 430 655 424 c 0,82,83
 667 410 667 410 667 392 c 0,84,85
 667 373 667 373 655 360 c 128,-1,86
 642.866666667 346.933333333 642.866666667 346.933333333 627.248888889 346.933333333 c 0,87,88
 626.133333333 346.933333333 626.133333333 346.933333333 625 347 c 2,89,-1
 560 347 l 1,90,91
 566 344 566 344 571 338 c 0,92,93
 583 324 583 324 583 306 c 0,94,95
 583 287 583 287 571 274 c 0,96,97
 560 260 560 260 542 260 c 2,98,-1
 476 260 l 1,99,100
 482 257 482 257 488 251 c 0,101,102
 500 237 500 237 500 219 c 0,103,104
 500 200 500 200 488 187 c 0,105,106
 475 173 475 173 458 173 c 2,107,-1
 393 173 l 1,108,109
 399 170 399 170 404 164 c 0,110,111
 416 150 416 150 416 132 c 256,112,113
 416 113 416 113 404 100 c 256,114,115
 392.8 86.9333333333 392.8 86.9333333333 377.244444444 86.9333333333 c 0,116,117
 376.133333333 86.9333333333 376.133333333 86.9333333333 375 87 c 2,118,-1
 310 87 l 1,119,120
 316 84 316 84 321 78 c 0,121,122
 333.071428571 65 333.071428571 65 333.071428571 48.5510204082 c 0,123,124
 333.071428571 28.0833333333 333.071428571 28.0833333333 321 14 c 128,-1,125
 309 0 309 0 292 0 c 2,126,-1
 208 0 l 2,0,1
EndSplineSet
EndChar

StartChar: eight
Encoding: 56 56 24
Width: 957
VWidth: 750
Flags: W
LayerCount: 2
Fore
SplineSet
208 0 m 2,0,1
 190 0 190 0 178 14 c 256,2,3
 166 28 166 28 166 46 c 0,4,5
 166 65 166 65 178 78 c 0,6,7
 189.2 91.0666666667 189.2 91.0666666667 205.626666667 91.0666666667 c 0,8,9
 206.8 91.0666666667 206.8 91.0666666667 208 91 c 2,10,-1
 625 91 l 2,11,12
 642 91 642 91 655 78 c 0,13,14
 667 64 667 64 667 46 c 128,-1,15
 667 28 667 28 655 14 c 0,16,17
 642 0 642 0 625 0 c 2,18,-1
 208 0 l 2,0,1
41 87 m 2,19,20
 24 87 24 87 12 100 c 256,21,22
 0 114 0 114 0 132 c 256,23,24
 0 151 0 151 12 164 c 0,25,26
 20 172 20 172 28 176 c 1,27,-1
 28 176 l 1,28,29
 19 179 19 179 12 187 c 0,30,31
 0 201 0 201 0 219 c 0,32,33
 0 238 0 238 12 251 c 256,34,35
 24 265 24 265 41 265 c 2,36,-1
 125 265 l 2,37,38
 142 265 142 265 154 251 c 128,-1,39
 166 237 166 237 166 219 c 0,40,41
 166 200 166 200 154 187 c 0,42,43
 146 180 146 180 138 176 c 1,44,-1
 138 176 l 1,45,46
 146 173 146 173 154 164 c 0,47,48
 166 150 166 150 166 132 c 256,49,50
 166 113 166 113 154 100 c 0,51,52
 142.8 86.9333333333 142.8 86.9333333333 127.244444444 86.9333333333 c 0,53,54
 126.133333333 86.9333333333 126.133333333 86.9333333333 125 87 c 2,55,-1
 41 87 l 2,19,20
708 87 m 2,56,57
 691 87 691 87 679 100 c 0,58,59
 667 114 667 114 667 132 c 256,60,61
 667 151 667 151 679 164 c 0,62,63
 687 172 687 172 695 176 c 1,64,-1
 695 176 l 1,65,66
 686 179 686 179 679 187 c 0,67,68
 667 201 667 201 667 219 c 0,69,70
 667 238 667 238 679 251 c 0,71,72
 692 265 692 265 708 265 c 2,73,-1
 791 265 l 2,74,75
 808 265 808 265 821 251 c 0,76,77
 833 237 833 237 833 219 c 0,78,79
 833 200 833 200 821 187 c 0,80,81
 813 180 813 180 805 176 c 1,82,-1
 805 176 l 1,83,84
 814 173 814 173 821 164 c 0,85,86
 833 150 833 150 833 132 c 256,87,88
 833 113 833 113 821 100 c 128,-1,89
 808.866666667 86.9333333333 808.866666667 86.9333333333 793.248888889 86.9333333333 c 0,90,91
 792.133333333 86.9333333333 792.133333333 86.9333333333 791 87 c 2,92,-1
 708 87 l 2,56,57
208 260 m 2,93,94
 190 260 190 260 178 274 c 128,-1,95
 166 288 166 288 166 306 c 0,96,97
 166 325 166 325 178 338 c 0,98,99
 190 352 190 352 208 352 c 2,100,-1
 625 352 l 2,101,102
 642 352 642 352 655 338 c 0,103,104
 667 324 667 324 667 306 c 0,105,106
 667 287 667 287 655 274 c 0,107,108
 642 260 642 260 625 260 c 2,109,-1
 208 260 l 2,93,94
41 347 m 2,110,111
 24 347 24 347 12 360 c 0,112,113
 0 374 0 374 0 392 c 128,-1,114
 0 410 0 410 12 424 c 0,115,116
 20 432 20 432 28 436 c 1,117,-1
 28 436 l 1,118,119
 19 439 19 439 12 447 c 0,120,121
 0 461 0 461 0 479 c 0,122,123
 0 498 0 498 12 512 c 0,124,125
 23.2 525.066666667 23.2 525.066666667 38.7555555556 525.066666667 c 0,126,127
 39.8666666667 525.066666667 39.8666666667 525.066666667 41 525 c 2,128,-1
 125 525 l 2,129,130
 126.133333333 525.066666667 126.133333333 525.066666667 127.244444444 525.066666667 c 0,131,132
 142.8 525.066666667 142.8 525.066666667 154 512 c 0,133,134
 166 498 166 498 166 479 c 128,-1,135
 166 460 166 460 154 447 c 0,136,137
 146 438 146 438 138 436 c 1,138,-1
 138 436 l 1,139,140
 146 432 146 432 154 424 c 0,141,142
 166 410 166 410 166 392 c 0,143,144
 166 373 166 373 154 360 c 0,145,146
 142.8 346.933333333 142.8 346.933333333 127.244444444 346.933333333 c 0,147,148
 126.133333333 346.933333333 126.133333333 346.933333333 125 347 c 2,149,-1
 41 347 l 2,110,111
708 347 m 2,150,151
 691 347 691 347 679 360 c 0,152,153
 667 374 667 374 667 392 c 128,-1,154
 667 410 667 410 679 424 c 0,155,156
 687 432 687 432 695 436 c 1,157,-1
 695 436 l 1,158,159
 686 439 686 439 679 447 c 0,160,161
 667 461 667 461 667 479 c 0,162,163
 667 498 667 498 679 512 c 0,164,165
 691.133333333 525.066666667 691.133333333 525.066666667 705.88 525.066666667 c 0,166,167
 706.933333333 525.066666667 706.933333333 525.066666667 708 525 c 2,168,-1
 791 525 l 2,169,170
 792.133333333 525.066666667 792.133333333 525.066666667 793.248888889 525.066666667 c 0,171,172
 808.866666667 525.066666667 808.866666667 525.066666667 821 512 c 0,173,174
 833 498 833 498 833 479 c 128,-1,175
 833 460 833 460 821 447 c 0,176,177
 813 438 813 438 805 436 c 1,178,-1
 805 436 l 1,179,180
 814 432 814 432 821 424 c 0,181,182
 833 410 833 410 833 392 c 0,183,184
 833 373 833 373 821 360 c 128,-1,185
 808.866666667 346.933333333 808.866666667 346.933333333 793.248888889 346.933333333 c 0,186,187
 792.133333333 346.933333333 792.133333333 346.933333333 791 347 c 2,188,-1
 708 347 l 2,150,151
208 520 m 2,189,190
 190 520 190 520 178 534 c 128,-1,191
 166 548 166 548 166 566 c 128,-1,192
 166 584 166 584 178 598 c 128,-1,193
 190 612 190 612 208 612 c 2,194,-1
 625 612 l 2,195,196
 642 612 642 612 655 598 c 0,197,198
 667 584 667 584 667 566 c 0,199,200
 667 547 667 547 655 534 c 0,201,202
 642 520 642 520 625 520 c 2,203,-1
 208 520 l 2,189,190
EndSplineSet
EndChar

StartChar: nine
Encoding: 57 57 25
Width: 957
VWidth: 750
Flags: W
LayerCount: 2
Fore
SplineSet
208 260 m 2,0,1
 190 260 190 260 178 274 c 128,-1,2
 166 288 166 288 166 306 c 0,3,4
 166 325 166 325 178 338 c 0,5,6
 190 352 190 352 208 352 c 2,7,-1
 458 352 l 2,8,9
 476 352 476 352 488 338 c 128,-1,10
 500 324 500 324 500 306 c 0,11,12
 500 287 500 287 488 274 c 0,13,14
 475 260 475 260 458 260 c 2,15,-1
 208 260 l 2,0,1
41 347 m 2,16,17
 24 347 24 347 12 360 c 0,18,19
 0 374 0 374 0 392 c 128,-1,20
 0 410 0 410 12 424 c 0,21,22
 20 432 20 432 28 436 c 1,23,-1
 28 436 l 1,24,25
 19 439 19 439 12 447 c 0,26,27
 0 461 0 461 0 479 c 0,28,29
 0 498 0 498 12 512 c 0,30,31
 23.2 525.066666667 23.2 525.066666667 38.7555555556 525.066666667 c 0,32,33
 39.8666666667 525.066666667 39.8666666667 525.066666667 41 525 c 2,34,-1
 125 525 l 2,35,36
 126.133333333 525.066666667 126.133333333 525.066666667 127.244444444 525.066666667 c 0,37,38
 142.8 525.066666667 142.8 525.066666667 154 512 c 0,39,40
 166 498 166 498 166 479 c 128,-1,41
 166 460 166 460 154 447 c 0,42,43
 146 438 146 438 138 436 c 1,44,-1
 138 436 l 1,45,46
 146 432 146 432 154 424 c 0,47,48
 166 410 166 410 166 392 c 0,49,50
 166 373 166 373 154 360 c 0,51,52
 142.8 346.933333333 142.8 346.933333333 127.244444444 346.933333333 c 0,53,54
 126.133333333 346.933333333 126.133333333 346.933333333 125 347 c 2,55,-1
 41 347 l 2,16,17
375 0 m 2,56,57
 358 0 358 0 345 14 c 256,58,59
 333 28 333 28 333 46 c 0,60,61
 333 65 333 65 345 78 c 0,62,63
 356.2 91.0666666667 356.2 91.0666666667 372.626666667 91.0666666667 c 0,64,65
 373.8 91.0666666667 373.8 91.0666666667 375 91 c 2,66,-1
 440 91 l 1,67,68
 434 94 434 94 429 100 c 0,69,70
 416 114 416 114 416 132 c 256,71,72
 416 151 416 151 429 164 c 0,73,74
 441 178 441 178 458 178 c 2,75,-1
 524 178 l 1,76,77
 518 181 518 181 512 187 c 0,78,79
 500 201 500 201 500 219 c 0,80,81
 500 238 500 238 512 251 c 0,82,83
 526 265 526 265 542 265 c 2,84,-1
 607 265 l 1,85,86
 602 268 602 268 596 274 c 0,87,88
 583 288 583 288 583 306 c 0,89,90
 584 325 584 325 596 338 c 0,91,92
 608 352 608 352 625 352 c 2,93,-1
 690 352 l 1,94,95
 684 355 684 355 679 360 c 0,96,97
 667 374 667 374 667 392 c 128,-1,98
 667 410 667 410 679 424 c 0,99,100
 687 432 687 432 695 436 c 1,101,-1
 695 436 l 1,102,103
 686 439 686 439 679 447 c 0,104,105
 667 461 667 461 667 479 c 0,106,107
 667 498 667 498 679 512 c 0,108,109
 691.133333333 525.066666667 691.133333333 525.066666667 705.88 525.066666667 c 0,110,111
 706.933333333 525.066666667 706.933333333 525.066666667 708 525 c 2,112,-1
 791 525 l 2,113,114
 792.133333333 525.066666667 792.133333333 525.066666667 793.248888889 525.066666667 c 0,115,116
 808.866666667 525.066666667 808.866666667 525.066666667 821 512 c 0,117,118
 833 498 833 498 833 479 c 128,-1,119
 833 460 833 460 821 447 c 0,120,121
 813 438 813 438 805 436 c 1,122,-1
 805 436 l 1,123,124
 814 432 814 432 821 424 c 0,125,126
 833 410 833 410 833 392 c 0,127,128
 833 373 833 373 821 360 c 128,-1,129
 808.866666667 346.933333333 808.866666667 346.933333333 793.248888889 346.933333333 c 0,130,131
 792.133333333 346.933333333 792.133333333 346.933333333 791 347 c 2,132,-1
 726 347 l 1,133,134
 732 344 732 344 737 338 c 0,135,136
 750 324 750 324 750 306 c 0,137,138
 750 287 750 287 737 274 c 0,139,140
 725 260 725 260 708 260 c 2,141,-1
 643 260 l 1,142,143
 649 257 649 257 655 251 c 0,144,145
 667 237 667 237 667 219 c 0,146,147
 667 200 667 200 655 187 c 0,148,149
 642 173 642 173 625 173 c 2,150,-1
 560 173 l 1,151,152
 566 170 566 170 571 164 c 0,153,154
 583 150 583 150 583 132 c 256,155,156
 583 113 583 113 571 100 c 256,157,158
 560.733333333 86.9333333333 560.733333333 86.9333333333 544.368888889 86.9333333333 c 0,159,160
 543.2 86.9333333333 543.2 86.9333333333 542 87 c 2,161,-1
 476 87 l 1,162,163
 482 84 482 84 488 78 c 0,164,165
 500 64 500 64 500 46 c 128,-1,166
 500 28 500 28 488 14 c 0,167,168
 475 0 475 0 458 0 c 2,169,-1
 375 0 l 2,56,57
208 520 m 2,170,171
 190 520 190 520 178 534 c 128,-1,172
 166 548 166 548 166 566 c 128,-1,173
 166 584 166 584 178 598 c 128,-1,174
 190 612 190 612 208 612 c 2,175,-1
 625 612 l 2,176,177
 642 612 642 612 655 598 c 0,178,179
 667 584 667 584 667 566 c 0,180,181
 667 547 667 547 655 534 c 0,182,183
 642 520 642 520 625 520 c 2,184,-1
 208 520 l 2,170,171
EndSplineSet
EndChar

StartChar: colon
Encoding: 58 58 26
Width: 457
VWidth: 750
Flags: W
LayerCount: 2
Fore
SplineSet
125 0 m 2,0,1
 108 0 108 0 95 14 c 0,2,3
 83 28 83 28 83 46 c 0,4,5
 83 65 83 65 95 78 c 0,6,7
 100 84 100 84 106 87 c 1,8,-1
 41 87 l 2,9,10
 24 87 24 87 12 100 c 256,11,12
 0 114 0 114 0 132 c 256,13,14
 0 151 0 151 12 164 c 256,15,16
 24 178 24 178 41 178 c 2,17,-1
 106 178 l 1,18,19
 100 181 100 181 95 187 c 0,20,21
 83 201 83 201 83 219 c 0,22,23
 83 238 83 238 95 251 c 0,24,25
 108 265 108 265 125 265 c 2,26,-1
 208 265 l 2,27,28
 225 265 225 265 238 251 c 0,29,30
 250 237 250 237 250 219 c 0,31,32
 250 200 250 200 238 187 c 0,33,34
 232 181 232 181 226 178 c 1,35,-1
 292 178 l 2,36,37
 309 178 309 178 321 164 c 0,38,39
 333.071428571 151 333.071428571 151 333.071428571 134.551020408 c 0,40,41
 333.071428571 113.077380952 333.071428571 113.077380952 321 100 c 0,42,43
 309.8 86.9333333333 309.8 86.9333333333 294.244444444 86.9333333333 c 0,44,45
 293.133333333 86.9333333333 293.133333333 86.9333333333 292 87 c 2,46,-1
 226 87 l 1,47,48
 232 84 232 84 238 78 c 0,49,50
 250 64 250 64 250 46 c 128,-1,51
 250 28 250 28 238 14 c 0,52,53
 225 0 225 0 208 0 c 2,54,-1
 125 0 l 2,0,1
125 347 m 2,55,56
 108 347 108 347 95 360 c 0,57,58
 83 374 83 374 83 392 c 128,-1,59
 83 410 83 410 95 424 c 0,60,61
 100 430 100 430 106 434 c 1,62,-1
 41 434 l 2,63,64
 24 434 24 434 12 447 c 0,65,66
 0 461 0 461 0 479 c 0,67,68
 0 498 0 498 12 512 c 0,69,70
 23.2 525.066666667 23.2 525.066666667 38.7555555556 525.066666667 c 0,71,72
 39.8666666667 525.066666667 39.8666666667 525.066666667 41 525 c 2,73,-1
 106 525 l 1,74,75
 100 528 100 528 95 534 c 0,76,77
 83 548 83 548 83 566 c 128,-1,78
 83 584 83 584 95 598 c 0,79,80
 108 612 108 612 125 612 c 2,81,-1
 208 612 l 2,82,83
 225 612 225 612 238 598 c 0,84,85
 250 584 250 584 250 566 c 0,86,87
 250 547 250 547 238 534 c 0,88,89
 232 528 232 528 226 525 c 1,90,-1
 292 525 l 2,91,92
 293.133333333 525.066666667 293.133333333 525.066666667 294.244444444 525.066666667 c 0,93,94
 309.8 525.066666667 309.8 525.066666667 321 512 c 0,95,96
 333.071428571 499 333.071428571 499 333.071428571 481.68877551 c 0,97,98
 333.071428571 460.077380952 333.071428571 460.077380952 321 447 c 0,99,100
 309.8 433.933333333 309.8 433.933333333 294.244444444 433.933333333 c 0,101,102
 293.133333333 433.933333333 293.133333333 433.933333333 292 434 c 2,103,-1
 226 434 l 1,104,105
 232 430 232 430 238 424 c 0,106,107
 250 410 250 410 250 392 c 0,108,109
 250 373 250 373 238 360 c 128,-1,110
 225.866666667 346.933333333 225.866666667 346.933333333 210.248888889 346.933333333 c 0,111,112
 209.133333333 346.933333333 209.133333333 346.933333333 208 347 c 2,113,-1
 125 347 l 2,55,56
EndSplineSet
EndChar

StartChar: semicolon
Encoding: 59 59 27
Width: 457
VWidth: 750
Flags: W
LayerCount: 2
Fore
SplineSet
41 -87 m 2,0,1
 39.8666666667 -87.0666666667 39.8666666667 -87.0666666667 38.7555555556 -87.0666666667 c 0,2,3
 23.2 -87.0666666667 23.2 -87.0666666667 12 -74 c 0,4,5
 0 -60 0 -60 0 -41 c 128,-1,6
 0 -22 0 -22 12 -9 c 128,-1,7
 24 4 24 4 41 4 c 2,8,-1
 106 4 l 1,9,10
 100 8 100 8 95 14 c 0,11,12
 83 28 83 28 83 46 c 0,13,14
 83 65 83 65 95 78 c 0,15,16
 100 84 100 84 106 87 c 1,17,-1
 41 87 l 2,18,19
 24 87 24 87 12 100 c 256,20,21
 0 114 0 114 0 132 c 256,22,23
 0 151 0 151 12 164 c 256,24,25
 24 178 24 178 41 178 c 2,26,-1
 106 178 l 1,27,28
 100 181 100 181 95 187 c 0,29,30
 83 201 83 201 83 219 c 0,31,32
 83 238 83 238 95 251 c 0,33,34
 108 265 108 265 125 265 c 2,35,-1
 208 265 l 2,36,37
 225 265 225 265 238 251 c 0,38,39
 250 237 250 237 250 219 c 0,40,41
 250 200 250 200 238 187 c 0,42,43
 232 181 232 181 226 178 c 1,44,-1
 292 178 l 2,45,46
 309 178 309 178 321 164 c 0,47,48
 333.071428571 151 333.071428571 151 333.071428571 134.551020408 c 0,49,50
 333.071428571 113.077380952 333.071428571 113.077380952 321 100 c 0,51,52
 309.8 86.9333333333 309.8 86.9333333333 294.244444444 86.9333333333 c 0,53,54
 293.133333333 86.9333333333 293.133333333 86.9333333333 292 87 c 2,55,-1
 226 87 l 1,56,57
 232 84 232 84 238 78 c 0,58,59
 250 64 250 64 250 46 c 128,-1,60
 250 28 250 28 238 14 c 0,61,62
 225 0 225 0 208 0 c 2,63,-1
 142 0 l 1,64,65
 148 -3 148 -3 154 -9 c 0,66,67
 166 -23 166 -23 166 -41 c 0,68,69
 166 -60 166 -60 154 -74 c 0,70,71
 142.8 -87.0666666667 142.8 -87.0666666667 127.244444444 -87.0666666667 c 0,72,73
 126.133333333 -87.0666666667 126.133333333 -87.0666666667 125 -87 c 2,74,-1
 41 -87 l 2,0,1
125 347 m 2,75,76
 108 347 108 347 95 360 c 0,77,78
 83 374 83 374 83 392 c 128,-1,79
 83 410 83 410 95 424 c 0,80,81
 100 430 100 430 106 434 c 1,82,-1
 41 434 l 2,83,84
 24 434 24 434 12 447 c 0,85,86
 0 461 0 461 0 479 c 0,87,88
 0 498 0 498 12 512 c 0,89,90
 23.2 525.066666667 23.2 525.066666667 38.7555555556 525.066666667 c 0,91,92
 39.8666666667 525.066666667 39.8666666667 525.066666667 41 525 c 2,93,-1
 106 525 l 1,94,95
 100 528 100 528 95 534 c 0,96,97
 83 548 83 548 83 566 c 128,-1,98
 83 584 83 584 95 598 c 0,99,100
 108 612 108 612 125 612 c 2,101,-1
 208 612 l 2,102,103
 225 612 225 612 238 598 c 0,104,105
 250 584 250 584 250 566 c 0,106,107
 250 547 250 547 238 534 c 0,108,109
 232 528 232 528 226 525 c 1,110,-1
 292 525 l 2,111,112
 293.133333333 525.066666667 293.133333333 525.066666667 294.244444444 525.066666667 c 0,113,114
 309.8 525.066666667 309.8 525.066666667 321 512 c 0,115,116
 333.071428571 499 333.071428571 499 333.071428571 481.68877551 c 0,117,118
 333.071428571 460.077380952 333.071428571 460.077380952 321 447 c 0,119,120
 309.8 433.933333333 309.8 433.933333333 294.244444444 433.933333333 c 0,121,122
 293.133333333 433.933333333 293.133333333 433.933333333 292 434 c 2,123,-1
 226 434 l 1,124,125
 232 430 232 430 238 424 c 0,126,127
 250 410 250 410 250 392 c 0,128,129
 250 373 250 373 238 360 c 128,-1,130
 225.866666667 346.933333333 225.866666667 346.933333333 210.248888889 346.933333333 c 0,131,132
 209.133333333 346.933333333 209.133333333 346.933333333 208 347 c 2,133,-1
 125 347 l 2,75,76
EndSplineSet
EndChar

StartChar: less
Encoding: 60 60 28
Width: 957
VWidth: 750
Flags: W
LayerCount: 2
Fore
SplineSet
542 0 m 2,0,1
 525 0 525 0 512 14 c 0,2,3
 500 28 500 28 500 46 c 0,4,5
 500 65 500 65 512 78 c 0,6,7
 525.066666667 91.0666666667 525.066666667 91.0666666667 539.875555556 91.0666666667 c 0,8,9
 540.933333333 91.0666666667 540.933333333 91.0666666667 542 91 c 2,10,-1
 791 91 l 2,11,12
 808 91 808 91 821 78 c 0,13,14
 833 64 833 64 833 46 c 128,-1,15
 833 28 833 28 821 14 c 0,16,17
 808 0 808 0 791 0 c 2,18,-1
 542 0 l 2,0,1
375 87 m 2,19,20
 358 87 358 87 345 100 c 256,21,22
 333 114 333 114 333 132 c 256,23,24
 333 151 333 151 345 164 c 256,25,26
 357 178 357 178 375 178 c 2,27,-1
 458 178 l 2,28,29
 476 178 476 178 488 164 c 128,-1,30
 500 150 500 150 500 132 c 256,31,32
 500 113 500 113 488 100 c 128,-1,33
 475.866666667 86.9333333333 475.866666667 86.9333333333 460.248888889 86.9333333333 c 0,34,35
 459.133333333 86.9333333333 459.133333333 86.9333333333 458 87 c 2,36,-1
 375 87 l 2,19,20
208 173 m 2,37,38
 190 173 190 173 178 187 c 128,-1,39
 166 201 166 201 166 219 c 0,40,41
 166 238 166 238 178 251 c 256,42,43
 190 265 190 265 208 265 c 2,44,-1
 292 265 l 2,45,46
 309 265 309 265 321 251 c 0,47,48
 333.071428571 238 333.071428571 238 333.071428571 221.551020408 c 0,49,50
 333.071428571 200.077380952 333.071428571 200.077380952 321 187 c 0,51,52
 309 173 309 173 292 173 c 2,53,-1
 208 173 l 2,37,38
41 260 m 2,54,55
 24 260 24 260 12 274 c 128,-1,56
 0 288 0 288 0 306 c 0,57,58
 0 325 0 325 12 338 c 0,59,60
 24 352 24 352 41 352 c 2,61,-1
 125 352 l 2,62,63
 142 352 142 352 154 338 c 128,-1,64
 166 324 166 324 166 306 c 0,65,66
 166 287 166 287 154 274 c 0,67,68
 142 260 142 260 125 260 c 2,69,-1
 41 260 l 2,54,55
208 347 m 2,70,71
 190 347 190 347 178 360 c 0,72,73
 166 374 166 374 166 392 c 128,-1,74
 166 410 166 410 178 424 c 128,-1,75
 190 438 190 438 208 438 c 2,76,-1
 292 438 l 2,77,78
 309 438 309 438 321 424 c 0,79,80
 333.071428571 411 333.071428571 411 333.071428571 394.551020408 c 0,81,82
 333.071428571 373.077380952 333.071428571 373.077380952 321 360 c 0,83,84
 309.8 346.933333333 309.8 346.933333333 294.244444444 346.933333333 c 0,85,86
 293.133333333 346.933333333 293.133333333 346.933333333 292 347 c 2,87,-1
 208 347 l 2,70,71
375 434 m 2,88,89
 358 434 358 434 345 447 c 0,90,91
 333 461 333 461 333 479 c 0,92,93
 333 498 333 498 345 512 c 0,94,95
 356.2 525.066666667 356.2 525.066666667 372.626666667 525.066666667 c 0,96,97
 373.8 525.066666667 373.8 525.066666667 375 525 c 2,98,-1
 458 525 l 2,99,100
 459.2 525.066666667 459.2 525.066666667 460.373333333 525.066666667 c 0,101,102
 476.8 525.066666667 476.8 525.066666667 488 512 c 0,103,104
 500 498 500 498 500 479 c 128,-1,105
 500 460 500 460 488 447 c 128,-1,106
 475.866666667 433.933333333 475.866666667 433.933333333 460.248888889 433.933333333 c 0,107,108
 459.133333333 433.933333333 459.133333333 433.933333333 458 434 c 2,109,-1
 375 434 l 2,88,89
542 520 m 2,110,111
 525 520 525 520 512 534 c 0,112,113
 500 548 500 548 500 566 c 128,-1,114
 500 584 500 584 512 598 c 0,115,116
 526 612 526 612 542 612 c 2,117,-1
 791 612 l 2,118,119
 808 612 808 612 821 598 c 0,120,121
 833 584 833 584 833 566 c 0,122,123
 833 547 833 547 821 534 c 0,124,125
 808 520 808 520 791 520 c 2,126,-1
 542 520 l 2,110,111
EndSplineSet
EndChar

StartChar: equal
Encoding: 61 61 29
Width: 957
VWidth: 750
Flags: W
LayerCount: 2
Fore
SplineSet
41 173 m 2,0,1
 24 173 24 173 12 187 c 128,-1,2
 0 201 0 201 0 219 c 0,3,4
 0 238 0 238 12 251 c 256,5,6
 24 265 24 265 41 265 c 2,7,-1
 791 265 l 2,8,9
 808 265 808 265 821 251 c 0,10,11
 833 237 833 237 833 219 c 0,12,13
 833 200 833 200 821 187 c 0,14,15
 808 173 808 173 791 173 c 2,16,-1
 41 173 l 2,0,1
41 347 m 2,17,18
 24 347 24 347 12 360 c 0,19,20
 0 374 0 374 0 392 c 128,-1,21
 0 410 0 410 12 424 c 128,-1,22
 24 438 24 438 41 438 c 2,23,-1
 791 438 l 2,24,25
 808 438 808 438 821 424 c 0,26,27
 833 410 833 410 833 392 c 0,28,29
 833 373 833 373 821 360 c 128,-1,30
 808.866666667 346.933333333 808.866666667 346.933333333 793.248888889 346.933333333 c 0,31,32
 792.133333333 346.933333333 792.133333333 346.933333333 791 347 c 2,33,-1
 41 347 l 2,17,18
EndSplineSet
EndChar

StartChar: greater
Encoding: 62 62 30
Width: 957
VWidth: 750
Flags: W
LayerCount: 2
Fore
SplineSet
41 0 m 2,0,1
 24 0 24 0 12 14 c 256,2,3
 0 28 0 28 0 46 c 0,4,5
 0 65 0 65 12 78 c 0,6,7
 23.2 91.0666666667 23.2 91.0666666667 38.7555555556 91.0666666667 c 0,8,9
 39.8666666667 91.0666666667 39.8666666667 91.0666666667 41 91 c 2,10,-1
 292 91 l 2,11,12
 309 91 309 91 321 78 c 128,-1,13
 333.071428571 65 333.071428571 65 333.071428571 48.5510204082 c 0,14,15
 333.071428571 28.0833333333 333.071428571 28.0833333333 321 14 c 128,-1,16
 309 0 309 0 292 0 c 2,17,-1
 41 0 l 2,0,1
375 87 m 2,18,19
 358 87 358 87 345 100 c 256,20,21
 333 114 333 114 333 132 c 256,22,23
 333 151 333 151 345 164 c 256,24,25
 357 178 357 178 375 178 c 2,26,-1
 458 178 l 2,27,28
 476 178 476 178 488 164 c 128,-1,29
 500 150 500 150 500 132 c 256,30,31
 500 113 500 113 488 100 c 128,-1,32
 475.866666667 86.9333333333 475.866666667 86.9333333333 460.248888889 86.9333333333 c 0,33,34
 459.133333333 86.9333333333 459.133333333 86.9333333333 458 87 c 2,35,-1
 375 87 l 2,18,19
542 173 m 2,36,37
 525 173 525 173 512 187 c 0,38,39
 500 201 500 201 500 219 c 0,40,41
 500 238 500 238 512 251 c 0,42,43
 526 265 526 265 542 265 c 2,44,-1
 625 265 l 2,45,46
 642 265 642 265 655 251 c 0,47,48
 667 237 667 237 667 219 c 0,49,50
 667 200 667 200 655 187 c 0,51,52
 642 173 642 173 625 173 c 2,53,-1
 542 173 l 2,36,37
708 260 m 2,54,55
 691 260 691 260 679 274 c 128,-1,56
 667 288 667 288 667 306 c 0,57,58
 667 325 667 325 679 338 c 0,59,60
 692 352 692 352 708 352 c 2,61,-1
 791 352 l 2,62,63
 808 352 808 352 821 338 c 0,64,65
 833 324 833 324 833 306 c 0,66,67
 833 287 833 287 821 274 c 0,68,69
 808 260 808 260 791 260 c 2,70,-1
 708 260 l 2,54,55
542 347 m 2,71,72
 525 347 525 347 512 360 c 0,73,74
 500 374 500 374 500 392 c 128,-1,75
 500 410 500 410 512 424 c 0,76,77
 526 438 526 438 542 438 c 2,78,-1
 625 438 l 2,79,80
 642 438 642 438 655 424 c 0,81,82
 667 410 667 410 667 392 c 0,83,84
 667 373 667 373 655 360 c 128,-1,85
 642.866666667 346.933333333 642.866666667 346.933333333 627.248888889 346.933333333 c 0,86,87
 626.133333333 346.933333333 626.133333333 346.933333333 625 347 c 2,88,-1
 542 347 l 2,71,72
375 434 m 2,89,90
 358 434 358 434 345 447 c 0,91,92
 333 461 333 461 333 479 c 0,93,94
 333 498 333 498 345 512 c 0,95,96
 356.2 525.066666667 356.2 525.066666667 372.626666667 525.066666667 c 0,97,98
 373.8 525.066666667 373.8 525.066666667 375 525 c 2,99,-1
 458 525 l 2,100,101
 459.2 525.066666667 459.2 525.066666667 460.373333333 525.066666667 c 0,102,103
 476.8 525.066666667 476.8 525.066666667 488 512 c 0,104,105
 500 498 500 498 500 479 c 128,-1,106
 500 460 500 460 488 447 c 128,-1,107
 475.866666667 433.933333333 475.866666667 433.933333333 460.248888889 433.933333333 c 0,108,109
 459.133333333 433.933333333 459.133333333 433.933333333 458 434 c 2,110,-1
 375 434 l 2,89,90
41 520 m 2,111,112
 24 520 24 520 12 534 c 128,-1,113
 0 548 0 548 0 566 c 128,-1,114
 0 584 0 584 12 598 c 128,-1,115
 24 612 24 612 41 612 c 2,116,-1
 292 612 l 2,117,118
 309 612 309 612 321 598 c 0,119,120
 333.071428571 585 333.071428571 585 333.071428571 568.551020408 c 0,121,122
 333.071428571 547.077380952 333.071428571 547.077380952 321 534 c 0,123,124
 309 520 309 520 292 520 c 2,125,-1
 41 520 l 2,111,112
EndSplineSet
EndChar

StartChar: question
Encoding: 63 63 31
Width: 957
VWidth: 750
Flags: W
LayerCount: 2
Fore
SplineSet
375 0 m 2,0,1
 358 0 358 0 345 14 c 256,2,3
 333 28 333 28 333 46 c 0,4,5
 333 65 333 65 345 78 c 0,6,7
 356.2 91.0666666667 356.2 91.0666666667 372.626666667 91.0666666667 c 0,8,9
 373.8 91.0666666667 373.8 91.0666666667 375 91 c 2,10,-1
 458 91 l 2,11,12
 476 91 476 91 488 78 c 0,13,14
 500 64 500 64 500 46 c 128,-1,15
 500 28 500 28 488 14 c 0,16,17
 475 0 475 0 458 0 c 2,18,-1
 375 0 l 2,0,1
375 173 m 2,19,20
 358 173 358 173 345 187 c 0,21,22
 333 201 333 201 333 219 c 0,23,24
 333 238 333 238 345 251 c 256,25,26
 357 265 357 265 375 265 c 2,27,-1
 458 265 l 2,28,29
 476 265 476 265 488 251 c 128,-1,30
 500 237 500 237 500 219 c 0,31,32
 500 200 500 200 488 187 c 0,33,34
 475 173 475 173 458 173 c 2,35,-1
 375 173 l 2,19,20
542 260 m 2,36,37
 525 260 525 260 512 274 c 0,38,39
 500 288 500 288 500 306 c 0,40,41
 500 325 500 325 512 338 c 0,42,43
 526 352 526 352 542 352 c 2,44,-1
 625 352 l 2,45,46
 642 352 642 352 655 338 c 0,47,48
 667 324 667 324 667 306 c 0,49,50
 667 287 667 287 655 274 c 0,51,52
 642 260 642 260 625 260 c 2,53,-1
 542 260 l 2,36,37
41 434 m 2,54,55
 24 434 24 434 12 447 c 0,56,57
 0 461 0 461 0 479 c 0,58,59
 0 498 0 498 12 512 c 0,60,61
 23.2 525.066666667 23.2 525.066666667 38.7555555556 525.066666667 c 0,62,63
 39.8666666667 525.066666667 39.8666666667 525.066666667 41 525 c 2,64,-1
 125 525 l 2,65,66
 126.133333333 525.066666667 126.133333333 525.066666667 127.244444444 525.066666667 c 0,67,68
 142.8 525.066666667 142.8 525.066666667 154 512 c 0,69,70
 166 498 166 498 166 479 c 128,-1,71
 166 460 166 460 154 447 c 0,72,73
 142.8 433.933333333 142.8 433.933333333 127.244444444 433.933333333 c 0,74,75
 126.133333333 433.933333333 126.133333333 433.933333333 125 434 c 2,76,-1
 41 434 l 2,54,55
708 347 m 2,77,78
 691 347 691 347 679 360 c 0,79,80
 667 374 667 374 667 392 c 128,-1,81
 667 410 667 410 679 424 c 0,82,83
 687 432 687 432 695 436 c 1,84,-1
 695 436 l 1,85,86
 686 439 686 439 679 447 c 0,87,88
 667 461 667 461 667 479 c 0,89,90
 667 498 667 498 679 512 c 0,91,92
 691.133333333 525.066666667 691.133333333 525.066666667 705.88 525.066666667 c 0,93,94
 706.933333333 525.066666667 706.933333333 525.066666667 708 525 c 2,95,-1
 791 525 l 2,96,97
 792.133333333 525.066666667 792.133333333 525.066666667 793.248888889 525.066666667 c 0,98,99
 808.866666667 525.066666667 808.866666667 525.066666667 821 512 c 0,100,101
 833 498 833 498 833 479 c 128,-1,102
 833 460 833 460 821 447 c 0,103,104
 813 438 813 438 805 436 c 1,105,-1
 805 436 l 1,106,107
 814 432 814 432 821 424 c 0,108,109
 833 410 833 410 833 392 c 0,110,111
 833 373 833 373 821 360 c 128,-1,112
 808.866666667 346.933333333 808.866666667 346.933333333 793.248888889 346.933333333 c 0,113,114
 792.133333333 346.933333333 792.133333333 346.933333333 791 347 c 2,115,-1
 708 347 l 2,77,78
208 520 m 2,116,117
 190 520 190 520 178 534 c 128,-1,118
 166 548 166 548 166 566 c 128,-1,119
 166 584 166 584 178 598 c 128,-1,120
 190 612 190 612 208 612 c 2,121,-1
 625 612 l 2,122,123
 642 612 642 612 655 598 c 0,124,125
 667 584 667 584 667 566 c 0,126,127
 667 547 667 547 655 534 c 0,128,129
 642 520 642 520 625 520 c 2,130,-1
 208 520 l 2,116,117
EndSplineSet
EndChar

StartChar: at
Encoding: 64 64 32
Width: 1041
VWidth: 750
Flags: W
LayerCount: 2
Fore
SplineSet
773 178 m 1,0,1
 767 181 767 181 762 187 c 0,2,3
 750 201 750 201 750 219 c 0,4,5
 750 238 750 238 762 251 c 0,6,7
 767 257 767 257 773 260 c 1,8,-1
 476 260 l 1,9,10
 482 257 482 257 488 251 c 0,11,12
 500 237 500 237 500 219 c 0,13,14
 500 200 500 200 488 187 c 0,15,16
 483 181 483 181 476 178 c 1,17,-1
 773 178 l 1,0,1
208 -87 m 2,18,19
 206.8 -87.0666666667 206.8 -87.0666666667 205.626666667 -87.0666666667 c 0,20,21
 189.2 -87.0666666667 189.2 -87.0666666667 178 -74 c 0,22,23
 166 -60 166 -60 166 -41 c 128,-1,24
 166 -22 166 -22 178 -9 c 0,25,26
 183 -3 183 -3 190 0 c 1,27,-1
 125 0 l 2,28,29
 108 0 108 0 95 14 c 0,30,31
 83 28 83 28 83 46 c 0,32,33
 83 65 83 65 95 78 c 0,34,35
 100 84 100 84 106 87 c 1,36,-1
 41 87 l 2,37,38
 24 87 24 87 12 100 c 256,39,40
 0 114 0 114 0 132 c 256,41,42
 0 151 0 151 12 164 c 0,43,44
 20 172 20 172 28 176 c 1,45,-1
 28 176 l 1,46,47
 19 179 19 179 12 187 c 0,48,49
 0 201 0 201 0 219 c 0,50,51
 0 238 0 238 12 251 c 0,52,53
 20 258 20 258 28 262 c 1,54,-1
 28 262 l 1,55,56
 19 265 19 265 12 274 c 0,57,58
 0 288 0 288 0 306 c 0,59,60
 0 325 0 325 12 338 c 0,61,62
 20 346 20 346 28 350 c 1,63,-1
 28 350 l 1,64,65
 19 353 19 353 12 360 c 0,66,67
 0 374 0 374 0 392 c 128,-1,68
 0 410 0 410 12 424 c 128,-1,69
 24 438 24 438 41 438 c 2,70,-1
 106 438 l 1,71,72
 100 441 100 441 95 447 c 0,73,74
 83 461 83 461 83 479 c 0,75,76
 83 498 83 498 95 512 c 0,77,78
 107.133333333 525.066666667 107.133333333 525.066666667 122.751111111 525.066666667 c 0,79,80
 123.866666667 525.066666667 123.866666667 525.066666667 125 525 c 2,81,-1
 190 525 l 1,82,83
 184 528 184 528 178 534 c 0,84,85
 166 548 166 548 166 566 c 128,-1,86
 166 584 166 584 178 598 c 128,-1,87
 190 612 190 612 208 612 c 2,88,-1
 708 612 l 2,89,90
 725 612 725 612 737 598 c 0,91,92
 750 584 750 584 750 566 c 0,93,94
 750 547 750 547 737 534 c 0,95,96
 732 528 732 528 726 525 c 1,97,-1
 791 525 l 2,98,99
 792.133333333 525.066666667 792.133333333 525.066666667 793.248888889 525.066666667 c 0,100,101
 808.866666667 525.066666667 808.866666667 525.066666667 821 512 c 0,102,103
 833 498 833 498 833 479 c 128,-1,104
 833 460 833 460 821 447 c 0,105,106
 816 441 816 441 810 438 c 1,107,-1
 875 438 l 2,108,109
 892 438 892 438 904 424 c 128,-1,110
 916 410 916 410 916 392 c 0,111,112
 916 373 916 373 904 360 c 0,113,114
 896 352 896 352 888 350 c 1,115,-1
 888 350 l 1,116,117
 896 347 896 347 904 338 c 0,118,119
 916 324 916 324 916 306 c 0,120,121
 916 287 916 287 904 274 c 0,122,123
 896 266 896 266 888 262 c 1,124,-1
 888 262 l 1,125,126
 896 259 896 259 904 251 c 0,127,128
 916 237 916 237 916 219 c 0,129,130
 916 200 916 200 904 187 c 0,131,132
 896 180 896 180 888 176 c 1,133,-1
 888 176 l 1,134,135
 896 173 896 173 904 164 c 0,136,137
 916 150 916 150 916 132 c 256,138,139
 916 113 916 113 904 100 c 0,140,141
 892.8 86.9333333333 892.8 86.9333333333 877.244444444 86.9333333333 c 0,142,143
 876.133333333 86.9333333333 876.133333333 86.9333333333 875 87 c 2,144,-1
 458 87 l 2,145,146
 441 87 441 87 429 100 c 0,147,148
 416 114 416 114 416 132 c 256,149,150
 416 151 416 151 429 164 c 0,151,152
 434 170 434 170 440 173 c 1,153,-1
 375 173 l 2,154,155
 358 173 358 173 345 187 c 0,156,157
 333 201 333 201 333 219 c 0,158,159
 333 238 333 238 345 251 c 256,160,161
 357 265 357 265 375 265 c 2,162,-1
 440 265 l 1,163,164
 434 268 434 268 429 274 c 0,165,166
 416 288 416 288 416 306 c 0,167,168
 416 325 416 325 429 338 c 0,169,170
 441 352 441 352 458 352 c 2,171,-1
 773 352 l 1,172,173
 767 355 767 355 762 360 c 0,174,175
 750 374 750 374 750 392 c 128,-1,176
 750 410 750 410 762 424 c 0,177,178
 767 430 767 430 773 434 c 1,179,-1
 708 434 l 2,180,181
 691 434 691 434 679 447 c 0,182,183
 667 461 667 461 667 479 c 0,184,185
 667 498 667 498 679 512 c 0,186,187
 684 518 684 518 690 520 c 1,188,-1
 226 520 l 1,189,190
 232 518 232 518 238 512 c 0,191,192
 250 498 250 498 250 479 c 128,-1,193
 250 460 250 460 238 447 c 128,-1,194
 225.866666667 433.933333333 225.866666667 433.933333333 210.248888889 433.933333333 c 0,195,196
 209.133333333 433.933333333 209.133333333 433.933333333 208 434 c 2,197,-1
 142 434 l 1,198,199
 148 430 148 430 154 424 c 0,200,201
 166 410 166 410 166 392 c 0,202,203
 166 373 166 373 154 360 c 0,204,205
 146 352 146 352 138 350 c 1,206,-1
 138 350 l 1,207,208
 146 347 146 347 154 338 c 0,209,210
 166 324 166 324 166 306 c 0,211,212
 166 287 166 287 154 274 c 0,213,214
 146 266 146 266 138 262 c 1,215,-1
 138 262 l 1,216,217
 146 259 146 259 154 251 c 0,218,219
 166 237 166 237 166 219 c 0,220,221
 166 200 166 200 154 187 c 0,222,223
 146 180 146 180 138 176 c 1,224,-1
 138 176 l 1,225,226
 146 173 146 173 154 164 c 0,227,228
 166 150 166 150 166 132 c 256,229,230
 166 113 166 113 154 100 c 0,231,232
 148 94 148 94 142 91 c 1,233,-1
 208 91 l 2,234,235
 225 91 225 91 238 78 c 0,236,237
 250 64 250 64 250 46 c 128,-1,238
 250 28 250 28 238 14 c 0,239,240
 232 8 232 8 226 4 c 1,241,-1
 708 4 l 2,242,243
 725 4 725 4 737 -9 c 0,244,245
 750 -23 750 -23 750 -41 c 0,246,247
 750 -60 750 -60 737 -74 c 0,248,249
 725.8 -87.0666666667 725.8 -87.0666666667 710.244444444 -87.0666666667 c 0,250,251
 709.133333333 -87.0666666667 709.133333333 -87.0666666667 708 -87 c 2,252,-1
 208 -87 l 2,18,19
EndSplineSet
EndChar

StartChar: A
Encoding: 65 65 33
Width: 1291
VWidth: 750
Flags: W
LayerCount: 2
Fore
SplineSet
773 265 m 1,0,1
 767 268 767 268 762 274 c 0,2,3
 750 288 750 288 750 306 c 0,4,5
 750 325 750 325 762 338 c 0,6,7
 767 344 767 344 773 347 c 1,8,-1
 708 347 l 2,9,10
 691 347 691 347 679 360 c 0,11,12
 667 374 667 374 667 392 c 128,-1,13
 667 410 667 410 679 424 c 0,14,15
 684 430 684 430 690 434 c 1,16,-1
 476 434 l 1,17,18
 482 430 482 430 488 424 c 0,19,20
 500 410 500 410 500 392 c 0,21,22
 500 373 500 373 488 360 c 128,-1,23
 475.866666667 346.933333333 475.866666667 346.933333333 460.248888889 346.933333333 c 0,24,25
 459.133333333 346.933333333 459.133333333 346.933333333 458 347 c 2,26,-1
 393 347 l 1,27,28
 399 344 399 344 404 338 c 0,29,30
 416 324 416 324 416 306 c 0,31,32
 416 287 416 287 404 274 c 0,33,34
 399 268 399 268 393 265 c 1,35,-1
 773 265 l 1,0,1
41 0 m 2,36,37
 24 0 24 0 12 14 c 256,38,39
 0 28 0 28 0 46 c 0,40,41
 0 65 0 65 12 78 c 0,42,43
 23.2 91.0666666667 23.2 91.0666666667 38.7555555556 91.0666666667 c 0,44,45
 39.8666666667 91.0666666667 39.8666666667 91.0666666667 41 91 c 2,46,-1
 190 91 l 1,47,48
 184 94 184 94 178 100 c 0,49,50
 166 114 166 114 166 132 c 256,51,52
 166 151 166 151 178 164 c 0,53,54
 186 172 186 172 195 176 c 1,55,-1
 195 176 l 1,56,57
 186 179 186 179 178 187 c 0,58,59
 166 201 166 201 166 219 c 0,60,61
 166 238 166 238 178 251 c 256,62,63
 190 265 190 265 208 265 c 2,64,-1
 274 265 l 1,65,66
 268 268 268 268 262 274 c 0,67,68
 250 288 250 288 250 306 c 0,69,70
 250 325 250 325 262 338 c 0,71,72
 275 352 275 352 292 352 c 2,73,-1
 357 352 l 1,74,75
 351 355 351 355 345 360 c 0,76,77
 333 374 333 374 333 392 c 128,-1,78
 333 410 333 410 345 424 c 128,-1,79
 357 438 357 438 375 438 c 2,80,-1
 440 438 l 1,81,82
 434 441 434 441 429 447 c 0,83,84
 416 461 416 461 416 479 c 0,85,86
 416 498 416 498 429 512 c 0,87,88
 440.2 525.066666667 440.2 525.066666667 455.755555556 525.066666667 c 0,89,90
 456.866666667 525.066666667 456.866666667 525.066666667 458 525 c 2,91,-1
 524 525 l 1,92,93
 518 528 518 528 512 534 c 0,94,95
 500 548 500 548 500 566 c 128,-1,96
 500 584 500 584 512 598 c 0,97,98
 526 612 526 612 542 612 c 2,99,-1
 625 612 l 2,100,101
 642 612 642 612 655 598 c 0,102,103
 667 584 667 584 667 566 c 0,104,105
 667 547 667 547 655 534 c 0,106,107
 650 528 650 528 643 525 c 1,108,-1
 708 525 l 2,109,110
 709.133333333 525.066666667 709.133333333 525.066666667 710.244444444 525.066666667 c 0,111,112
 725.8 525.066666667 725.8 525.066666667 737 512 c 0,113,114
 750 498 750 498 750 479 c 128,-1,115
 750 460 750 460 737 447 c 0,116,117
 732 441 732 441 726 438 c 1,118,-1
 791 438 l 2,119,120
 808 438 808 438 821 424 c 0,121,122
 833 410 833 410 833 392 c 0,123,124
 833 373 833 373 821 360 c 0,125,126
 816 354 816 354 810 352 c 1,127,-1
 875 352 l 2,128,129
 892 352 892 352 904 338 c 128,-1,130
 916 324 916 324 916 306 c 0,131,132
 916 287 916 287 904 274 c 0,133,134
 898 268 898 268 892 265 c 1,135,-1
 958 265 l 2,136,137
 975 265 975 265 988 251 c 0,138,139
 1000 237 1000 237 1000 219 c 0,140,141
 1000 200 1000 200 988 187 c 0,142,143
 980 180 980 180 971 176 c 1,144,-1
 971 176 l 1,145,146
 980 173 980 173 988 164 c 0,147,148
 1000 150 1000 150 1000 132 c 256,149,150
 1000 113 1000 113 988 100 c 0,151,152
 982 94 982 94 976 91 c 1,153,-1
 1125 91 l 2,154,155
 1142 91 1142 91 1154 78 c 0,156,157
 1166 64 1166 64 1166 46 c 128,-1,158
 1166 28 1166 28 1154 14 c 256,159,160
 1142 0 1142 0 1125 0 c 2,161,-1
 708 0 l 2,162,163
 691 0 691 0 679 14 c 128,-1,164
 667 28 667 28 667 46 c 0,165,166
 667 65 667 65 679 78 c 128,-1,167
 691.133333333 91.0666666667 691.133333333 91.0666666667 705.88 91.0666666667 c 0,168,169
 706.933333333 91.0666666667 706.933333333 91.0666666667 708 91 c 2,170,-1
 856 91 l 1,171,172
 850 94 850 94 845 100 c 0,173,174
 833 114 833 114 833 132 c 256,175,176
 833 151 833 151 845 164 c 0,177,178
 850 170 850 170 856 173 c 1,179,-1
 310 173 l 1,180,181
 316 170 316 170 321 164 c 0,182,183
 333.071428571 151 333.071428571 151 333.071428571 134.551020408 c 0,184,185
 333.071428571 113.077380952 333.071428571 113.077380952 321 100 c 0,186,187
 316 94 316 94 310 91 c 1,188,-1
 458 91 l 2,189,190
 476 91 476 91 488 78 c 0,191,192
 500 64 500 64 500 46 c 128,-1,193
 500 28 500 28 488 14 c 0,194,195
 475 0 475 0 458 0 c 2,196,-1
 41 0 l 2,36,37
EndSplineSet
EndChar

StartChar: B
Encoding: 66 66 34
Width: 1207
VWidth: 750
Flags: W
LayerCount: 2
Fore
SplineSet
940 91 m 1,0,1
 934 94 934 94 928 100 c 0,2,3
 916 114 916 114 916 132 c 256,4,5
 916 151 916 151 928 164 c 0,6,7
 936 172 936 172 945 176 c 1,8,-1
 945 176 l 1,9,10
 936 179 936 179 928 187 c 0,11,12
 916 201 916 201 916 219 c 0,13,14
 916 238 916 238 928 251 c 0,15,16
 933 257 933 257 940 260 c 1,17,-1
 310 260 l 1,18,19
 316 257 316 257 321 251 c 0,20,21
 333.071428571 238 333.071428571 238 333.071428571 221.551020408 c 0,22,23
 333.071428571 200.077380952 333.071428571 200.077380952 321 187 c 0,24,25
 314 180 314 180 304 176 c 1,26,-1
 304 176 l 1,27,28
 313 173 313 173 321 164 c 0,29,30
 333.071428571 151 333.071428571 151 333.071428571 134.551020408 c 0,31,32
 333.071428571 113.077380952 333.071428571 113.077380952 321 100 c 0,33,34
 316 94 316 94 310 91 c 1,35,-1
 940 91 l 1,0,1
940 352 m 1,36,37
 934 355 934 355 928 360 c 0,38,39
 916 374 916 374 916 392 c 128,-1,40
 916 410 916 410 928 424 c 0,41,42
 936 432 936 432 945 436 c 1,43,-1
 945 436 l 1,44,45
 936 439 936 439 928 447 c 0,46,47
 916 461 916 461 916 479 c 0,48,49
 916 498 916 498 928 512 c 0,50,51
 933 518 933 518 940 520 c 1,52,-1
 310 520 l 1,53,54
 316 518 316 518 321 512 c 0,55,56
 333.071428571 499 333.071428571 499 333.071428571 481.68877551 c 0,57,58
 333.071428571 460.077380952 333.071428571 460.077380952 321 447 c 0,59,60
 314 438 314 438 304 436 c 1,61,-1
 304 436 l 1,62,63
 313 432 313 432 321 424 c 0,64,65
 333.071428571 411 333.071428571 411 333.071428571 394.551020408 c 0,66,67
 333.071428571 373.077380952 333.071428571 373.077380952 321 360 c 0,68,69
 316 354 316 354 310 352 c 1,70,-1
 940 352 l 1,36,37
41 0 m 2,71,72
 24 0 24 0 12 14 c 256,73,74
 0 28 0 28 0 46 c 0,75,76
 0 65 0 65 12 78 c 0,77,78
 23.2 91.0666666667 23.2 91.0666666667 38.7555555556 91.0666666667 c 0,79,80
 39.8666666667 91.0666666667 39.8666666667 91.0666666667 41 91 c 2,81,-1
 190 91 l 1,82,83
 184 94 184 94 178 100 c 0,84,85
 166 114 166 114 166 132 c 256,86,87
 166 151 166 151 178 164 c 0,88,89
 186 172 186 172 195 176 c 1,90,-1
 195 176 l 1,91,92
 186 179 186 179 178 187 c 0,93,94
 166 201 166 201 166 219 c 0,95,96
 166 238 166 238 178 251 c 0,97,98
 186 258 186 258 195 262 c 1,99,-1
 195 262 l 1,100,101
 186 265 186 265 178 274 c 0,102,103
 166 288 166 288 166 306 c 0,104,105
 166 325 166 325 178 338 c 0,106,107
 186 346 186 346 195 350 c 1,108,-1
 195 350 l 1,109,110
 186 353 186 353 178 360 c 0,111,112
 166 374 166 374 166 392 c 128,-1,113
 166 410 166 410 178 424 c 0,114,115
 186 432 186 432 195 436 c 1,116,-1
 195 436 l 1,117,118
 186 439 186 439 178 447 c 0,119,120
 166 461 166 461 166 479 c 0,121,122
 166 498 166 498 178 512 c 0,123,124
 183 518 183 518 190 520 c 1,125,-1
 41 520 l 2,126,127
 24 520 24 520 12 534 c 128,-1,128
 0 548 0 548 0 566 c 128,-1,129
 0 584 0 584 12 598 c 128,-1,130
 24 612 24 612 41 612 c 2,131,-1
 958 612 l 2,132,133
 975 612 975 612 988 598 c 0,134,135
 1000 584 1000 584 1000 566 c 0,136,137
 1000 547 1000 547 988 534 c 0,138,139
 982 528 982 528 976 525 c 1,140,-1
 1042 525 l 2,141,142
 1043.13333333 525.066666667 1043.13333333 525.066666667 1044.24444444 525.066666667 c 0,143,144
 1059.8 525.066666667 1059.8 525.066666667 1071 512 c 0,145,146
 1083.07142857 499 1083.07142857 499 1083.07142857 481.68877551 c 0,147,148
 1083.07142857 460.077380952 1083.07142857 460.077380952 1071 447 c 0,149,150
 1064 438 1064 438 1054 436 c 1,151,-1
 1054 436 l 1,152,153
 1063 432 1063 432 1071 424 c 0,154,155
 1083.07142857 411 1083.07142857 411 1083.07142857 394.551020408 c 0,156,157
 1083.07142857 373.077380952 1083.07142857 373.077380952 1071 360 c 0,158,159
 1059.8 346.933333333 1059.8 346.933333333 1044.24444444 346.933333333 c 0,160,161
 1043.13333333 346.933333333 1043.13333333 346.933333333 1042 347 c 2,162,-1
 976 347 l 1,163,164
 982 344 982 344 988 338 c 0,165,166
 1000 324 1000 324 1000 306 c 0,167,168
 1000 287 1000 287 988 274 c 0,169,170
 982 268 982 268 976 265 c 1,171,-1
 1042 265 l 2,172,173
 1059 265 1059 265 1071 251 c 0,174,175
 1083.07142857 238 1083.07142857 238 1083.07142857 221.551020408 c 0,176,177
 1083.07142857 200.077380952 1083.07142857 200.077380952 1071 187 c 0,178,179
 1064 180 1064 180 1054 176 c 1,180,-1
 1054 176 l 1,181,182
 1063 173 1063 173 1071 164 c 0,183,184
 1083.07142857 151 1083.07142857 151 1083.07142857 134.551020408 c 0,185,186
 1083.07142857 113.077380952 1083.07142857 113.077380952 1071 100 c 0,187,188
 1059.8 86.9333333333 1059.8 86.9333333333 1044.24444444 86.9333333333 c 0,189,190
 1043.13333333 86.9333333333 1043.13333333 86.9333333333 1042 87 c 2,191,-1
 976 87 l 1,192,193
 982 84 982 84 988 78 c 0,194,195
 1000 64 1000 64 1000 46 c 128,-1,196
 1000 28 1000 28 988 14 c 0,197,198
 975 0 975 0 958 0 c 2,199,-1
 41 0 l 2,71,72
EndSplineSet
EndChar

StartChar: C
Encoding: 67 67 35
Width: 1041
VWidth: 750
Flags: W
LayerCount: 2
Fore
SplineSet
208 0 m 2,0,1
 190 0 190 0 178 14 c 256,2,3
 166 28 166 28 166 46 c 0,4,5
 166 65 166 65 178 78 c 0,6,7
 183 84 183 84 190 87 c 1,8,-1
 125 87 l 2,9,10
 108 87 108 87 95 100 c 0,11,12
 83 114 83 114 83 132 c 256,13,14
 83 151 83 151 95 164 c 0,15,16
 100 170 100 170 106 173 c 1,17,-1
 41 173 l 2,18,19
 24 173 24 173 12 187 c 128,-1,20
 0 201 0 201 0 219 c 0,21,22
 0 238 0 238 12 251 c 0,23,24
 20 258 20 258 28 262 c 1,25,-1
 28 262 l 1,26,27
 19 265 19 265 12 274 c 0,28,29
 0 288 0 288 0 306 c 0,30,31
 0 325 0 325 12 338 c 0,32,33
 20 346 20 346 28 350 c 1,34,-1
 28 350 l 1,35,36
 19 353 19 353 12 360 c 0,37,38
 0 374 0 374 0 392 c 128,-1,39
 0 410 0 410 12 424 c 128,-1,40
 24 438 24 438 41 438 c 2,41,-1
 106 438 l 1,42,43
 100 441 100 441 95 447 c 0,44,45
 83 461 83 461 83 479 c 0,46,47
 83 498 83 498 95 512 c 0,48,49
 107.133333333 525.066666667 107.133333333 525.066666667 122.751111111 525.066666667 c 0,50,51
 123.866666667 525.066666667 123.866666667 525.066666667 125 525 c 2,52,-1
 190 525 l 1,53,54
 184 528 184 528 178 534 c 0,55,56
 166 548 166 548 166 566 c 128,-1,57
 166 584 166 584 178 598 c 128,-1,58
 190 612 190 612 208 612 c 2,59,-1
 791 612 l 2,60,61
 808 612 808 612 821 598 c 0,62,63
 833 584 833 584 833 566 c 0,64,65
 833 547 833 547 821 534 c 0,66,67
 816 528 816 528 810 525 c 1,68,-1
 875 525 l 2,69,70
 876.133333333 525.066666667 876.133333333 525.066666667 877.244444444 525.066666667 c 0,71,72
 892.8 525.066666667 892.8 525.066666667 904 512 c 0,73,74
 916 498 916 498 916 479 c 128,-1,75
 916 460 916 460 904 447 c 0,76,77
 892.8 433.933333333 892.8 433.933333333 877.244444444 433.933333333 c 0,78,79
 876.133333333 433.933333333 876.133333333 433.933333333 875 434 c 2,80,-1
 791 434 l 2,81,82
 774 434 774 434 762 447 c 0,83,84
 750 461 750 461 750 479 c 0,85,86
 750 498 750 498 762 512 c 0,87,88
 767 518 767 518 773 520 c 1,89,-1
 226 520 l 1,90,91
 232 518 232 518 238 512 c 0,92,93
 250 498 250 498 250 479 c 128,-1,94
 250 460 250 460 238 447 c 128,-1,95
 225.866666667 433.933333333 225.866666667 433.933333333 210.248888889 433.933333333 c 0,96,97
 209.133333333 433.933333333 209.133333333 433.933333333 208 434 c 2,98,-1
 142 434 l 1,99,100
 148 430 148 430 154 424 c 0,101,102
 166 410 166 410 166 392 c 0,103,104
 166 373 166 373 154 360 c 0,105,106
 146 352 146 352 138 350 c 1,107,-1
 138 350 l 1,108,109
 146 347 146 347 154 338 c 0,110,111
 166 324 166 324 166 306 c 0,112,113
 166 287 166 287 154 274 c 0,114,115
 146 266 146 266 138 262 c 1,116,-1
 138 262 l 1,117,118
 146 259 146 259 154 251 c 0,119,120
 166 237 166 237 166 219 c 0,121,122
 166 200 166 200 154 187 c 0,123,124
 148 181 148 181 142 178 c 1,125,-1
 208 178 l 2,126,127
 225 178 225 178 238 164 c 0,128,129
 250 150 250 150 250 132 c 256,130,131
 250 113 250 113 238 100 c 0,132,133
 232 94 232 94 226 91 c 1,134,-1
 773 91 l 1,135,136
 767 94 767 94 762 100 c 0,137,138
 750 114 750 114 750 132 c 256,139,140
 750 151 750 151 762 164 c 256,141,142
 774 178 774 178 791 178 c 2,143,-1
 875 178 l 2,144,145
 892 178 892 178 904 164 c 128,-1,146
 916 150 916 150 916 132 c 256,147,148
 916 113 916 113 904 100 c 0,149,150
 892.8 86.9333333333 892.8 86.9333333333 877.244444444 86.9333333333 c 0,151,152
 876.133333333 86.9333333333 876.133333333 86.9333333333 875 87 c 2,153,-1
 810 87 l 1,154,155
 816 84 816 84 821 78 c 0,156,157
 833 64 833 64 833 46 c 128,-1,158
 833 28 833 28 821 14 c 0,159,160
 808 0 808 0 791 0 c 2,161,-1
 208 0 l 2,0,1
EndSplineSet
EndChar

StartChar: D
Encoding: 68 68 36
Width: 1207
VWidth: 750
Flags: W
LayerCount: 2
Fore
SplineSet
856 91 m 1,0,1
 850 94 850 94 845 100 c 0,2,3
 833 114 833 114 833 132 c 256,4,5
 833 151 833 151 845 164 c 0,6,7
 858 178 858 178 875 178 c 2,8,-1
 940 178 l 1,9,10
 934 181 934 181 928 187 c 0,11,12
 916 201 916 201 916 219 c 0,13,14
 916 238 916 238 928 251 c 0,15,16
 936 258 936 258 945 262 c 1,17,-1
 945 262 l 1,18,19
 936 265 936 265 928 274 c 0,20,21
 916 288 916 288 916 306 c 0,22,23
 916 325 916 325 928 338 c 0,24,25
 936 346 936 346 945 350 c 1,26,-1
 945 350 l 1,27,28
 936 353 936 353 928 360 c 0,29,30
 916 374 916 374 916 392 c 128,-1,31
 916 410 916 410 928 424 c 0,32,33
 933 430 933 430 940 434 c 1,34,-1
 875 434 l 2,35,36
 858 434 858 434 845 447 c 0,37,38
 833 461 833 461 833 479 c 0,39,40
 833 498 833 498 845 512 c 0,41,42
 850 518 850 518 856 520 c 1,43,-1
 310 520 l 1,44,45
 316 518 316 518 321 512 c 0,46,47
 333.071428571 499 333.071428571 499 333.071428571 481.68877551 c 0,48,49
 333.071428571 460.077380952 333.071428571 460.077380952 321 447 c 0,50,51
 314 438 314 438 304 436 c 1,52,-1
 304 436 l 1,53,54
 313 432 313 432 321 424 c 0,55,56
 333.071428571 411 333.071428571 411 333.071428571 394.551020408 c 0,57,58
 333.071428571 373.077380952 333.071428571 373.077380952 321 360 c 0,59,60
 314 352 314 352 304 350 c 1,61,-1
 304 350 l 1,62,63
 313 347 313 347 321 338 c 0,64,65
 333.071428571 325 333.071428571 325 333.071428571 308.551020408 c 0,66,67
 333.071428571 287.077380952 333.071428571 287.077380952 321 274 c 0,68,69
 314 266 314 266 304 262 c 1,70,-1
 304 262 l 1,71,72
 313 259 313 259 321 251 c 0,73,74
 333.071428571 238 333.071428571 238 333.071428571 221.551020408 c 0,75,76
 333.071428571 200.077380952 333.071428571 200.077380952 321 187 c 0,77,78
 314 180 314 180 304 176 c 1,79,-1
 304 176 l 1,80,81
 313 173 313 173 321 164 c 0,82,83
 333.071428571 151 333.071428571 151 333.071428571 134.551020408 c 0,84,85
 333.071428571 113.077380952 333.071428571 113.077380952 321 100 c 0,86,87
 316 94 316 94 310 91 c 1,88,-1
 856 91 l 1,0,1
41 0 m 2,89,90
 24 0 24 0 12 14 c 256,91,92
 0 28 0 28 0 46 c 0,93,94
 0 65 0 65 12 78 c 0,95,96
 23.2 91.0666666667 23.2 91.0666666667 38.7555555556 91.0666666667 c 0,97,98
 39.8666666667 91.0666666667 39.8666666667 91.0666666667 41 91 c 2,99,-1
 190 91 l 1,100,101
 184 94 184 94 178 100 c 0,102,103
 166 114 166 114 166 132 c 256,104,105
 166 151 166 151 178 164 c 0,106,107
 186 172 186 172 195 176 c 1,108,-1
 195 176 l 1,109,110
 186 179 186 179 178 187 c 0,111,112
 166 201 166 201 166 219 c 0,113,114
 166 238 166 238 178 251 c 0,115,116
 186 258 186 258 195 262 c 1,117,-1
 195 262 l 1,118,119
 186 265 186 265 178 274 c 0,120,121
 166 288 166 288 166 306 c 0,122,123
 166 325 166 325 178 338 c 0,124,125
 186 346 186 346 195 350 c 1,126,-1
 195 350 l 1,127,128
 186 353 186 353 178 360 c 0,129,130
 166 374 166 374 166 392 c 128,-1,131
 166 410 166 410 178 424 c 0,132,133
 186 432 186 432 195 436 c 1,134,-1
 195 436 l 1,135,136
 186 439 186 439 178 447 c 0,137,138
 166 461 166 461 166 479 c 0,139,140
 166 498 166 498 178 512 c 0,141,142
 183 518 183 518 190 520 c 1,143,-1
 41 520 l 2,144,145
 24 520 24 520 12 534 c 128,-1,146
 0 548 0 548 0 566 c 128,-1,147
 0 584 0 584 12 598 c 128,-1,148
 24 612 24 612 41 612 c 2,149,-1
 875 612 l 2,150,151
 892 612 892 612 904 598 c 128,-1,152
 916 584 916 584 916 566 c 0,153,154
 916 547 916 547 904 534 c 0,155,156
 898 528 898 528 892 525 c 1,157,-1
 958 525 l 2,158,159
 959.133333333 525.066666667 959.133333333 525.066666667 960.248888889 525.066666667 c 0,160,161
 975.866666667 525.066666667 975.866666667 525.066666667 988 512 c 0,162,163
 1000 498 1000 498 1000 479 c 128,-1,164
 1000 460 1000 460 988 447 c 0,165,166
 982 441 982 441 976 438 c 1,167,-1
 1042 438 l 2,168,169
 1059 438 1059 438 1071 424 c 0,170,171
 1083.07142857 411 1083.07142857 411 1083.07142857 394.551020408 c 0,172,173
 1083.07142857 373.077380952 1083.07142857 373.077380952 1071 360 c 0,174,175
 1064 352 1064 352 1054 350 c 1,176,-1
 1054 350 l 1,177,178
 1063 347 1063 347 1071 338 c 0,179,180
 1083.07142857 325 1083.07142857 325 1083.07142857 308.551020408 c 0,181,182
 1083.07142857 287.077380952 1083.07142857 287.077380952 1071 274 c 0,183,184
 1064 266 1064 266 1054 262 c 1,185,-1
 1054 262 l 1,186,187
 1063 259 1063 259 1071 251 c 0,188,189
 1083.07142857 238 1083.07142857 238 1083.07142857 221.551020408 c 0,190,191
 1083.07142857 200.077380952 1083.07142857 200.077380952 1071 187 c 0,192,193
 1059 173 1059 173 1042 173 c 2,194,-1
 976 173 l 1,195,196
 982 170 982 170 988 164 c 0,197,198
 1000 150 1000 150 1000 132 c 256,199,200
 1000 113 1000 113 988 100 c 128,-1,201
 975.866666667 86.9333333333 975.866666667 86.9333333333 960.248888889 86.9333333333 c 0,202,203
 959.133333333 86.9333333333 959.133333333 86.9333333333 958 87 c 2,204,-1
 892 87 l 1,205,206
 898 84 898 84 904 78 c 0,207,208
 916 64 916 64 916 46 c 128,-1,209
 916 28 916 28 904 14 c 128,-1,210
 892 0 892 0 875 0 c 2,211,-1
 41 0 l 2,89,90
EndSplineSet
EndChar

StartChar: E
Encoding: 69 69 37
Width: 1125
VWidth: 750
Flags: W
LayerCount: 2
Fore
SplineSet
41 0 m 2,0,1
 24 0 24 0 12 14 c 256,2,3
 0 28 0 28 0 46 c 0,4,5
 0 65 0 65 12 78 c 0,6,7
 23.2 91.0666666667 23.2 91.0666666667 38.7555555556 91.0666666667 c 0,8,9
 39.8666666667 91.0666666667 39.8666666667 91.0666666667 41 91 c 2,10,-1
 190 91 l 1,11,12
 184 94 184 94 178 100 c 0,13,14
 166 114 166 114 166 132 c 256,15,16
 166 151 166 151 178 164 c 0,17,18
 186 172 186 172 195 176 c 1,19,-1
 195 176 l 1,20,21
 186 179 186 179 178 187 c 0,22,23
 166 201 166 201 166 219 c 0,24,25
 166 238 166 238 178 251 c 0,26,27
 186 258 186 258 195 262 c 1,28,-1
 195 262 l 1,29,30
 186 265 186 265 178 274 c 0,31,32
 166 288 166 288 166 306 c 0,33,34
 166 325 166 325 178 338 c 0,35,36
 186 346 186 346 195 350 c 1,37,-1
 195 350 l 1,38,39
 186 353 186 353 178 360 c 0,40,41
 166 374 166 374 166 392 c 128,-1,42
 166 410 166 410 178 424 c 0,43,44
 186 432 186 432 195 436 c 1,45,-1
 195 436 l 1,46,47
 186 439 186 439 178 447 c 0,48,49
 166 461 166 461 166 479 c 0,50,51
 166 498 166 498 178 512 c 0,52,53
 183 518 183 518 190 520 c 1,54,-1
 41 520 l 2,55,56
 24 520 24 520 12 534 c 128,-1,57
 0 548 0 548 0 566 c 128,-1,58
 0 584 0 584 12 598 c 128,-1,59
 24 612 24 612 41 612 c 2,60,-1
 958 612 l 2,61,62
 975 612 975 612 988 598 c 0,63,64
 1000 584 1000 584 1000 566 c 0,65,66
 1000 547 1000 547 988 534 c 0,67,68
 980 526 980 526 971 523 c 1,69,-1
 971 523 l 1,70,71
 980 520 980 520 988 512 c 0,72,73
 1000 498 1000 498 1000 479 c 128,-1,74
 1000 460 1000 460 988 447 c 128,-1,75
 975.866666667 433.933333333 975.866666667 433.933333333 960.248888889 433.933333333 c 0,76,77
 959.133333333 433.933333333 959.133333333 433.933333333 958 434 c 2,78,-1
 875 434 l 2,79,80
 858 434 858 434 845 447 c 0,81,82
 833 461 833 461 833 479 c 0,83,84
 833 498 833 498 845 512 c 0,85,86
 850 518 850 518 856 520 c 1,87,-1
 310 520 l 1,88,89
 316 518 316 518 321 512 c 0,90,91
 333.071428571 499 333.071428571 499 333.071428571 481.68877551 c 0,92,93
 333.071428571 460.077380952 333.071428571 460.077380952 321 447 c 0,94,95
 314 438 314 438 304 436 c 1,96,-1
 304 436 l 1,97,98
 313 432 313 432 321 424 c 0,99,100
 333.071428571 411 333.071428571 411 333.071428571 394.551020408 c 0,101,102
 333.071428571 373.077380952 333.071428571 373.077380952 321 360 c 0,103,104
 316 354 316 354 310 352 c 1,105,-1
 791 352 l 2,106,107
 808 352 808 352 821 338 c 0,108,109
 833 324 833 324 833 306 c 0,110,111
 833 287 833 287 821 274 c 0,112,113
 808 260 808 260 791 260 c 2,114,-1
 310 260 l 1,115,116
 316 257 316 257 321 251 c 0,117,118
 333.071428571 238 333.071428571 238 333.071428571 221.551020408 c 0,119,120
 333.071428571 200.077380952 333.071428571 200.077380952 321 187 c 0,121,122
 314 180 314 180 304 176 c 1,123,-1
 304 176 l 1,124,125
 313 173 313 173 321 164 c 0,126,127
 333.071428571 151 333.071428571 151 333.071428571 134.551020408 c 0,128,129
 333.071428571 113.077380952 333.071428571 113.077380952 321 100 c 0,130,131
 316 94 316 94 310 91 c 1,132,-1
 856 91 l 1,133,134
 850 94 850 94 845 100 c 0,135,136
 833 114 833 114 833 132 c 256,137,138
 833 151 833 151 845 164 c 0,139,140
 858 178 858 178 875 178 c 2,141,-1
 958 178 l 2,142,143
 975 178 975 178 988 164 c 0,144,145
 1000 150 1000 150 1000 132 c 256,146,147
 1000 113 1000 113 988 100 c 0,148,149
 980 92 980 92 971 88 c 1,150,-1
 971 88 l 1,151,152
 980 85 980 85 988 78 c 0,153,154
 1000 64 1000 64 1000 46 c 128,-1,155
 1000 28 1000 28 988 14 c 0,156,157
 975 0 975 0 958 0 c 2,158,-1
 41 0 l 2,0,1
EndSplineSet
EndChar

StartChar: F
Encoding: 70 70 38
Width: 1125
VWidth: 750
Flags: W
LayerCount: 2
Fore
SplineSet
41 0 m 2,0,1
 24 0 24 0 12 14 c 256,2,3
 0 28 0 28 0 46 c 0,4,5
 0 65 0 65 12 78 c 0,6,7
 23.2 91.0666666667 23.2 91.0666666667 38.7555555556 91.0666666667 c 0,8,9
 39.8666666667 91.0666666667 39.8666666667 91.0666666667 41 91 c 2,10,-1
 190 91 l 1,11,12
 184 94 184 94 178 100 c 0,13,14
 166 114 166 114 166 132 c 256,15,16
 166 151 166 151 178 164 c 0,17,18
 186 172 186 172 195 176 c 1,19,-1
 195 176 l 1,20,21
 186 179 186 179 178 187 c 0,22,23
 166 201 166 201 166 219 c 0,24,25
 166 238 166 238 178 251 c 0,26,27
 186 258 186 258 195 262 c 1,28,-1
 195 262 l 1,29,30
 186 265 186 265 178 274 c 0,31,32
 166 288 166 288 166 306 c 0,33,34
 166 325 166 325 178 338 c 0,35,36
 186 346 186 346 195 350 c 1,37,-1
 195 350 l 1,38,39
 186 353 186 353 178 360 c 0,40,41
 166 374 166 374 166 392 c 128,-1,42
 166 410 166 410 178 424 c 0,43,44
 186 432 186 432 195 436 c 1,45,-1
 195 436 l 1,46,47
 186 439 186 439 178 447 c 0,48,49
 166 461 166 461 166 479 c 0,50,51
 166 498 166 498 178 512 c 0,52,53
 183 518 183 518 190 520 c 1,54,-1
 41 520 l 2,55,56
 24 520 24 520 12 534 c 128,-1,57
 0 548 0 548 0 566 c 128,-1,58
 0 584 0 584 12 598 c 128,-1,59
 24 612 24 612 41 612 c 2,60,-1
 958 612 l 2,61,62
 975 612 975 612 988 598 c 0,63,64
 1000 584 1000 584 1000 566 c 0,65,66
 1000 547 1000 547 988 534 c 0,67,68
 980 526 980 526 971 523 c 1,69,-1
 971 523 l 1,70,71
 980 520 980 520 988 512 c 0,72,73
 1000 498 1000 498 1000 479 c 128,-1,74
 1000 460 1000 460 988 447 c 128,-1,75
 975.866666667 433.933333333 975.866666667 433.933333333 960.248888889 433.933333333 c 0,76,77
 959.133333333 433.933333333 959.133333333 433.933333333 958 434 c 2,78,-1
 875 434 l 2,79,80
 858 434 858 434 845 447 c 0,81,82
 833 461 833 461 833 479 c 0,83,84
 833 498 833 498 845 512 c 0,85,86
 850 518 850 518 856 520 c 1,87,-1
 310 520 l 1,88,89
 316 518 316 518 321 512 c 0,90,91
 333.071428571 499 333.071428571 499 333.071428571 481.68877551 c 0,92,93
 333.071428571 460.077380952 333.071428571 460.077380952 321 447 c 0,94,95
 314 438 314 438 304 436 c 1,96,-1
 304 436 l 1,97,98
 313 432 313 432 321 424 c 0,99,100
 333.071428571 411 333.071428571 411 333.071428571 394.551020408 c 0,101,102
 333.071428571 373.077380952 333.071428571 373.077380952 321 360 c 0,103,104
 316 354 316 354 310 352 c 1,105,-1
 791 352 l 2,106,107
 808 352 808 352 821 338 c 0,108,109
 833 324 833 324 833 306 c 0,110,111
 833 287 833 287 821 274 c 0,112,113
 808 260 808 260 791 260 c 2,114,-1
 310 260 l 1,115,116
 316 257 316 257 321 251 c 0,117,118
 333.071428571 238 333.071428571 238 333.071428571 221.551020408 c 0,119,120
 333.071428571 200.077380952 333.071428571 200.077380952 321 187 c 0,121,122
 314 180 314 180 304 176 c 1,123,-1
 304 176 l 1,124,125
 313 173 313 173 321 164 c 0,126,127
 333.071428571 151 333.071428571 151 333.071428571 134.551020408 c 0,128,129
 333.071428571 113.077380952 333.071428571 113.077380952 321 100 c 0,130,131
 316 94 316 94 310 91 c 1,132,-1
 458 91 l 2,133,134
 476 91 476 91 488 78 c 0,135,136
 500 64 500 64 500 46 c 128,-1,137
 500 28 500 28 488 14 c 0,138,139
 475 0 475 0 458 0 c 2,140,-1
 41 0 l 2,0,1
EndSplineSet
EndChar

StartChar: G
Encoding: 71 71 39
Width: 1207
VWidth: 750
Flags: W
LayerCount: 2
Fore
SplineSet
208 0 m 2,0,1
 190 0 190 0 178 14 c 256,2,3
 166 28 166 28 166 46 c 0,4,5
 166 65 166 65 178 78 c 0,6,7
 183 84 183 84 190 87 c 1,8,-1
 125 87 l 2,9,10
 108 87 108 87 95 100 c 0,11,12
 83 114 83 114 83 132 c 256,13,14
 83 151 83 151 95 164 c 0,15,16
 100 170 100 170 106 173 c 1,17,-1
 41 173 l 2,18,19
 24 173 24 173 12 187 c 128,-1,20
 0 201 0 201 0 219 c 0,21,22
 0 238 0 238 12 251 c 0,23,24
 20 258 20 258 28 262 c 1,25,-1
 28 262 l 1,26,27
 19 265 19 265 12 274 c 0,28,29
 0 288 0 288 0 306 c 0,30,31
 0 325 0 325 12 338 c 0,32,33
 20 346 20 346 28 350 c 1,34,-1
 28 350 l 1,35,36
 19 353 19 353 12 360 c 0,37,38
 0 374 0 374 0 392 c 128,-1,39
 0 410 0 410 12 424 c 128,-1,40
 24 438 24 438 41 438 c 2,41,-1
 106 438 l 1,42,43
 100 441 100 441 95 447 c 0,44,45
 83 461 83 461 83 479 c 0,46,47
 83 498 83 498 95 512 c 0,48,49
 107.133333333 525.066666667 107.133333333 525.066666667 122.751111111 525.066666667 c 0,50,51
 123.866666667 525.066666667 123.866666667 525.066666667 125 525 c 2,52,-1
 190 525 l 1,53,54
 184 528 184 528 178 534 c 0,55,56
 166 548 166 548 166 566 c 128,-1,57
 166 584 166 584 178 598 c 128,-1,58
 190 612 190 612 208 612 c 2,59,-1
 875 612 l 2,60,61
 892 612 892 612 904 598 c 128,-1,62
 916 584 916 584 916 566 c 0,63,64
 916 547 916 547 904 534 c 0,65,66
 898 528 898 528 892 525 c 1,67,-1
 958 525 l 2,68,69
 959.133333333 525.066666667 959.133333333 525.066666667 960.248888889 525.066666667 c 0,70,71
 975.866666667 525.066666667 975.866666667 525.066666667 988 512 c 0,72,73
 1000 498 1000 498 1000 479 c 128,-1,74
 1000 460 1000 460 988 447 c 128,-1,75
 975.866666667 433.933333333 975.866666667 433.933333333 960.248888889 433.933333333 c 0,76,77
 959.133333333 433.933333333 959.133333333 433.933333333 958 434 c 2,78,-1
 875 434 l 2,79,80
 858 434 858 434 845 447 c 0,81,82
 833 461 833 461 833 479 c 0,83,84
 833 498 833 498 845 512 c 0,85,86
 850 518 850 518 856 520 c 1,87,-1
 226 520 l 1,88,89
 232 518 232 518 238 512 c 0,90,91
 250 498 250 498 250 479 c 128,-1,92
 250 460 250 460 238 447 c 128,-1,93
 225.866666667 433.933333333 225.866666667 433.933333333 210.248888889 433.933333333 c 0,94,95
 209.133333333 433.933333333 209.133333333 433.933333333 208 434 c 2,96,-1
 142 434 l 1,97,98
 148 430 148 430 154 424 c 0,99,100
 166 410 166 410 166 392 c 0,101,102
 166 373 166 373 154 360 c 0,103,104
 146 352 146 352 138 350 c 1,105,-1
 138 350 l 1,106,107
 146 347 146 347 154 338 c 0,108,109
 166 324 166 324 166 306 c 0,110,111
 166 287 166 287 154 274 c 0,112,113
 146 266 146 266 138 262 c 1,114,-1
 138 262 l 1,115,116
 146 259 146 259 154 251 c 0,117,118
 166 237 166 237 166 219 c 0,119,120
 166 200 166 200 154 187 c 0,121,122
 148 181 148 181 142 178 c 1,123,-1
 208 178 l 2,124,125
 225 178 225 178 238 164 c 0,126,127
 250 150 250 150 250 132 c 256,128,129
 250 113 250 113 238 100 c 0,130,131
 232 94 232 94 226 91 c 1,132,-1
 856 91 l 1,133,134
 850 94 850 94 845 100 c 0,135,136
 833 114 833 114 833 132 c 256,137,138
 833 151 833 151 845 164 c 0,139,140
 853 172 853 172 862 176 c 1,141,-1
 862 176 l 1,142,143
 853 179 853 179 845 187 c 0,144,145
 833 201 833 201 833 219 c 0,146,147
 833 238 833 238 845 251 c 0,148,149
 850 257 850 257 856 260 c 1,150,-1
 708 260 l 2,151,152
 691 260 691 260 679 274 c 128,-1,153
 667 288 667 288 667 306 c 0,154,155
 667 325 667 325 679 338 c 0,156,157
 692 352 692 352 708 352 c 2,158,-1
 1042 352 l 2,159,160
 1059 352 1059 352 1071 338 c 0,161,162
 1083.07142857 325 1083.07142857 325 1083.07142857 308.551020408 c 0,163,164
 1083.07142857 287.077380952 1083.07142857 287.077380952 1071 274 c 0,165,166
 1059 260 1059 260 1042 260 c 2,167,-1
 976 260 l 1,168,169
 982 257 982 257 988 251 c 0,170,171
 1000 237 1000 237 1000 219 c 0,172,173
 1000 200 1000 200 988 187 c 0,174,175
 980 180 980 180 971 176 c 1,176,-1
 971 176 l 1,177,178
 980 173 980 173 988 164 c 0,179,180
 1000 150 1000 150 1000 132 c 256,181,182
 1000 113 1000 113 988 100 c 128,-1,183
 975.866666667 86.9333333333 975.866666667 86.9333333333 960.248888889 86.9333333333 c 0,184,185
 959.133333333 86.9333333333 959.133333333 86.9333333333 958 87 c 2,186,-1
 892 87 l 1,187,188
 898 84 898 84 904 78 c 0,189,190
 916 64 916 64 916 46 c 128,-1,191
 916 28 916 28 904 14 c 128,-1,192
 892 0 892 0 875 0 c 2,193,-1
 208 0 l 2,0,1
EndSplineSet
EndChar

StartChar: H
Encoding: 72 72 40
Width: 1291
VWidth: 750
Flags: W
LayerCount: 2
Fore
SplineSet
41 0 m 2,0,1
 24 0 24 0 12 14 c 256,2,3
 0 28 0 28 0 46 c 0,4,5
 0 65 0 65 12 78 c 0,6,7
 23.2 91.0666666667 23.2 91.0666666667 38.7555555556 91.0666666667 c 0,8,9
 39.8666666667 91.0666666667 39.8666666667 91.0666666667 41 91 c 2,10,-1
 190 91 l 1,11,12
 184 94 184 94 178 100 c 0,13,14
 166 114 166 114 166 132 c 256,15,16
 166 151 166 151 178 164 c 0,17,18
 186 172 186 172 195 176 c 1,19,-1
 195 176 l 1,20,21
 186 179 186 179 178 187 c 0,22,23
 166 201 166 201 166 219 c 0,24,25
 166 238 166 238 178 251 c 0,26,27
 186 258 186 258 195 262 c 1,28,-1
 195 262 l 1,29,30
 186 265 186 265 178 274 c 0,31,32
 166 288 166 288 166 306 c 0,33,34
 166 325 166 325 178 338 c 0,35,36
 186 346 186 346 195 350 c 1,37,-1
 195 350 l 1,38,39
 186 353 186 353 178 360 c 0,40,41
 166 374 166 374 166 392 c 128,-1,42
 166 410 166 410 178 424 c 0,43,44
 186 432 186 432 195 436 c 1,45,-1
 195 436 l 1,46,47
 186 439 186 439 178 447 c 0,48,49
 166 461 166 461 166 479 c 0,50,51
 166 498 166 498 178 512 c 0,52,53
 183 518 183 518 190 520 c 1,54,-1
 41 520 l 2,55,56
 24 520 24 520 12 534 c 128,-1,57
 0 548 0 548 0 566 c 128,-1,58
 0 584 0 584 12 598 c 128,-1,59
 24 612 24 612 41 612 c 2,60,-1
 458 612 l 2,61,62
 476 612 476 612 488 598 c 128,-1,63
 500 584 500 584 500 566 c 0,64,65
 500 547 500 547 488 534 c 0,66,67
 475 520 475 520 458 520 c 2,68,-1
 310 520 l 1,69,70
 316 518 316 518 321 512 c 0,71,72
 333.071428571 499 333.071428571 499 333.071428571 481.68877551 c 0,73,74
 333.071428571 460.077380952 333.071428571 460.077380952 321 447 c 0,75,76
 314 438 314 438 304 436 c 1,77,-1
 304 436 l 1,78,79
 313 432 313 432 321 424 c 0,80,81
 333.071428571 411 333.071428571 411 333.071428571 394.551020408 c 0,82,83
 333.071428571 373.077380952 333.071428571 373.077380952 321 360 c 0,84,85
 316 354 316 354 310 352 c 1,86,-1
 856 352 l 1,87,88
 850 355 850 355 845 360 c 0,89,90
 833 374 833 374 833 392 c 128,-1,91
 833 410 833 410 845 424 c 0,92,93
 853 432 853 432 862 436 c 1,94,-1
 862 436 l 1,95,96
 853 439 853 439 845 447 c 0,97,98
 833 461 833 461 833 479 c 0,99,100
 833 498 833 498 845 512 c 0,101,102
 850 518 850 518 856 520 c 1,103,-1
 708 520 l 2,104,105
 691 520 691 520 679 534 c 128,-1,106
 667 548 667 548 667 566 c 128,-1,107
 667 584 667 584 679 598 c 0,108,109
 692 612 692 612 708 612 c 2,110,-1
 1125 612 l 2,111,112
 1142 612 1142 612 1154 598 c 128,-1,113
 1166 584 1166 584 1166 566 c 0,114,115
 1166 547 1166 547 1154 534 c 0,116,117
 1142 520 1142 520 1125 520 c 2,118,-1
 976 520 l 1,119,120
 982 518 982 518 988 512 c 0,121,122
 1000 498 1000 498 1000 479 c 128,-1,123
 1000 460 1000 460 988 447 c 0,124,125
 980 438 980 438 971 436 c 1,126,-1
 971 436 l 1,127,128
 980 432 980 432 988 424 c 0,129,130
 1000 410 1000 410 1000 392 c 0,131,132
 1000 373 1000 373 988 360 c 0,133,134
 980 352 980 352 971 350 c 1,135,-1
 971 350 l 1,136,137
 980 347 980 347 988 338 c 0,138,139
 1000 324 1000 324 1000 306 c 0,140,141
 1000 287 1000 287 988 274 c 0,142,143
 980 266 980 266 971 262 c 1,144,-1
 971 262 l 1,145,146
 980 259 980 259 988 251 c 0,147,148
 1000 237 1000 237 1000 219 c 0,149,150
 1000 200 1000 200 988 187 c 0,151,152
 980 180 980 180 971 176 c 1,153,-1
 971 176 l 1,154,155
 980 173 980 173 988 164 c 0,156,157
 1000 150 1000 150 1000 132 c 256,158,159
 1000 113 1000 113 988 100 c 0,160,161
 982 94 982 94 976 91 c 1,162,-1
 1125 91 l 2,163,164
 1142 91 1142 91 1154 78 c 0,165,166
 1166 64 1166 64 1166 46 c 128,-1,167
 1166 28 1166 28 1154 14 c 256,168,169
 1142 0 1142 0 1125 0 c 2,170,-1
 708 0 l 2,171,172
 691 0 691 0 679 14 c 128,-1,173
 667 28 667 28 667 46 c 0,174,175
 667 65 667 65 679 78 c 128,-1,176
 691.133333333 91.0666666667 691.133333333 91.0666666667 705.88 91.0666666667 c 0,177,178
 706.933333333 91.0666666667 706.933333333 91.0666666667 708 91 c 2,179,-1
 856 91 l 1,180,181
 850 94 850 94 845 100 c 0,182,183
 833 114 833 114 833 132 c 256,184,185
 833 151 833 151 845 164 c 0,186,187
 853 172 853 172 862 176 c 1,188,-1
 862 176 l 1,189,190
 853 179 853 179 845 187 c 0,191,192
 833 201 833 201 833 219 c 0,193,194
 833 238 833 238 845 251 c 0,195,196
 850 257 850 257 856 260 c 1,197,-1
 310 260 l 1,198,199
 316 257 316 257 321 251 c 0,200,201
 333.071428571 238 333.071428571 238 333.071428571 221.551020408 c 0,202,203
 333.071428571 200.077380952 333.071428571 200.077380952 321 187 c 0,204,205
 314 180 314 180 304 176 c 1,206,-1
 304 176 l 1,207,208
 313 173 313 173 321 164 c 0,209,210
 333.071428571 151 333.071428571 151 333.071428571 134.551020408 c 0,211,212
 333.071428571 113.077380952 333.071428571 113.077380952 321 100 c 0,213,214
 316 94 316 94 310 91 c 1,215,-1
 458 91 l 2,216,217
 476 91 476 91 488 78 c 0,218,219
 500 64 500 64 500 46 c 128,-1,220
 500 28 500 28 488 14 c 0,221,222
 475 0 475 0 458 0 c 2,223,-1
 41 0 l 2,0,1
EndSplineSet
EndChar

StartChar: I
Encoding: 73 73 41
Width: 624
VWidth: 750
Flags: W
LayerCount: 2
Fore
SplineSet
41 0 m 2,0,1
 24 0 24 0 12 14 c 256,2,3
 0 28 0 28 0 46 c 0,4,5
 0 65 0 65 12 78 c 0,6,7
 23.2 91.0666666667 23.2 91.0666666667 38.7555555556 91.0666666667 c 0,8,9
 39.8666666667 91.0666666667 39.8666666667 91.0666666667 41 91 c 2,10,-1
 190 91 l 1,11,12
 184 94 184 94 178 100 c 0,13,14
 166 114 166 114 166 132 c 256,15,16
 166 151 166 151 178 164 c 0,17,18
 186 172 186 172 195 176 c 1,19,-1
 195 176 l 1,20,21
 186 179 186 179 178 187 c 0,22,23
 166 201 166 201 166 219 c 0,24,25
 166 238 166 238 178 251 c 0,26,27
 186 258 186 258 195 262 c 1,28,-1
 195 262 l 1,29,30
 186 265 186 265 178 274 c 0,31,32
 166 288 166 288 166 306 c 0,33,34
 166 325 166 325 178 338 c 0,35,36
 186 346 186 346 195 350 c 1,37,-1
 195 350 l 1,38,39
 186 353 186 353 178 360 c 0,40,41
 166 374 166 374 166 392 c 128,-1,42
 166 410 166 410 178 424 c 0,43,44
 186 432 186 432 195 436 c 1,45,-1
 195 436 l 1,46,47
 186 439 186 439 178 447 c 0,48,49
 166 461 166 461 166 479 c 0,50,51
 166 498 166 498 178 512 c 0,52,53
 183 518 183 518 190 520 c 1,54,-1
 41 520 l 2,55,56
 24 520 24 520 12 534 c 128,-1,57
 0 548 0 548 0 566 c 128,-1,58
 0 584 0 584 12 598 c 128,-1,59
 24 612 24 612 41 612 c 2,60,-1
 458 612 l 2,61,62
 476 612 476 612 488 598 c 128,-1,63
 500 584 500 584 500 566 c 0,64,65
 500 547 500 547 488 534 c 0,66,67
 475 520 475 520 458 520 c 2,68,-1
 310 520 l 1,69,70
 316 518 316 518 321 512 c 0,71,72
 333.071428571 499 333.071428571 499 333.071428571 481.68877551 c 0,73,74
 333.071428571 460.077380952 333.071428571 460.077380952 321 447 c 0,75,76
 314 438 314 438 304 436 c 1,77,-1
 304 436 l 1,78,79
 313 432 313 432 321 424 c 0,80,81
 333.071428571 411 333.071428571 411 333.071428571 394.551020408 c 0,82,83
 333.071428571 373.077380952 333.071428571 373.077380952 321 360 c 0,84,85
 314 352 314 352 304 350 c 1,86,-1
 304 350 l 1,87,88
 313 347 313 347 321 338 c 0,89,90
 333.071428571 325 333.071428571 325 333.071428571 308.551020408 c 0,91,92
 333.071428571 287.077380952 333.071428571 287.077380952 321 274 c 0,93,94
 314 266 314 266 304 262 c 1,95,-1
 304 262 l 1,96,97
 313 259 313 259 321 251 c 0,98,99
 333.071428571 238 333.071428571 238 333.071428571 221.551020408 c 0,100,101
 333.071428571 200.077380952 333.071428571 200.077380952 321 187 c 0,102,103
 314 180 314 180 304 176 c 1,104,-1
 304 176 l 1,105,106
 313 173 313 173 321 164 c 0,107,108
 333.071428571 151 333.071428571 151 333.071428571 134.551020408 c 0,109,110
 333.071428571 113.077380952 333.071428571 113.077380952 321 100 c 0,111,112
 316 94 316 94 310 91 c 1,113,-1
 458 91 l 2,114,115
 476 91 476 91 488 78 c 0,116,117
 500 64 500 64 500 46 c 128,-1,118
 500 28 500 28 488 14 c 0,119,120
 475 0 475 0 458 0 c 2,121,-1
 41 0 l 2,0,1
EndSplineSet
EndChar

StartChar: J
Encoding: 74 74 42
Width: 957
VWidth: 750
Flags: W
LayerCount: 2
Fore
SplineSet
125 0 m 2,0,1
 108 0 108 0 95 14 c 0,2,3
 83 28 83 28 83 46 c 0,4,5
 83 65 83 65 95 78 c 0,6,7
 100 84 100 84 106 87 c 1,8,-1
 41 87 l 2,9,10
 24 87 24 87 12 100 c 256,11,12
 0 114 0 114 0 132 c 256,13,14
 0 151 0 151 12 164 c 0,15,16
 20 172 20 172 28 176 c 1,17,-1
 28 176 l 1,18,19
 19 179 19 179 12 187 c 0,20,21
 0 201 0 201 0 219 c 0,22,23
 0 238 0 238 12 251 c 256,24,25
 24 265 24 265 41 265 c 2,26,-1
 125 265 l 2,27,28
 142 265 142 265 154 251 c 128,-1,29
 166 237 166 237 166 219 c 0,30,31
 166 200 166 200 154 187 c 0,32,33
 146 180 146 180 138 176 c 1,34,-1
 138 176 l 1,35,36
 146 173 146 173 154 164 c 0,37,38
 166 150 166 150 166 132 c 256,39,40
 166 113 166 113 154 100 c 0,41,42
 148 94 148 94 142 91 c 1,43,-1
 440 91 l 1,44,45
 434 94 434 94 429 100 c 0,46,47
 416 114 416 114 416 132 c 256,48,49
 416 151 416 151 429 164 c 0,50,51
 436 172 436 172 445 176 c 1,52,-1
 445 176 l 1,53,54
 436 179 436 179 429 187 c 0,55,56
 416 201 416 201 416 219 c 0,57,58
 416 238 416 238 429 251 c 0,59,60
 436 258 436 258 445 262 c 1,61,-1
 445 262 l 1,62,63
 436 265 436 265 429 274 c 0,64,65
 416 288 416 288 416 306 c 0,66,67
 416 325 416 325 429 338 c 0,68,69
 436 346 436 346 445 350 c 1,70,-1
 445 350 l 1,71,72
 436 353 436 353 429 360 c 0,73,74
 416 374 416 374 416 392 c 128,-1,75
 416 410 416 410 429 424 c 0,76,77
 436 432 436 432 445 436 c 1,78,-1
 445 436 l 1,79,80
 436 439 436 439 429 447 c 0,81,82
 416 461 416 461 416 479 c 0,83,84
 416 498 416 498 429 512 c 0,85,86
 434 518 434 518 440 520 c 1,87,-1
 208 520 l 2,88,89
 190 520 190 520 178 534 c 128,-1,90
 166 548 166 548 166 566 c 128,-1,91
 166 584 166 584 178 598 c 128,-1,92
 190 612 190 612 208 612 c 2,93,-1
 791 612 l 2,94,95
 808 612 808 612 821 598 c 0,96,97
 833 584 833 584 833 566 c 0,98,99
 833 547 833 547 821 534 c 0,100,101
 808 520 808 520 791 520 c 2,102,-1
 560 520 l 1,103,104
 566 518 566 518 571 512 c 0,105,106
 583 498 583 498 583 479 c 128,-1,107
 583 460 583 460 571 447 c 0,108,109
 563 438 563 438 554 436 c 1,110,-1
 554 436 l 1,111,112
 563 432 563 432 571 424 c 0,113,114
 583 410 583 410 583 392 c 0,115,116
 583 373 583 373 571 360 c 0,117,118
 563 352 563 352 554 350 c 1,119,-1
 554 350 l 1,120,121
 563 347 563 347 571 338 c 0,122,123
 583 324 583 324 583 306 c 0,124,125
 583 287 583 287 571 274 c 0,126,127
 563 266 563 266 554 262 c 1,128,-1
 554 262 l 1,129,130
 563 259 563 259 571 251 c 0,131,132
 583 237 583 237 583 219 c 0,133,134
 583 200 583 200 571 187 c 0,135,136
 563 180 563 180 554 176 c 1,137,-1
 554 176 l 1,138,139
 563 173 563 173 571 164 c 0,140,141
 583 150 583 150 583 132 c 256,142,143
 583 113 583 113 571 100 c 256,144,145
 560.733333333 86.9333333333 560.733333333 86.9333333333 544.368888889 86.9333333333 c 0,146,147
 543.2 86.9333333333 543.2 86.9333333333 542 87 c 2,148,-1
 476 87 l 1,149,150
 482 84 482 84 488 78 c 0,151,152
 500 64 500 64 500 46 c 128,-1,153
 500 28 500 28 488 14 c 0,154,155
 475 0 475 0 458 0 c 2,156,-1
 125 0 l 2,0,1
EndSplineSet
EndChar

StartChar: K
Encoding: 75 75 43
Width: 1291
VWidth: 750
Flags: W
LayerCount: 2
Fore
SplineSet
41 0 m 2,0,1
 24 0 24 0 12 14 c 256,2,3
 0 28 0 28 0 46 c 0,4,5
 0 65 0 65 12 78 c 0,6,7
 23.2 91.0666666667 23.2 91.0666666667 38.7555555556 91.0666666667 c 0,8,9
 39.8666666667 91.0666666667 39.8666666667 91.0666666667 41 91 c 2,10,-1
 190 91 l 1,11,12
 184 94 184 94 178 100 c 0,13,14
 166 114 166 114 166 132 c 256,15,16
 166 151 166 151 178 164 c 0,17,18
 186 172 186 172 195 176 c 1,19,-1
 195 176 l 1,20,21
 186 179 186 179 178 187 c 0,22,23
 166 201 166 201 166 219 c 0,24,25
 166 238 166 238 178 251 c 0,26,27
 186 258 186 258 195 262 c 1,28,-1
 195 262 l 1,29,30
 186 265 186 265 178 274 c 0,31,32
 166 288 166 288 166 306 c 0,33,34
 166 325 166 325 178 338 c 0,35,36
 186 346 186 346 195 350 c 1,37,-1
 195 350 l 1,38,39
 186 353 186 353 178 360 c 0,40,41
 166 374 166 374 166 392 c 128,-1,42
 166 410 166 410 178 424 c 0,43,44
 186 432 186 432 195 436 c 1,45,-1
 195 436 l 1,46,47
 186 439 186 439 178 447 c 0,48,49
 166 461 166 461 166 479 c 0,50,51
 166 498 166 498 178 512 c 0,52,53
 183 518 183 518 190 520 c 1,54,-1
 41 520 l 2,55,56
 24 520 24 520 12 534 c 128,-1,57
 0 548 0 548 0 566 c 128,-1,58
 0 584 0 584 12 598 c 128,-1,59
 24 612 24 612 41 612 c 2,60,-1
 458 612 l 2,61,62
 476 612 476 612 488 598 c 128,-1,63
 500 584 500 584 500 566 c 0,64,65
 500 547 500 547 488 534 c 0,66,67
 475 520 475 520 458 520 c 2,68,-1
 310 520 l 1,69,70
 316 518 316 518 321 512 c 0,71,72
 333.071428571 499 333.071428571 499 333.071428571 481.68877551 c 0,73,74
 333.071428571 460.077380952 333.071428571 460.077380952 321 447 c 0,75,76
 314 438 314 438 304 436 c 1,77,-1
 304 436 l 1,78,79
 313 432 313 432 321 424 c 0,80,81
 333.071428571 411 333.071428571 411 333.071428571 394.551020408 c 0,82,83
 333.071428571 373.077380952 333.071428571 373.077380952 321 360 c 0,84,85
 316 354 316 354 310 352 c 1,86,-1
 607 352 l 1,87,88
 602 355 602 355 596 360 c 0,89,90
 583 374 583 374 583 392 c 0,91,92
 584 410 584 410 596 424 c 128,-1,93
 608 438 608 438 625 438 c 2,94,-1
 690 438 l 1,95,96
 684 441 684 441 679 447 c 0,97,98
 667 461 667 461 667 479 c 0,99,100
 667 498 667 498 679 512 c 0,101,102
 687 520 687 520 695 523 c 1,103,-1
 695 523 l 1,104,105
 686 526 686 526 679 534 c 0,106,107
 667 548 667 548 667 566 c 128,-1,108
 667 584 667 584 679 598 c 0,109,110
 692 612 692 612 708 612 c 2,111,-1
 1125 612 l 2,112,113
 1142 612 1142 612 1154 598 c 128,-1,114
 1166 584 1166 584 1166 566 c 0,115,116
 1166 547 1166 547 1154 534 c 0,117,118
 1142 520 1142 520 1125 520 c 2,119,-1
 810 520 l 1,120,121
 816 518 816 518 821 512 c 0,122,123
 833 498 833 498 833 479 c 128,-1,124
 833 460 833 460 821 447 c 128,-1,125
 808.866666667 433.933333333 808.866666667 433.933333333 793.248888889 433.933333333 c 0,126,127
 792.133333333 433.933333333 792.133333333 433.933333333 791 434 c 2,128,-1
 726 434 l 1,129,130
 732 430 732 430 737 424 c 0,131,132
 750 410 750 410 750 392 c 0,133,134
 750 373 750 373 737 360 c 0,135,136
 725.8 346.933333333 725.8 346.933333333 710.244444444 346.933333333 c 0,137,138
 709.133333333 346.933333333 709.133333333 346.933333333 708 347 c 2,139,-1
 643 347 l 1,140,141
 649 344 649 344 655 338 c 0,142,143
 667 324 667 324 667 306 c 0,144,145
 667 287 667 287 655 274 c 0,146,147
 650 268 650 268 643 265 c 1,148,-1
 708 265 l 2,149,150
 725 265 725 265 737 251 c 0,151,152
 750 237 750 237 750 219 c 0,153,154
 750 200 750 200 737 187 c 0,155,156
 732 181 732 181 726 178 c 1,157,-1
 791 178 l 2,158,159
 808 178 808 178 821 164 c 0,160,161
 833 150 833 150 833 132 c 256,162,163
 833 113 833 113 821 100 c 0,164,165
 816 94 816 94 810 91 c 1,166,-1
 1125 91 l 2,167,168
 1142 91 1142 91 1154 78 c 0,169,170
 1166 64 1166 64 1166 46 c 128,-1,171
 1166 28 1166 28 1154 14 c 256,172,173
 1142 0 1142 0 1125 0 c 2,174,-1
 708 0 l 2,175,176
 691 0 691 0 679 14 c 128,-1,177
 667 28 667 28 667 46 c 0,178,179
 667 65 667 65 679 78 c 0,180,181
 687 86 687 86 695 88 c 1,182,-1
 695 88 l 1,183,184
 686 91 686 91 679 100 c 0,185,186
 667 114 667 114 667 132 c 256,187,188
 667 151 667 151 679 164 c 0,189,190
 684 170 684 170 690 173 c 1,191,-1
 625 173 l 2,192,193
 608 173 608 173 596 187 c 0,194,195
 583 201 583 201 583 219 c 0,196,197
 584 238 584 238 596 251 c 0,198,199
 601 257 601 257 607 260 c 1,200,-1
 310 260 l 1,201,202
 316 257 316 257 321 251 c 0,203,204
 333.071428571 238 333.071428571 238 333.071428571 221.551020408 c 0,205,206
 333.071428571 200.077380952 333.071428571 200.077380952 321 187 c 0,207,208
 314 180 314 180 304 176 c 1,209,-1
 304 176 l 1,210,211
 313 173 313 173 321 164 c 0,212,213
 333.071428571 151 333.071428571 151 333.071428571 134.551020408 c 0,214,215
 333.071428571 113.077380952 333.071428571 113.077380952 321 100 c 0,216,217
 316 94 316 94 310 91 c 1,218,-1
 458 91 l 2,219,220
 476 91 476 91 488 78 c 0,221,222
 500 64 500 64 500 46 c 128,-1,223
 500 28 500 28 488 14 c 0,224,225
 475 0 475 0 458 0 c 2,226,-1
 41 0 l 2,0,1
EndSplineSet
EndChar

StartChar: L
Encoding: 76 76 44
Width: 1125
VWidth: 750
Flags: W
LayerCount: 2
Fore
SplineSet
41 0 m 2,0,1
 24 0 24 0 12 14 c 256,2,3
 0 28 0 28 0 46 c 0,4,5
 0 65 0 65 12 78 c 0,6,7
 23.2 91.0666666667 23.2 91.0666666667 38.7555555556 91.0666666667 c 0,8,9
 39.8666666667 91.0666666667 39.8666666667 91.0666666667 41 91 c 2,10,-1
 190 91 l 1,11,12
 184 94 184 94 178 100 c 0,13,14
 166 114 166 114 166 132 c 256,15,16
 166 151 166 151 178 164 c 0,17,18
 186 172 186 172 195 176 c 1,19,-1
 195 176 l 1,20,21
 186 179 186 179 178 187 c 0,22,23
 166 201 166 201 166 219 c 0,24,25
 166 238 166 238 178 251 c 0,26,27
 186 258 186 258 195 262 c 1,28,-1
 195 262 l 1,29,30
 186 265 186 265 178 274 c 0,31,32
 166 288 166 288 166 306 c 0,33,34
 166 325 166 325 178 338 c 0,35,36
 186 346 186 346 195 350 c 1,37,-1
 195 350 l 1,38,39
 186 353 186 353 178 360 c 0,40,41
 166 374 166 374 166 392 c 128,-1,42
 166 410 166 410 178 424 c 0,43,44
 186 432 186 432 195 436 c 1,45,-1
 195 436 l 1,46,47
 186 439 186 439 178 447 c 0,48,49
 166 461 166 461 166 479 c 0,50,51
 166 498 166 498 178 512 c 0,52,53
 183 518 183 518 190 520 c 1,54,-1
 41 520 l 2,55,56
 24 520 24 520 12 534 c 128,-1,57
 0 548 0 548 0 566 c 128,-1,58
 0 584 0 584 12 598 c 128,-1,59
 24 612 24 612 41 612 c 2,60,-1
 458 612 l 2,61,62
 476 612 476 612 488 598 c 128,-1,63
 500 584 500 584 500 566 c 0,64,65
 500 547 500 547 488 534 c 0,66,67
 475 520 475 520 458 520 c 2,68,-1
 310 520 l 1,69,70
 316 518 316 518 321 512 c 0,71,72
 333.071428571 499 333.071428571 499 333.071428571 481.68877551 c 0,73,74
 333.071428571 460.077380952 333.071428571 460.077380952 321 447 c 0,75,76
 314 438 314 438 304 436 c 1,77,-1
 304 436 l 1,78,79
 313 432 313 432 321 424 c 0,80,81
 333.071428571 411 333.071428571 411 333.071428571 394.551020408 c 0,82,83
 333.071428571 373.077380952 333.071428571 373.077380952 321 360 c 0,84,85
 314 352 314 352 304 350 c 1,86,-1
 304 350 l 1,87,88
 313 347 313 347 321 338 c 0,89,90
 333.071428571 325 333.071428571 325 333.071428571 308.551020408 c 0,91,92
 333.071428571 287.077380952 333.071428571 287.077380952 321 274 c 0,93,94
 314 266 314 266 304 262 c 1,95,-1
 304 262 l 1,96,97
 313 259 313 259 321 251 c 0,98,99
 333.071428571 238 333.071428571 238 333.071428571 221.551020408 c 0,100,101
 333.071428571 200.077380952 333.071428571 200.077380952 321 187 c 0,102,103
 314 180 314 180 304 176 c 1,104,-1
 304 176 l 1,105,106
 313 173 313 173 321 164 c 0,107,108
 333.071428571 151 333.071428571 151 333.071428571 134.551020408 c 0,109,110
 333.071428571 113.077380952 333.071428571 113.077380952 321 100 c 0,111,112
 316 94 316 94 310 91 c 1,113,-1
 856 91 l 1,114,115
 850 94 850 94 845 100 c 0,116,117
 833 114 833 114 833 132 c 256,118,119
 833 151 833 151 845 164 c 0,120,121
 858 178 858 178 875 178 c 2,122,-1
 958 178 l 2,123,124
 975 178 975 178 988 164 c 0,125,126
 1000 150 1000 150 1000 132 c 256,127,128
 1000 113 1000 113 988 100 c 0,129,130
 980 92 980 92 971 88 c 1,131,-1
 971 88 l 1,132,133
 980 85 980 85 988 78 c 0,134,135
 1000 64 1000 64 1000 46 c 128,-1,136
 1000 28 1000 28 988 14 c 0,137,138
 975 0 975 0 958 0 c 2,139,-1
 41 0 l 2,0,1
EndSplineSet
EndChar

StartChar: M
Encoding: 77 77 45
Width: 1458
VWidth: 750
Flags: W
LayerCount: 2
Fore
SplineSet
41 0 m 2,0,1
 24 0 24 0 12 14 c 256,2,3
 0 28 0 28 0 46 c 128,-1,4
 0 64 0 64 12 78 c 0,5,6
 23.2 91.0666666667 23.2 91.0666666667 38.7555555556 91.0666666667 c 0,7,8
 39.8666666667 91.0666666667 39.8666666667 91.0666666667 41 91 c 2,9,-1
 190 91 l 1,10,11
 184 94 184 94 178 100 c 0,12,13
 166 114 166 114 166 132 c 256,14,15
 166 151 166 151 178 164 c 0,16,17
 186 172 186 172 195 176 c 1,18,-1
 195 176 l 1,19,20
 186 179 186 179 178 187 c 0,21,22
 166 201 166 201 166 219.5 c 128,-1,23
 166 238 166 238 178 251 c 0,24,25
 186 258 186 258 195 262 c 1,26,-1
 195 262 l 1,27,28
 186 265 186 265 178 274 c 0,29,30
 166 288 166 288 166 306.5 c 128,-1,31
 166 325 166 325 178 338 c 0,32,33
 186 346 186 346 195 350 c 1,34,-1
 195 350 l 1,35,36
 186 353 186 353 178 360 c 0,37,38
 166 374 166 374 166 392.5 c 0,39,40
 166 410 166 410 178 424 c 0,41,42
 186 432 186 432 195 436 c 1,43,-1
 195 436 l 1,44,45
 186 439 186 439 178 447 c 0,46,47
 166 461 166 461 166 479.5 c 128,-1,48
 166 498 166 498 178 512 c 0,49,50
 183 518 183 518 190 520 c 1,51,-1
 41 520 l 2,52,53
 24 520 24 520 12 534 c 128,-1,54
 0 548 0 548 0 566.5 c 128,-1,55
 0 585 0 585 12 598.5 c 132,-1,56
 24 612 24 612 41 612 c 6,57,-1
 292 612 l 2,58,59
 309 612 309 612 321 598 c 0,60,61
 333.071428571 585 333.071428571 585 333.071428571 568.551020408 c 0,62,63
 333.071428571 547.077380952 333.071428571 547.077380952 321 534 c 0,64,65
 316 528 316 528 310 525 c 1,66,-1
 458 525 l 2,67,68
 475 525 475 525 487.5 511.5 c 128,-1,69
 500 498 500 498 500 479 c 128,-1,70
 500 460 500 460 488 447 c 0,71,72
 483 441 483 441 476 438 c 1,73,-1
 542 438 l 2,74,75
 559 438 559 438 571 424.5 c 128,-1,76
 583 411 583 411 583 392.5 c 128,-1,77
 583 374 583 374 571 360 c 0,78,79
 566 354 566 354 560 352 c 1,80,-1
 625 352 l 2,81,82
 642 352 642 352 655 338 c 0,83,84
 667 324 667 324 667 305.5 c 128,-1,85
 667 287 667 287 655 274 c 0,86,87
 650 268 650 268 643 265 c 1,88,-1
 690 265 l 1,89,90
 684 268 684 268 679 274 c 0,91,92
 667 288 667 288 667 306.5 c 128,-1,93
 667 325 667 325 679 338 c 0,94,95
 692 352 692 352 708 352 c 2,96,-1
 773 352 l 1,97,98
 767 355 767 355 762 360 c 0,99,100
 750 374 750 374 750 392.5 c 128,-1,101
 750 411 750 411 762 424.5 c 128,-1,102
 774 438 774 438 791 438 c 2,103,-1
 856 438 l 1,104,105
 850 441 850 441 845 447 c 0,106,107
 833 461 833 461 833 479.5 c 128,-1,108
 833 498 833 498 845 512 c 0,109,110
 857.133333333 525.066666667 857.133333333 525.066666667 872.751111111 525.066666667 c 0,111,112
 873.866666667 525.066666667 873.866666667 525.066666667 875 525 c 2,113,-1
 1024 525 l 1,114,115
 1018 528 1018 528 1012 534 c 0,116,117
 1000 548 1000 548 1000 566.5 c 0,118,119
 1000 584 1000 584 1012 598 c 0,120,121
 1025 612 1025 612 1042 612 c 2,122,-1
 1292 612 l 2,123,124
 1309 612 1309 612 1321 598.5 c 128,-1,125
 1333 585 1333 585 1333 566.5 c 128,-1,126
 1333 548 1333 548 1321 534 c 0,127,128
 1310 520 1310 520 1292 520 c 2,129,-1
 1143 520 l 1,130,131
 1149 518 1149 518 1154 512 c 0,132,133
 1166 498 1166 498 1166 479 c 128,-1,134
 1166 460 1166 460 1154 447 c 0,135,136
 1146 438 1146 438 1138 436 c 1,137,-1
 1138 436 l 1,138,139
 1147 432 1147 432 1154 424 c 0,140,141
 1166 410 1166 410 1166 392 c 128,-1,142
 1166 374 1166 374 1154 360 c 0,143,144
 1146 352 1146 352 1138 350 c 1,145,-1
 1138 350 l 1,146,147
 1147 347 1147 347 1154 338 c 0,148,149
 1166 324 1166 324 1166 305.5 c 128,-1,150
 1166 287 1166 287 1154 274 c 0,151,152
 1146 266 1146 266 1138 262 c 1,153,-1
 1138 262 l 1,154,155
 1147 259 1147 259 1154 251 c 0,156,157
 1166 237 1166 237 1166 218.5 c 128,-1,158
 1166 200 1166 200 1154 187 c 0,159,160
 1146 180 1146 180 1138 176 c 1,161,-1
 1138 176 l 1,162,163
 1147 173 1147 173 1154 164 c 0,164,165
 1166 150 1166 150 1166 132 c 256,166,167
 1166 113 1166 113 1154 100 c 0,168,169
 1149 94 1149 94 1143 91 c 1,170,-1
 1292 91 l 2,171,172
 1309 91 1309 91 1321 78 c 0,173,174
 1333 64 1333 64 1333 45.5 c 0,175,176
 1333 28 1333 28 1321 14 c 256,177,178
 1310 0 1310 0 1292 0 c 2,179,-1
 875 0 l 2,180,181
 858 0 858 0 845 14 c 0,182,183
 833 28 833 28 833 46 c 128,-1,184
 833 64 833 64 845 78 c 0,185,186
 857.133333333 91.0666666667 857.133333333 91.0666666667 872.751111111 91.0666666667 c 0,187,188
 873.866666667 91.0666666667 873.866666667 91.0666666667 875 91 c 2,189,-1
 1024 91 l 1,190,191
 1018 94 1018 94 1012 100 c 0,192,193
 1000 114 1000 114 1000 132 c 256,194,195
 1000 151 1000 151 1012 164 c 0,196,197
 1020 172 1020 172 1028 176 c 1,198,-1
 1028 176 l 1,199,200
 1019 179 1019 179 1012 187 c 0,201,202
 1000 201 1000 201 1000 219.5 c 128,-1,203
 1000 238 1000 238 1012 251 c 0,204,205
 1020 258 1020 258 1028 262 c 1,206,-1
 1028 262 l 1,207,208
 1019 265 1019 265 1012 274 c 0,209,210
 1000 288 1000 288 1000 306.5 c 128,-1,211
 1000 325 1000 325 1012 338 c 0,212,213
 1020 346 1020 346 1028 350 c 1,214,-1
 1028 350 l 1,215,216
 1019 353 1019 353 1012 360 c 0,217,218
 1000 374 1000 374 1000 392.5 c 0,219,220
 1000 410 1000 410 1012 424 c 0,221,222
 1017 430 1017 430 1024 434 c 1,223,-1
 892 434 l 1,224,225
 898 430 898 430 904 424 c 0,226,227
 916 410 916 410 916 392 c 0,228,229
 916 373 916 373 904 359.5 c 0,230,231
 892.827586207 346.931034483 892.827586207 346.931034483 877.321046373 346.931034483 c 0,232,233
 876.172413793 346.931034483 876.172413793 346.931034483 875 347 c 2,234,-1
 810 347 l 1,235,236
 816 344 816 344 821 338 c 0,237,238
 833 324 833 324 833 305.5 c 128,-1,239
 833 287 833 287 821 274 c 0,240,241
 808 260 808 260 791 260 c 2,242,-1
 726 260 l 1,243,244
 732 257 732 257 737 251 c 0,245,246
 750 237 750 237 750 218.5 c 128,-1,247
 750 200 750 200 737 187 c 0,248,249
 725 173 725 173 708 173 c 2,250,-1
 625 173 l 2,251,252
 608 173 608 173 596 187 c 0,253,254
 583 201 583 201 583 219.5 c 0,255,256
 584 238 584 238 596 251 c 0,257,258
 601 257 601 257 607 260 c 1,259,-1
 542 260 l 2,260,261
 525 260 525 260 512.5 273.5 c 128,-1,262
 500 287 500 287 500 306 c 128,-1,263
 500 325 500 325 512 338 c 0,264,265
 518 344 518 344 524 347 c 1,266,-1
 458 347 l 2,267,268
 441 347 441 347 429 360 c 0,269,270
 416 374 416 374 416 392.5 c 0,271,272
 416 410 416 410 429 424 c 0,273,274
 434 430 434 430 440 434 c 1,275,-1
 310 434 l 1,276,277
 316 430 316 430 321 424 c 0,278,279
 333.071428571 411 333.071428571 411 333.071428571 394.551020408 c 0,280,281
 333.071428571 373.077380952 333.071428571 373.077380952 321 360 c 0,282,283
 314 352 314 352 304 350 c 1,284,-1
 304 350 l 1,285,286
 313 347 313 347 321 338 c 0,287,288
 333.071428571 325 333.071428571 325 333.071428571 308.551020408 c 0,289,290
 333.071428571 287.077380952 333.071428571 287.077380952 321 274 c 0,291,292
 314 266 314 266 304 262 c 1,293,-1
 304 262 l 1,294,295
 313 259 313 259 321 251 c 0,296,297
 333.071428571 238 333.071428571 238 333.071428571 221.551020408 c 0,298,299
 333.071428571 200.077380952 333.071428571 200.077380952 321 187 c 0,300,301
 314 180 314 180 304 176 c 1,302,-1
 304 176 l 1,303,304
 313 173 313 173 321 164 c 0,305,306
 333.071428571 151 333.071428571 151 333.071428571 134.551020408 c 0,307,308
 333.071428571 113.077380952 333.071428571 113.077380952 321 100 c 0,309,310
 316 94 316 94 310 91 c 1,311,-1
 458 91 l 2,312,313
 476 91 476 91 488 78 c 0,314,315
 500 64 500 64 500 46 c 0,316,317
 500 27 500 27 487.5 13.5 c 128,-1,318
 475 0 475 0 458 0 c 2,319,-1
 41 0 l 2,0,1
EndSplineSet
EndChar

StartChar: N
Encoding: 78 78 46
Width: 1207
VWidth: 750
Flags: W
LayerCount: 2
Fore
SplineSet
-41 0 m 2,0,1
 -58 0 -58 0 -71 14 c 0,2,3
 -83 28 -83 28 -83 46 c 0,4,5
 -83 65 -83 65 -71 78 c 128,-1,6
 -58.8666666667 91.0666666667 -58.8666666667 91.0666666667 -43.2488888889 91.0666666667 c 0,7,8
 -42.1333333333 91.0666666667 -42.1333333333 91.0666666667 -41 91 c 2,9,-1
 106 91 l 1,10,11
 100 94 100 94 95 100 c 0,12,13
 83 114 83 114 83 132 c 256,14,15
 83 151 83 151 95 164 c 0,16,17
 103 172 103 172 112 176 c 1,18,-1
 112 176 l 1,19,20
 103 179 103 179 95 187 c 0,21,22
 83 201 83 201 83 219 c 0,23,24
 83 238 83 238 95 251 c 0,25,26
 103 258 103 258 112 262 c 1,27,-1
 112 262 l 1,28,29
 103 265 103 265 95 274 c 0,30,31
 83 288 83 288 83 306 c 0,32,33
 83 325 83 325 95 338 c 0,34,35
 103 346 103 346 112 350 c 1,36,-1
 112 350 l 1,37,38
 103 353 103 353 95 360 c 0,39,40
 83 374 83 374 83 392 c 128,-1,41
 83 410 83 410 95 424 c 0,42,43
 103 432 103 432 112 436 c 1,44,-1
 112 436 l 1,45,46
 103 439 103 439 95 447 c 0,47,48
 83 461 83 461 83 479 c 0,49,50
 83 498 83 498 95 512 c 0,51,52
 100 518 100 518 106 520 c 1,53,-1
 -41 520 l 2,54,55
 -58 520 -58 520 -71 534 c 0,56,57
 -83 548 -83 548 -83 566 c 128,-1,58
 -83 584 -83 584 -71 598 c 0,59,60
 -58 612 -58 612 -41 612 c 2,61,-1
 208 612 l 2,62,63
 225 612 225 612 238 598 c 0,64,65
 250 584 250 584 250 566 c 0,66,67
 250 547 250 547 238 534 c 0,68,69
 232 528 232 528 226 525 c 1,70,-1
 375 525 l 2,71,72
 376.133333333 525.066666667 376.133333333 525.066666667 377.244444444 525.066666667 c 0,73,74
 392.8 525.066666667 392.8 525.066666667 404 512 c 0,75,76
 416 498 416 498 416 479 c 128,-1,77
 416 460 416 460 404 447 c 0,78,79
 399 441 399 441 393 438 c 1,80,-1
 458 438 l 2,81,82
 476 438 476 438 488 424 c 128,-1,83
 500 410 500 410 500 392 c 0,84,85
 500 373 500 373 488 360 c 0,86,87
 483 354 483 354 476 352 c 1,88,-1
 542 352 l 2,89,90
 559 352 559 352 571 338 c 128,-1,91
 583 324 583 324 583 306 c 0,92,93
 583 287 583 287 571 274 c 0,94,95
 566 268 566 268 560 265 c 1,96,-1
 625 265 l 2,97,98
 642 265 642 265 655 251 c 0,99,100
 667 237 667 237 667 219 c 0,101,102
 667 200 667 200 655 187 c 0,103,104
 650 181 650 181 643 178 c 1,105,-1
 773 178 l 1,106,107
 767 181 767 181 762 187 c 0,108,109
 750 201 750 201 750 219 c 0,110,111
 750 238 750 238 762 251 c 0,112,113
 770 258 770 258 778 262 c 1,114,-1
 778 262 l 1,115,116
 769 265 769 265 762 274 c 0,117,118
 750 288 750 288 750 306 c 0,119,120
 750 325 750 325 762 338 c 0,121,122
 770 346 770 346 778 350 c 1,123,-1
 778 350 l 1,124,125
 769 353 769 353 762 360 c 0,126,127
 750 374 750 374 750 392 c 128,-1,128
 750 410 750 410 762 424 c 0,129,130
 770 432 770 432 778 436 c 1,131,-1
 778 436 l 1,132,133
 769 439 769 439 762 447 c 0,134,135
 750 461 750 461 750 479 c 0,136,137
 750 498 750 498 762 512 c 0,138,139
 767 518 767 518 773 520 c 1,140,-1
 625 520 l 2,141,142
 608 520 608 520 596 534 c 0,143,144
 583 548 583 548 583 566 c 0,145,146
 584 584 584 584 596 598 c 128,-1,147
 608 612 608 612 625 612 c 2,148,-1
 1042 612 l 2,149,150
 1059 612 1059 612 1071 598 c 0,151,152
 1083.07142857 585 1083.07142857 585 1083.07142857 568.551020408 c 0,153,154
 1083.07142857 547.077380952 1083.07142857 547.077380952 1071 534 c 0,155,156
 1059 520 1059 520 1042 520 c 2,157,-1
 892 520 l 1,158,159
 898 518 898 518 904 512 c 0,160,161
 916 498 916 498 916 479 c 128,-1,162
 916 460 916 460 904 447 c 0,163,164
 896 438 896 438 888 436 c 1,165,-1
 888 436 l 1,166,167
 896 432 896 432 904 424 c 0,168,169
 916 410 916 410 916 392 c 0,170,171
 916 373 916 373 904 360 c 0,172,173
 896 352 896 352 888 350 c 1,174,-1
 888 350 l 1,175,176
 896 347 896 347 904 338 c 0,177,178
 916 324 916 324 916 306 c 0,179,180
 916 287 916 287 904 274 c 0,181,182
 896 266 896 266 888 262 c 1,183,-1
 888 262 l 1,184,185
 896 259 896 259 904 251 c 0,186,187
 916 237 916 237 916 219 c 0,188,189
 916 200 916 200 904 187 c 0,190,191
 896 180 896 180 888 176 c 1,192,-1
 888 176 l 1,193,194
 896 173 896 173 904 164 c 0,195,196
 916 150 916 150 916 132 c 256,197,198
 916 113 916 113 904 100 c 0,199,200
 898 94 898 94 892 91 c 1,201,-1
 1042 91 l 2,202,203
 1059 91 1059 91 1071 78 c 128,-1,204
 1083.07142857 65 1083.07142857 65 1083.07142857 48.5510204082 c 0,205,206
 1083.07142857 28.0833333333 1083.07142857 28.0833333333 1071 14 c 128,-1,207
 1059 0 1059 0 1042 0 c 2,208,-1
 791 0 l 2,209,210
 774 0 774 0 762 14 c 256,211,212
 750 28 750 28 750 46 c 0,213,214
 750 65 750 65 762 78 c 0,215,216
 767 84 767 84 773 87 c 1,217,-1
 625 87 l 2,218,219
 608 87 608 87 596 100 c 0,220,221
 583 114 583 114 583 132 c 256,222,223
 584 151 584 151 596 164 c 0,224,225
 601 170 601 170 607 173 c 1,226,-1
 542 173 l 2,227,228
 525 173 525 173 512 187 c 0,229,230
 500 201 500 201 500 219 c 0,231,232
 500 238 500 238 512 251 c 0,233,234
 518 257 518 257 524 260 c 1,235,-1
 458 260 l 2,236,237
 441 260 441 260 429 274 c 0,238,239
 416 288 416 288 416 306 c 0,240,241
 416 325 416 325 429 338 c 0,242,243
 434 344 434 344 440 347 c 1,244,-1
 375 347 l 2,245,246
 358 347 358 347 345 360 c 0,247,248
 333 374 333 374 333 392 c 128,-1,249
 333 410 333 410 345 424 c 0,250,251
 350 430 350 430 357 434 c 1,252,-1
 226 434 l 1,253,254
 232 430 232 430 238 424 c 0,255,256
 250 410 250 410 250 392 c 0,257,258
 250 373 250 373 238 360 c 0,259,260
 230 352 230 352 221 350 c 1,261,-1
 221 350 l 1,262,263
 230 347 230 347 238 338 c 0,264,265
 250 324 250 324 250 306 c 0,266,267
 250 287 250 287 238 274 c 0,268,269
 230 266 230 266 221 262 c 1,270,-1
 221 262 l 1,271,272
 230 259 230 259 238 251 c 0,273,274
 250 237 250 237 250 219 c 0,275,276
 250 200 250 200 238 187 c 0,277,278
 230 180 230 180 221 176 c 1,279,-1
 221 176 l 1,280,281
 230 173 230 173 238 164 c 0,282,283
 250 150 250 150 250 132 c 256,284,285
 250 113 250 113 238 100 c 0,286,287
 232 94 232 94 226 91 c 1,288,-1
 375 91 l 2,289,290
 392 91 392 91 404 78 c 0,291,292
 416 64 416 64 416 46 c 128,-1,293
 416 28 416 28 404 14 c 256,294,295
 392 0 392 0 375 0 c 2,296,-1
 -41 0 l 2,0,1
EndSplineSet
EndChar

StartChar: O
Encoding: 79 79 47
Width: 1291
VWidth: 750
Flags: W
LayerCount: 2
Fore
SplineSet
940 91 m 1,0,1
 934 94 934 94 928 100 c 0,2,3
 916 114 916 114 916 132 c 256,4,5
 916 151 916 151 928 164 c 256,6,7
 940 178 940 178 958 178 c 2,8,-1
 1024 178 l 1,9,10
 1018 181 1018 181 1012 187 c 0,11,12
 1000 201 1000 201 1000 219 c 0,13,14
 1000 238 1000 238 1012 251 c 0,15,16
 1020 258 1020 258 1028 262 c 1,17,-1
 1028 262 l 1,18,19
 1019 265 1019 265 1012 274 c 0,20,21
 1000 288 1000 288 1000 306 c 0,22,23
 1000 325 1000 325 1012 338 c 0,24,25
 1020 346 1020 346 1028 350 c 1,26,-1
 1028 350 l 1,27,28
 1019 353 1019 353 1012 360 c 0,29,30
 1000 374 1000 374 1000 392 c 128,-1,31
 1000 410 1000 410 1012 424 c 0,32,33
 1017 430 1017 430 1024 434 c 1,34,-1
 958 434 l 2,35,36
 940 434 940 434 928 447 c 0,37,38
 916 461 916 461 916 479 c 0,39,40
 916 498 916 498 928 512 c 0,41,42
 933 518 933 518 940 520 c 1,43,-1
 226 520 l 1,44,45
 232 518 232 518 238 512 c 0,46,47
 250 498 250 498 250 479 c 128,-1,48
 250 460 250 460 238 447 c 128,-1,49
 225.866666667 433.933333333 225.866666667 433.933333333 210.248888889 433.933333333 c 0,50,51
 209.133333333 433.933333333 209.133333333 433.933333333 208 434 c 2,52,-1
 142 434 l 1,53,54
 148 430 148 430 154 424 c 0,55,56
 166 410 166 410 166 392 c 0,57,58
 166 373 166 373 154 360 c 0,59,60
 146 352 146 352 138 350 c 1,61,-1
 138 350 l 1,62,63
 146 347 146 347 154 338 c 0,64,65
 166 324 166 324 166 306 c 0,66,67
 166 287 166 287 154 274 c 0,68,69
 146 266 146 266 138 262 c 1,70,-1
 138 262 l 1,71,72
 146 259 146 259 154 251 c 0,73,74
 166 237 166 237 166 219 c 0,75,76
 166 200 166 200 154 187 c 0,77,78
 148 181 148 181 142 178 c 1,79,-1
 208 178 l 2,80,81
 225 178 225 178 238 164 c 0,82,83
 250 150 250 150 250 132 c 256,84,85
 250 113 250 113 238 100 c 0,86,87
 232 94 232 94 226 91 c 1,88,-1
 940 91 l 1,0,1
208 0 m 2,89,90
 190 0 190 0 178 14 c 256,91,92
 166 28 166 28 166 46 c 0,93,94
 166 65 166 65 178 78 c 0,95,96
 183 84 183 84 190 87 c 1,97,-1
 125 87 l 2,98,99
 108 87 108 87 95 100 c 0,100,101
 83 114 83 114 83 132 c 256,102,103
 83 151 83 151 95 164 c 0,104,105
 100 170 100 170 106 173 c 1,106,-1
 41 173 l 2,107,108
 24 173 24 173 12 187 c 128,-1,109
 0 201 0 201 0 219 c 0,110,111
 0 238 0 238 12 251 c 0,112,113
 20 258 20 258 28 262 c 1,114,-1
 28 262 l 1,115,116
 19 265 19 265 12 274 c 0,117,118
 0 288 0 288 0 306 c 0,119,120
 0 325 0 325 12 338 c 0,121,122
 20 346 20 346 28 350 c 1,123,-1
 28 350 l 1,124,125
 19 353 19 353 12 360 c 0,126,127
 0 374 0 374 0 392 c 128,-1,128
 0 410 0 410 12 424 c 128,-1,129
 24 438 24 438 41 438 c 2,130,-1
 106 438 l 1,131,132
 100 441 100 441 95 447 c 0,133,134
 83 461 83 461 83 479 c 0,135,136
 83 498 83 498 95 512 c 0,137,138
 107.133333333 525.066666667 107.133333333 525.066666667 122.751111111 525.066666667 c 0,139,140
 123.866666667 525.066666667 123.866666667 525.066666667 125 525 c 2,141,-1
 190 525 l 1,142,143
 184 528 184 528 178 534 c 0,144,145
 166 548 166 548 166 566 c 128,-1,146
 166 584 166 584 178 598 c 128,-1,147
 190 612 190 612 208 612 c 2,148,-1
 958 612 l 2,149,150
 975 612 975 612 988 598 c 0,151,152
 1000 584 1000 584 1000 566 c 0,153,154
 1000 547 1000 547 988 534 c 0,155,156
 982 528 982 528 976 525 c 1,157,-1
 1042 525 l 2,158,159
 1043.13333333 525.066666667 1043.13333333 525.066666667 1044.24444444 525.066666667 c 0,160,161
 1059.8 525.066666667 1059.8 525.066666667 1071 512 c 0,162,163
 1083.07142857 499 1083.07142857 499 1083.07142857 481.68877551 c 0,164,165
 1083.07142857 460.077380952 1083.07142857 460.077380952 1071 447 c 0,166,167
 1066 441 1066 441 1060 438 c 1,168,-1
 1125 438 l 2,169,170
 1142 438 1142 438 1154 424 c 128,-1,171
 1166 410 1166 410 1166 392 c 0,172,173
 1166 373 1166 373 1154 360 c 0,174,175
 1146 352 1146 352 1138 350 c 1,176,-1
 1138 350 l 1,177,178
 1147 347 1147 347 1154 338 c 0,179,180
 1166 324 1166 324 1166 306 c 0,181,182
 1166 287 1166 287 1154 274 c 0,183,184
 1146 266 1146 266 1138 262 c 1,185,-1
 1138 262 l 1,186,187
 1147 259 1147 259 1154 251 c 0,188,189
 1166 237 1166 237 1166 219 c 0,190,191
 1166 200 1166 200 1154 187 c 0,192,193
 1142 173 1142 173 1125 173 c 2,194,-1
 1060 173 l 1,195,196
 1066 170 1066 170 1071 164 c 0,197,198
 1083.07142857 151 1083.07142857 151 1083.07142857 134.551020408 c 0,199,200
 1083.07142857 113.077380952 1083.07142857 113.077380952 1071 100 c 0,201,202
 1059.8 86.9333333333 1059.8 86.9333333333 1044.24444444 86.9333333333 c 0,203,204
 1043.13333333 86.9333333333 1043.13333333 86.9333333333 1042 87 c 2,205,-1
 976 87 l 1,206,207
 982 84 982 84 988 78 c 0,208,209
 1000 64 1000 64 1000 46 c 128,-1,210
 1000 28 1000 28 988 14 c 0,211,212
 975 0 975 0 958 0 c 2,213,-1
 208 0 l 2,89,90
EndSplineSet
EndChar

StartChar: P
Encoding: 80 80 48
Width: 1207
VWidth: 750
Flags: W
LayerCount: 2
Fore
SplineSet
940 352 m 1,0,1
 934 355 934 355 928 360 c 0,2,3
 916 374 916 374 916 392 c 128,-1,4
 916 410 916 410 928 424 c 0,5,6
 936 432 936 432 945 436 c 1,7,-1
 945 436 l 1,8,9
 936 439 936 439 928 447 c 0,10,11
 916 461 916 461 916 479 c 0,12,13
 916 498 916 498 928 512 c 0,14,15
 933 518 933 518 940 520 c 1,16,-1
 310 520 l 1,17,18
 316 518 316 518 321 512 c 0,19,20
 333.071428571 499 333.071428571 499 333.071428571 481.68877551 c 0,21,22
 333.071428571 460.077380952 333.071428571 460.077380952 321 447 c 0,23,24
 314 438 314 438 304 436 c 1,25,-1
 304 436 l 1,26,27
 313 432 313 432 321 424 c 0,28,29
 333.071428571 411 333.071428571 411 333.071428571 394.551020408 c 0,30,31
 333.071428571 373.077380952 333.071428571 373.077380952 321 360 c 0,32,33
 316 354 316 354 310 352 c 1,34,-1
 940 352 l 1,0,1
41 0 m 2,35,36
 24 0 24 0 12 14 c 256,37,38
 0 28 0 28 0 46 c 0,39,40
 0 65 0 65 12 78 c 0,41,42
 23.2 91.0666666667 23.2 91.0666666667 38.7555555556 91.0666666667 c 0,43,44
 39.8666666667 91.0666666667 39.8666666667 91.0666666667 41 91 c 2,45,-1
 190 91 l 1,46,47
 184 94 184 94 178 100 c 0,48,49
 166 114 166 114 166 132 c 256,50,51
 166 151 166 151 178 164 c 0,52,53
 186 172 186 172 195 176 c 1,54,-1
 195 176 l 1,55,56
 186 179 186 179 178 187 c 0,57,58
 166 201 166 201 166 219 c 0,59,60
 166 238 166 238 178 251 c 0,61,62
 186 258 186 258 195 262 c 1,63,-1
 195 262 l 1,64,65
 186 265 186 265 178 274 c 0,66,67
 166 288 166 288 166 306 c 0,68,69
 166 325 166 325 178 338 c 0,70,71
 186 346 186 346 195 350 c 1,72,-1
 195 350 l 1,73,74
 186 353 186 353 178 360 c 0,75,76
 166 374 166 374 166 392 c 128,-1,77
 166 410 166 410 178 424 c 0,78,79
 186 432 186 432 195 436 c 1,80,-1
 195 436 l 1,81,82
 186 439 186 439 178 447 c 0,83,84
 166 461 166 461 166 479 c 0,85,86
 166 498 166 498 178 512 c 0,87,88
 183 518 183 518 190 520 c 1,89,-1
 41 520 l 2,90,91
 24 520 24 520 12 534 c 128,-1,92
 0 548 0 548 0 566 c 128,-1,93
 0 584 0 584 12 598 c 128,-1,94
 24 612 24 612 41 612 c 2,95,-1
 958 612 l 2,96,97
 975 612 975 612 988 598 c 0,98,99
 1000 584 1000 584 1000 566 c 0,100,101
 1000 547 1000 547 988 534 c 0,102,103
 982 528 982 528 976 525 c 1,104,-1
 1042 525 l 2,105,106
 1043.13333333 525.066666667 1043.13333333 525.066666667 1044.24444444 525.066666667 c 0,107,108
 1059.8 525.066666667 1059.8 525.066666667 1071 512 c 0,109,110
 1083.07142857 499 1083.07142857 499 1083.07142857 481.68877551 c 0,111,112
 1083.07142857 460.077380952 1083.07142857 460.077380952 1071 447 c 0,113,114
 1064 438 1064 438 1054 436 c 1,115,-1
 1054 436 l 1,116,117
 1063 432 1063 432 1071 424 c 0,118,119
 1083.07142857 411 1083.07142857 411 1083.07142857 394.551020408 c 0,120,121
 1083.07142857 373.077380952 1083.07142857 373.077380952 1071 360 c 0,122,123
 1059.8 346.933333333 1059.8 346.933333333 1044.24444444 346.933333333 c 0,124,125
 1043.13333333 346.933333333 1043.13333333 346.933333333 1042 347 c 2,126,-1
 976 347 l 1,127,128
 982 344 982 344 988 338 c 0,129,130
 1000 324 1000 324 1000 306 c 0,131,132
 1000 287 1000 287 988 274 c 0,133,134
 975 260 975 260 958 260 c 2,135,-1
 310 260 l 1,136,137
 316 257 316 257 321 251 c 0,138,139
 333.071428571 238 333.071428571 238 333.071428571 221.551020408 c 0,140,141
 333.071428571 200.077380952 333.071428571 200.077380952 321 187 c 0,142,143
 314 180 314 180 304 176 c 1,144,-1
 304 176 l 1,145,146
 313 173 313 173 321 164 c 0,147,148
 333.071428571 151 333.071428571 151 333.071428571 134.551020408 c 0,149,150
 333.071428571 113.077380952 333.071428571 113.077380952 321 100 c 0,151,152
 316 94 316 94 310 91 c 1,153,-1
 458 91 l 2,154,155
 476 91 476 91 488 78 c 0,156,157
 500 64 500 64 500 46 c 128,-1,158
 500 28 500 28 488 14 c 0,159,160
 475 0 475 0 458 0 c 2,161,-1
 41 0 l 2,35,36
EndSplineSet
EndChar

StartChar: Q
Encoding: 81 81 49
Width: 1125
VWidth: 750
Flags: W
LayerCount: 2
Fore
SplineSet
875 0 m 2,0,1
 858 0 858 0 845 14 c 0,2,3
 833 28 833 28 833 46 c 0,4,5
 833 65 833 65 845 78 c 128,-1,6
 857.133333333 91.0666666667 857.133333333 91.0666666667 872.751111111 91.0666666667 c 0,7,8
 873.866666667 91.0666666667 873.866666667 91.0666666667 875 91 c 2,9,-1
 958 91 l 2,10,11
 975 91 975 91 988 78 c 0,12,13
 1000 64 1000 64 1000 46 c 128,-1,14
 1000 28 1000 28 988 14 c 0,15,16
 975 0 975 0 958 0 c 2,17,-1
 875 0 l 2,0,1
708 87 m 2,18,19
 691 87 691 87 679 100 c 0,20,21
 667 114 667 114 667 132 c 256,22,23
 667 151 667 151 679 164 c 0,24,25
 692 178 692 178 708 178 c 2,26,-1
 791 178 l 2,27,28
 808 178 808 178 821 164 c 0,29,30
 833 150 833 150 833 132 c 256,31,32
 833 113 833 113 821 100 c 128,-1,33
 808.866666667 86.9333333333 808.866666667 86.9333333333 793.248888889 86.9333333333 c 0,34,35
 792.133333333 86.9333333333 792.133333333 86.9333333333 791 87 c 2,36,-1
 708 87 l 2,18,19
542 173 m 2,37,38
 525 173 525 173 512 187 c 0,39,40
 500 201 500 201 500 219 c 0,41,42
 500 238 500 238 512 251 c 0,43,44
 526 265 526 265 542 265 c 2,45,-1
 625 265 l 2,46,47
 642 265 642 265 655 251 c 0,48,49
 667 237 667 237 667 219 c 0,50,51
 667 200 667 200 655 187 c 0,52,53
 642 173 642 173 625 173 c 2,54,-1
 542 173 l 2,37,38
208 0 m 2,55,56
 190 0 190 0 178 14 c 256,57,58
 166 28 166 28 166 46 c 0,59,60
 166 65 166 65 178 78 c 0,61,62
 183 84 183 84 190 87 c 1,63,-1
 125 87 l 2,64,65
 108 87 108 87 95 100 c 0,66,67
 83 114 83 114 83 132 c 256,68,69
 83 151 83 151 95 164 c 0,70,71
 100 170 100 170 106 173 c 1,72,-1
 41 173 l 2,73,74
 24 173 24 173 12 187 c 128,-1,75
 0 201 0 201 0 219 c 0,76,77
 0 238 0 238 12 251 c 0,78,79
 20 258 20 258 28 262 c 1,80,-1
 28 262 l 1,81,82
 19 265 19 265 12 274 c 0,83,84
 0 288 0 288 0 306 c 0,85,86
 0 325 0 325 12 338 c 0,87,88
 20 346 20 346 28 350 c 1,89,-1
 28 350 l 1,90,91
 19 353 19 353 12 360 c 0,92,93
 0 374 0 374 0 392 c 128,-1,94
 0 410 0 410 12 424 c 128,-1,95
 24 438 24 438 41 438 c 2,96,-1
 106 438 l 1,97,98
 100 441 100 441 95 447 c 0,99,100
 83 461 83 461 83 479 c 0,101,102
 83 498 83 498 95 512 c 0,103,104
 107.133333333 525.066666667 107.133333333 525.066666667 122.751111111 525.066666667 c 0,105,106
 123.866666667 525.066666667 123.866666667 525.066666667 125 525 c 2,107,-1
 190 525 l 1,108,109
 184 528 184 528 178 534 c 0,110,111
 166 548 166 548 166 566 c 128,-1,112
 166 584 166 584 178 598 c 128,-1,113
 190 612 190 612 208 612 c 2,114,-1
 791 612 l 2,115,116
 808 612 808 612 821 598 c 0,117,118
 833 584 833 584 833 566 c 0,119,120
 833 547 833 547 821 534 c 0,121,122
 816 528 816 528 810 525 c 1,123,-1
 875 525 l 2,124,125
 876.133333333 525.066666667 876.133333333 525.066666667 877.244444444 525.066666667 c 0,126,127
 892.8 525.066666667 892.8 525.066666667 904 512 c 0,128,129
 916 498 916 498 916 479 c 128,-1,130
 916 460 916 460 904 447 c 0,131,132
 898 441 898 441 892 438 c 1,133,-1
 958 438 l 2,134,135
 975 438 975 438 988 424 c 0,136,137
 1000 410 1000 410 1000 392 c 0,138,139
 1000 373 1000 373 988 360 c 0,140,141
 980 352 980 352 971 350 c 1,142,-1
 971 350 l 1,143,144
 980 347 980 347 988 338 c 0,145,146
 1000 324 1000 324 1000 306 c 0,147,148
 1000 287 1000 287 988 274 c 0,149,150
 980 266 980 266 971 262 c 1,151,-1
 971 262 l 1,152,153
 980 259 980 259 988 251 c 0,154,155
 1000 237 1000 237 1000 219 c 0,156,157
 1000 200 1000 200 988 187 c 0,158,159
 975 173 975 173 958 173 c 2,160,-1
 875 173 l 2,161,162
 858 173 858 173 845 187 c 0,163,164
 833 201 833 201 833 219 c 0,165,166
 833 238 833 238 845 251 c 0,167,168
 853 258 853 258 862 262 c 1,169,-1
 862 262 l 1,170,171
 853 265 853 265 845 274 c 0,172,173
 833 288 833 288 833 306 c 0,174,175
 833 325 833 325 845 338 c 0,176,177
 853 346 853 346 862 350 c 1,178,-1
 862 350 l 1,179,180
 853 353 853 353 845 360 c 0,181,182
 833 374 833 374 833 392 c 128,-1,183
 833 410 833 410 845 424 c 0,184,185
 850 430 850 430 856 434 c 1,186,-1
 791 434 l 2,187,188
 774 434 774 434 762 447 c 0,189,190
 750 461 750 461 750 479 c 0,191,192
 750 498 750 498 762 512 c 0,193,194
 767 518 767 518 773 520 c 1,195,-1
 226 520 l 1,196,197
 232 518 232 518 238 512 c 0,198,199
 250 498 250 498 250 479 c 128,-1,200
 250 460 250 460 238 447 c 128,-1,201
 225.866666667 433.933333333 225.866666667 433.933333333 210.248888889 433.933333333 c 0,202,203
 209.133333333 433.933333333 209.133333333 433.933333333 208 434 c 2,204,-1
 142 434 l 1,205,206
 148 430 148 430 154 424 c 0,207,208
 166 410 166 410 166 392 c 0,209,210
 166 373 166 373 154 360 c 0,211,212
 146 352 146 352 138 350 c 1,213,-1
 138 350 l 1,214,215
 146 347 146 347 154 338 c 0,216,217
 166 324 166 324 166 306 c 0,218,219
 166 287 166 287 154 274 c 0,220,221
 146 266 146 266 138 262 c 1,222,-1
 138 262 l 1,223,224
 146 259 146 259 154 251 c 0,225,226
 166 237 166 237 166 219 c 0,227,228
 166 200 166 200 154 187 c 0,229,230
 148 181 148 181 142 178 c 1,231,-1
 208 178 l 2,232,233
 225 178 225 178 238 164 c 0,234,235
 250 150 250 150 250 132 c 256,236,237
 250 113 250 113 238 100 c 0,238,239
 232 94 232 94 226 91 c 1,240,-1
 625 91 l 2,241,242
 642 91 642 91 655 78 c 0,243,244
 667 64 667 64 667 46 c 128,-1,245
 667 28 667 28 655 14 c 0,246,247
 642 0 642 0 625 0 c 2,248,-1
 208 0 l 2,55,56
EndSplineSet
EndChar

StartChar: R
Encoding: 82 82 50
Width: 1291
VWidth: 750
Flags: W
LayerCount: 2
Fore
SplineSet
940 352 m 1,0,1
 934 355 934 355 928 360 c 0,2,3
 916 374 916 374 916 392 c 128,-1,4
 916 410 916 410 928 424 c 0,5,6
 936 432 936 432 945 436 c 1,7,-1
 945 436 l 1,8,9
 936 439 936 439 928 447 c 0,10,11
 916 461 916 461 916 479 c 0,12,13
 916 498 916 498 928 512 c 0,14,15
 933 518 933 518 940 520 c 1,16,-1
 310 520 l 1,17,18
 316 518 316 518 321 512 c 0,19,20
 333.071428571 499 333.071428571 499 333.071428571 481.68877551 c 0,21,22
 333.071428571 460.077380952 333.071428571 460.077380952 321 447 c 0,23,24
 314 438 314 438 304 436 c 1,25,-1
 304 436 l 1,26,27
 313 432 313 432 321 424 c 0,28,29
 333.071428571 411 333.071428571 411 333.071428571 394.551020408 c 0,30,31
 333.071428571 373.077380952 333.071428571 373.077380952 321 360 c 0,32,33
 316 354 316 354 310 352 c 1,34,-1
 940 352 l 1,0,1
41 0 m 2,35,36
 24 0 24 0 12 14 c 256,37,38
 0 28 0 28 0 46 c 0,39,40
 0 65 0 65 12 78 c 0,41,42
 23.2 91.0666666667 23.2 91.0666666667 38.7555555556 91.0666666667 c 0,43,44
 39.8666666667 91.0666666667 39.8666666667 91.0666666667 41 91 c 2,45,-1
 190 91 l 1,46,47
 184 94 184 94 178 100 c 0,48,49
 166 114 166 114 166 132 c 256,50,51
 166 151 166 151 178 164 c 0,52,53
 186 172 186 172 195 176 c 1,54,-1
 195 176 l 1,55,56
 186 179 186 179 178 187 c 0,57,58
 166 201 166 201 166 219 c 0,59,60
 166 238 166 238 178 251 c 0,61,62
 186 258 186 258 195 262 c 1,63,-1
 195 262 l 1,64,65
 186 265 186 265 178 274 c 0,66,67
 166 288 166 288 166 306 c 0,68,69
 166 325 166 325 178 338 c 0,70,71
 186 346 186 346 195 350 c 1,72,-1
 195 350 l 1,73,74
 186 353 186 353 178 360 c 0,75,76
 166 374 166 374 166 392 c 128,-1,77
 166 410 166 410 178 424 c 0,78,79
 186 432 186 432 195 436 c 1,80,-1
 195 436 l 1,81,82
 186 439 186 439 178 447 c 0,83,84
 166 461 166 461 166 479 c 0,85,86
 166 498 166 498 178 512 c 0,87,88
 183 518 183 518 190 520 c 1,89,-1
 41 520 l 2,90,91
 24 520 24 520 12 534 c 128,-1,92
 0 548 0 548 0 566 c 128,-1,93
 0 584 0 584 12 598 c 128,-1,94
 24 612 24 612 41 612 c 2,95,-1
 958 612 l 2,96,97
 975 612 975 612 988 598 c 0,98,99
 1000 584 1000 584 1000 566 c 0,100,101
 1000 547 1000 547 988 534 c 0,102,103
 982 528 982 528 976 525 c 1,104,-1
 1042 525 l 2,105,106
 1043.13333333 525.066666667 1043.13333333 525.066666667 1044.24444444 525.066666667 c 0,107,108
 1059.8 525.066666667 1059.8 525.066666667 1071 512 c 0,109,110
 1083.07142857 499 1083.07142857 499 1083.07142857 481.68877551 c 0,111,112
 1083.07142857 460.077380952 1083.07142857 460.077380952 1071 447 c 0,113,114
 1064 438 1064 438 1054 436 c 1,115,-1
 1054 436 l 1,116,117
 1063 432 1063 432 1071 424 c 0,118,119
 1083.07142857 411 1083.07142857 411 1083.07142857 394.551020408 c 0,120,121
 1083.07142857 373.077380952 1083.07142857 373.077380952 1071 360 c 0,122,123
 1059.8 346.933333333 1059.8 346.933333333 1044.24444444 346.933333333 c 0,124,125
 1043.13333333 346.933333333 1043.13333333 346.933333333 1042 347 c 2,126,-1
 976 347 l 1,127,128
 982 344 982 344 988 338 c 0,129,130
 1000 324 1000 324 1000 306 c 0,131,132
 1000 287 1000 287 988 274 c 0,133,134
 975 260 975 260 958 260 c 2,135,-1
 810 260 l 1,136,137
 816 257 816 257 821 251 c 0,138,139
 833 237 833 237 833 219 c 0,140,141
 833 200 833 200 821 187 c 0,142,143
 816 181 816 181 810 178 c 1,144,-1
 875 178 l 2,145,146
 892 178 892 178 904 164 c 128,-1,147
 916 150 916 150 916 132 c 256,148,149
 916 113 916 113 904 100 c 0,150,151
 898 94 898 94 892 91 c 1,152,-1
 1125 91 l 2,153,154
 1142 91 1142 91 1154 78 c 0,155,156
 1166 64 1166 64 1166 46 c 128,-1,157
 1166 28 1166 28 1154 14 c 256,158,159
 1142 0 1142 0 1125 0 c 2,160,-1
 875 0 l 2,161,162
 858 0 858 0 845 14 c 0,163,164
 833 28 833 28 833 46 c 0,165,166
 833 65 833 65 845 78 c 0,167,168
 850 84 850 84 856 87 c 1,169,-1
 791 87 l 2,170,171
 774 87 774 87 762 100 c 256,172,173
 750 114 750 114 750 132 c 256,174,175
 750 151 750 151 762 164 c 0,176,177
 767 170 767 170 773 173 c 1,178,-1
 708 173 l 2,179,180
 691 173 691 173 679 187 c 128,-1,181
 667 201 667 201 667 219 c 0,182,183
 667 238 667 238 679 251 c 0,184,185
 684 257 684 257 690 260 c 1,186,-1
 310 260 l 1,187,188
 316 257 316 257 321 251 c 0,189,190
 333.071428571 238 333.071428571 238 333.071428571 221.551020408 c 0,191,192
 333.071428571 200.077380952 333.071428571 200.077380952 321 187 c 0,193,194
 314 180 314 180 304 176 c 1,195,-1
 304 176 l 1,196,197
 313 173 313 173 321 164 c 0,198,199
 333.071428571 151 333.071428571 151 333.071428571 134.551020408 c 0,200,201
 333.071428571 113.077380952 333.071428571 113.077380952 321 100 c 0,202,203
 316 94 316 94 310 91 c 1,204,-1
 458 91 l 2,205,206
 476 91 476 91 488 78 c 0,207,208
 500 64 500 64 500 46 c 128,-1,209
 500 28 500 28 488 14 c 0,210,211
 475 0 475 0 458 0 c 2,212,-1
 41 0 l 2,35,36
EndSplineSet
EndChar

StartChar: S
Encoding: 83 83 51
Width: 957
VWidth: 750
Flags: W
LayerCount: 2
Fore
SplineSet
125 0 m 2,0,1
 108 0 108 0 95 14 c 0,2,3
 83 28 83 28 83 46 c 0,4,5
 83 65 83 65 95 78 c 0,6,7
 100 84 100 84 106 87 c 1,8,-1
 41 87 l 2,9,10
 24 87 24 87 12 100 c 256,11,12
 0 114 0 114 0 132 c 256,13,14
 0 151 0 151 12 164 c 256,15,16
 24 178 24 178 41 178 c 2,17,-1
 125 178 l 2,18,19
 142 178 142 178 154 164 c 128,-1,20
 166 150 166 150 166 132 c 256,21,22
 166 113 166 113 154 100 c 0,23,24
 148 94 148 94 142 91 c 1,25,-1
 690 91 l 1,26,27
 684 94 684 94 679 100 c 0,28,29
 667 114 667 114 667 132 c 256,30,31
 667 151 667 151 679 164 c 0,32,33
 687 172 687 172 695 176 c 1,34,-1
 695 176 l 1,35,36
 686 179 686 179 679 187 c 0,37,38
 667 201 667 201 667 219 c 0,39,40
 667 238 667 238 679 251 c 0,41,42
 684 257 684 257 690 260 c 1,43,-1
 125 260 l 2,44,45
 108 260 108 260 95 274 c 0,46,47
 83 288 83 288 83 306 c 0,48,49
 83 325 83 325 95 338 c 0,50,51
 100 344 100 344 106 347 c 1,52,-1
 41 347 l 2,53,54
 24 347 24 347 12 360 c 0,55,56
 0 374 0 374 0 392 c 128,-1,57
 0 410 0 410 12 424 c 0,58,59
 20 432 20 432 28 436 c 1,60,-1
 28 436 l 1,61,62
 19 439 19 439 12 447 c 0,63,64
 0 461 0 461 0 479 c 0,65,66
 0 498 0 498 12 512 c 0,67,68
 23.2 525.066666667 23.2 525.066666667 38.7555555556 525.066666667 c 0,69,70
 39.8666666667 525.066666667 39.8666666667 525.066666667 41 525 c 2,71,-1
 106 525 l 1,72,73
 100 528 100 528 95 534 c 0,74,75
 83 548 83 548 83 566 c 128,-1,76
 83 584 83 584 95 598 c 0,77,78
 108 612 108 612 125 612 c 2,79,-1
 708 612 l 2,80,81
 725 612 725 612 737 598 c 0,82,83
 750 584 750 584 750 566 c 0,84,85
 750 547 750 547 737 534 c 0,86,87
 732 528 732 528 726 525 c 1,88,-1
 791 525 l 2,89,90
 792.133333333 525.066666667 792.133333333 525.066666667 793.248888889 525.066666667 c 0,91,92
 808.866666667 525.066666667 808.866666667 525.066666667 821 512 c 0,93,94
 833 498 833 498 833 479 c 128,-1,95
 833 460 833 460 821 447 c 128,-1,96
 808.866666667 433.933333333 808.866666667 433.933333333 793.248888889 433.933333333 c 0,97,98
 792.133333333 433.933333333 792.133333333 433.933333333 791 434 c 2,99,-1
 708 434 l 2,100,101
 691 434 691 434 679 447 c 0,102,103
 667 461 667 461 667 479 c 0,104,105
 667 498 667 498 679 512 c 0,106,107
 684 518 684 518 690 520 c 1,108,-1
 142 520 l 1,109,110
 148 518 148 518 154 512 c 0,111,112
 166 498 166 498 166 479 c 128,-1,113
 166 460 166 460 154 447 c 0,114,115
 146 438 146 438 138 436 c 1,116,-1
 138 436 l 1,117,118
 146 432 146 432 154 424 c 0,119,120
 166 410 166 410 166 392 c 0,121,122
 166 373 166 373 154 360 c 0,123,124
 148 354 148 354 142 352 c 1,125,-1
 708 352 l 2,126,127
 725 352 725 352 737 338 c 0,128,129
 750 324 750 324 750 306 c 0,130,131
 750 287 750 287 737 274 c 0,132,133
 732 268 732 268 726 265 c 1,134,-1
 791 265 l 2,135,136
 808 265 808 265 821 251 c 0,137,138
 833 237 833 237 833 219 c 0,139,140
 833 200 833 200 821 187 c 0,141,142
 813 180 813 180 805 176 c 1,143,-1
 805 176 l 1,144,145
 814 173 814 173 821 164 c 0,146,147
 833 150 833 150 833 132 c 256,148,149
 833 113 833 113 821 100 c 128,-1,150
 808.866666667 86.9333333333 808.866666667 86.9333333333 793.248888889 86.9333333333 c 0,151,152
 792.133333333 86.9333333333 792.133333333 86.9333333333 791 87 c 2,153,-1
 726 87 l 1,154,155
 732 84 732 84 737 78 c 0,156,157
 750 64 750 64 750 46 c 128,-1,158
 750 28 750 28 737 14 c 0,159,160
 725 0 725 0 708 0 c 2,161,-1
 125 0 l 2,0,1
EndSplineSet
EndChar

StartChar: T
Encoding: 84 84 52
Width: 1125
VWidth: 750
Flags: W
LayerCount: 2
Fore
SplineSet
292 0 m 2,0,1
 275 0 275 0 262 14 c 0,2,3
 250 28 250 28 250 46 c 0,4,5
 250 65 250 65 262 78 c 128,-1,6
 274.133333333 91.0666666667 274.133333333 91.0666666667 289.751111111 91.0666666667 c 0,7,8
 290.866666667 91.0666666667 290.866666667 91.0666666667 292 91 c 2,9,-1
 440 91 l 1,10,11
 434 94 434 94 429 100 c 0,12,13
 416 114 416 114 416 132 c 256,14,15
 416 151 416 151 429 164 c 0,16,17
 436 172 436 172 445 176 c 1,18,-1
 445 176 l 1,19,20
 436 179 436 179 429 187 c 0,21,22
 416 201 416 201 416 219 c 0,23,24
 416 238 416 238 429 251 c 0,25,26
 436 258 436 258 445 262 c 1,27,-1
 445 262 l 1,28,29
 436 265 436 265 429 274 c 0,30,31
 416 288 416 288 416 306 c 0,32,33
 416 325 416 325 429 338 c 0,34,35
 436 346 436 346 445 350 c 1,36,-1
 445 350 l 1,37,38
 436 353 436 353 429 360 c 0,39,40
 416 374 416 374 416 392 c 128,-1,41
 416 410 416 410 429 424 c 0,42,43
 436 432 436 432 445 436 c 1,44,-1
 445 436 l 1,45,46
 436 439 436 439 429 447 c 0,47,48
 416 461 416 461 416 479 c 0,49,50
 416 498 416 498 429 512 c 0,51,52
 434 518 434 518 440 520 c 1,53,-1
 142 520 l 1,54,55
 148 518 148 518 154 512 c 0,56,57
 166 498 166 498 166 479 c 128,-1,58
 166 460 166 460 154 447 c 0,59,60
 142.8 433.933333333 142.8 433.933333333 127.244444444 433.933333333 c 0,61,62
 126.133333333 433.933333333 126.133333333 433.933333333 125 434 c 2,63,-1
 41 434 l 2,64,65
 24 434 24 434 12 447 c 0,66,67
 0 461 0 461 0 479 c 0,68,69
 0 498 0 498 12 512 c 0,70,71
 20 520 20 520 28 523 c 1,72,-1
 28 523 l 1,73,74
 19 526 19 526 12 534 c 0,75,76
 0 548 0 548 0 566 c 128,-1,77
 0 584 0 584 12 598 c 128,-1,78
 24 612 24 612 41 612 c 2,79,-1
 958 612 l 2,80,81
 975 612 975 612 988 598 c 0,82,83
 1000 584 1000 584 1000 566 c 0,84,85
 1000 547 1000 547 988 534 c 0,86,87
 980 526 980 526 971 523 c 1,88,-1
 971 523 l 1,89,90
 980 520 980 520 988 512 c 0,91,92
 1000 498 1000 498 1000 479 c 128,-1,93
 1000 460 1000 460 988 447 c 128,-1,94
 975.866666667 433.933333333 975.866666667 433.933333333 960.248888889 433.933333333 c 0,95,96
 959.133333333 433.933333333 959.133333333 433.933333333 958 434 c 2,97,-1
 875 434 l 2,98,99
 858 434 858 434 845 447 c 0,100,101
 833 461 833 461 833 479 c 0,102,103
 833 498 833 498 845 512 c 0,104,105
 850 518 850 518 856 520 c 1,106,-1
 560 520 l 1,107,108
 566 518 566 518 571 512 c 0,109,110
 583 498 583 498 583 479 c 128,-1,111
 583 460 583 460 571 447 c 0,112,113
 563 438 563 438 554 436 c 1,114,-1
 554 436 l 1,115,116
 563 432 563 432 571 424 c 0,117,118
 583 410 583 410 583 392 c 0,119,120
 583 373 583 373 571 360 c 0,121,122
 563 352 563 352 554 350 c 1,123,-1
 554 350 l 1,124,125
 563 347 563 347 571 338 c 0,126,127
 583 324 583 324 583 306 c 0,128,129
 583 287 583 287 571 274 c 0,130,131
 563 266 563 266 554 262 c 1,132,-1
 554 262 l 1,133,134
 563 259 563 259 571 251 c 0,135,136
 583 237 583 237 583 219 c 0,137,138
 583 200 583 200 571 187 c 0,139,140
 563 180 563 180 554 176 c 1,141,-1
 554 176 l 1,142,143
 563 173 563 173 571 164 c 0,144,145
 583 150 583 150 583 132 c 256,146,147
 583 113 583 113 571 100 c 0,148,149
 566 94 566 94 560 91 c 1,150,-1
 708 91 l 2,151,152
 725 91 725 91 737 78 c 0,153,154
 750 64 750 64 750 46 c 128,-1,155
 750 28 750 28 737 14 c 0,156,157
 725 0 725 0 708 0 c 2,158,-1
 292 0 l 2,0,1
EndSplineSet
EndChar

StartChar: U
Encoding: 85 85 53
Width: 1207
VWidth: 750
Flags: W
LayerCount: 2
Fore
SplineSet
292 0 m 2,0,1
 275 0 275 0 262 14 c 0,2,3
 250 28 250 28 250 46 c 0,4,5
 250 65 250 65 262 78 c 0,6,7
 267 84 267 84 274 87 c 1,8,-1
 208 87 l 2,9,10
 190 87 190 87 178 100 c 256,11,12
 166 114 166 114 166 132 c 256,13,14
 166 151 166 151 178 164 c 0,15,16
 183 170 183 170 190 173 c 1,17,-1
 125 173 l 2,18,19
 108 173 108 173 95 187 c 0,20,21
 83 201 83 201 83 219 c 0,22,23
 83 238 83 238 95 251 c 0,24,25
 103 258 103 258 112 262 c 1,26,-1
 112 262 l 1,27,28
 103 265 103 265 95 274 c 0,29,30
 83 288 83 288 83 306 c 0,31,32
 83 325 83 325 95 338 c 0,33,34
 103 346 103 346 112 350 c 1,35,-1
 112 350 l 1,36,37
 103 353 103 353 95 360 c 0,38,39
 83 374 83 374 83 392 c 128,-1,40
 83 410 83 410 95 424 c 0,41,42
 103 432 103 432 112 436 c 1,43,-1
 112 436 l 1,44,45
 103 439 103 439 95 447 c 0,46,47
 83 461 83 461 83 479 c 0,48,49
 83 498 83 498 95 512 c 0,50,51
 100 518 100 518 106 520 c 1,52,-1
 -41 520 l 2,53,54
 -58 520 -58 520 -71 534 c 0,55,56
 -83 548 -83 548 -83 566 c 128,-1,57
 -83 584 -83 584 -71 598 c 0,58,59
 -58 612 -58 612 -41 612 c 2,60,-1
 375 612 l 2,61,62
 392 612 392 612 404 598 c 128,-1,63
 416 584 416 584 416 566 c 0,64,65
 416 547 416 547 404 534 c 0,66,67
 392 520 392 520 375 520 c 2,68,-1
 226 520 l 1,69,70
 232 518 232 518 238 512 c 0,71,72
 250 498 250 498 250 479 c 128,-1,73
 250 460 250 460 238 447 c 0,74,75
 230 438 230 438 221 436 c 1,76,-1
 221 436 l 1,77,78
 230 432 230 432 238 424 c 0,79,80
 250 410 250 410 250 392 c 0,81,82
 250 373 250 373 238 360 c 0,83,84
 230 352 230 352 221 350 c 1,85,-1
 221 350 l 1,86,87
 230 347 230 347 238 338 c 0,88,89
 250 324 250 324 250 306 c 0,90,91
 250 287 250 287 238 274 c 0,92,93
 230 266 230 266 221 262 c 1,94,-1
 221 262 l 1,95,96
 230 259 230 259 238 251 c 0,97,98
 250 237 250 237 250 219 c 0,99,100
 250 200 250 200 238 187 c 0,101,102
 232 181 232 181 226 178 c 1,103,-1
 292 178 l 2,104,105
 309 178 309 178 321 164 c 0,106,107
 333.071428571 151 333.071428571 151 333.071428571 134.551020408 c 0,108,109
 333.071428571 113.077380952 333.071428571 113.077380952 321 100 c 0,110,111
 316 94 316 94 310 91 c 1,112,-1
 690 91 l 1,113,114
 684 94 684 94 679 100 c 0,115,116
 667 114 667 114 667 132 c 256,117,118
 667 151 667 151 679 164 c 0,119,120
 692 178 692 178 708 178 c 2,121,-1
 773 178 l 1,122,123
 767 181 767 181 762 187 c 0,124,125
 750 201 750 201 750 219 c 0,126,127
 750 238 750 238 762 251 c 0,128,129
 770 258 770 258 778 262 c 1,130,-1
 778 262 l 1,131,132
 769 265 769 265 762 274 c 0,133,134
 750 288 750 288 750 306 c 0,135,136
 750 325 750 325 762 338 c 0,137,138
 770 346 770 346 778 350 c 1,139,-1
 778 350 l 1,140,141
 769 353 769 353 762 360 c 0,142,143
 750 374 750 374 750 392 c 128,-1,144
 750 410 750 410 762 424 c 0,145,146
 770 432 770 432 778 436 c 1,147,-1
 778 436 l 1,148,149
 769 439 769 439 762 447 c 0,150,151
 750 461 750 461 750 479 c 0,152,153
 750 498 750 498 762 512 c 0,154,155
 767 518 767 518 773 520 c 1,156,-1
 625 520 l 2,157,158
 608 520 608 520 596 534 c 0,159,160
 583 548 583 548 583 566 c 0,161,162
 584 584 584 584 596 598 c 128,-1,163
 608 612 608 612 625 612 c 2,164,-1
 1042 612 l 2,165,166
 1059 612 1059 612 1071 598 c 0,167,168
 1083.07142857 585 1083.07142857 585 1083.07142857 568.551020408 c 0,169,170
 1083.07142857 547.077380952 1083.07142857 547.077380952 1071 534 c 0,171,172
 1059 520 1059 520 1042 520 c 2,173,-1
 892 520 l 1,174,175
 898 518 898 518 904 512 c 0,176,177
 916 498 916 498 916 479 c 128,-1,178
 916 460 916 460 904 447 c 0,179,180
 896 438 896 438 888 436 c 1,181,-1
 888 436 l 1,182,183
 896 432 896 432 904 424 c 0,184,185
 916 410 916 410 916 392 c 0,186,187
 916 373 916 373 904 360 c 0,188,189
 896 352 896 352 888 350 c 1,190,-1
 888 350 l 1,191,192
 896 347 896 347 904 338 c 0,193,194
 916 324 916 324 916 306 c 0,195,196
 916 287 916 287 904 274 c 0,197,198
 896 266 896 266 888 262 c 1,199,-1
 888 262 l 1,200,201
 896 259 896 259 904 251 c 0,202,203
 916 237 916 237 916 219 c 0,204,205
 916 200 916 200 904 187 c 0,206,207
 892 173 892 173 875 173 c 2,208,-1
 810 173 l 1,209,210
 816 170 816 170 821 164 c 0,211,212
 833 150 833 150 833 132 c 256,213,214
 833 113 833 113 821 100 c 128,-1,215
 808.866666667 86.9333333333 808.866666667 86.9333333333 793.248888889 86.9333333333 c 0,216,217
 792.133333333 86.9333333333 792.133333333 86.9333333333 791 87 c 2,218,-1
 726 87 l 1,219,220
 732 84 732 84 737 78 c 0,221,222
 750 64 750 64 750 46 c 128,-1,223
 750 28 750 28 737 14 c 0,224,225
 725 0 725 0 708 0 c 2,226,-1
 292 0 l 2,0,1
EndSplineSet
EndChar

